<?xml version="1.0" standalone="no"?>
<!DOCTYPE svg PUBLIC "-//W3C//DTD SVG 20010904//EN"
 "http://www.w3.org/TR/2001/REC-SVG-20010904/DTD/svg10.dtd">
<svg version="1.0" xmlns="http://www.w3.org/2000/svg"
 width="3889.000000pt" height="3889.000000pt" viewBox="0 0 3889.000000 3889.000000"
 preserveAspectRatio="xMidYMid meet">
<metadata>
Created by potrace 1.11, written by Peter Selinger 2001-2013
</metadata>
<g transform="translate(0.000000,3889.000000) scale(0.100000,-0.100000)"
fill="#000000" stroke="none">
<path d="M0 38880 c0 -7 810 -2911 1799 -6454 990 -3543 1885 -6749 1990
-7126 201 -724 1368 -4911 1426 -5115 19 -66 255 -912 525 -1880 270 -968 536
-1911 591 -2095 55 -184 104 -351 109 -370 9 -32 97 -349 120 -430 5 -19 20
-73 34 -120 13 -47 50 -177 81 -290 90 -325 229 -824 306 -1095 17 -60 46
-164 64 -230 42 -149 102 -364 120 -430 8 -27 23 -81 34 -120 10 -38 54 -194
96 -345 43 -151 90 -322 106 -380 16 -58 33 -114 38 -125 5 -11 32 -114 60
-230 29 -115 53 -217 55 -225 39 -153 163 -570 242 -815 94 -288 279 -804 304
-847 5 -10 10 -22 10 -27 0 -16 169 -420 287 -686 148 -334 403 -851 553
-1120 18 -33 46 -85 63 -115 16 -30 33 -59 37 -65 4 -5 21 -35 37 -65 43 -80
143 -251 164 -282 11 -14 19 -28 19 -31 0 -3 29 -51 64 -108 63 -101 151 -243
171 -277 34 -56 261 -395 370 -552 203 -293 475 -655 679 -904 45 -54 92 -113
106 -130 26 -32 223 -266 275 -325 203 -233 526 -580 731 -785 179 -179 505
-488 624 -592 25 -21 50 -44 55 -50 11 -13 226 -199 315 -274 29 -25 58 -50
64 -55 6 -6 58 -49 116 -95 57 -47 114 -93 125 -102 97 -81 490 -380 680 -519
172 -125 766 -526 795 -537 8 -3 17 -8 20 -12 5 -6 316 -197 365 -224 11 -6
27 -16 35 -22 8 -6 40 -25 70 -41 30 -16 73 -41 95 -55 22 -13 65 -38 95 -55
30 -16 75 -41 100 -55 73 -40 220 -121 285 -155 93 -49 650 -326 740 -368 193
-89 519 -231 668 -290 89 -36 171 -70 182 -75 23 -11 264 -103 340 -130 28 -9
122 -43 210 -75 327 -116 699 -234 1050 -331 352 -97 930 -233 1185 -279 14
-3 36 -7 50 -10 35 -7 79 -14 120 -21 19 -3 41 -7 48 -9 7 -3 56 -12 110 -21
102 -17 111 -18 182 -28 25 -4 68 -11 95 -16 28 -5 68 -12 90 -15 22 -3 54 -7
70 -10 42 -6 74 -11 295 -39 171 -21 242 -29 365 -41 17 -2 53 -6 80 -9 67 -7
143 -14 240 -21 44 -3 96 -8 115 -10 31 -4 99 -8 310 -20 467 -27 1410 -27
1815 0 39 3 108 7 155 10 159 10 269 19 380 30 25 2 74 7 110 11 36 3 81 7
100 9 19 2 62 7 95 10 32 3 75 8 95 10 54 7 121 16 160 21 19 3 53 7 75 10 51
6 185 23 225 29 16 3 44 7 60 10 17 2 50 7 73 10 23 3 78 12 122 20 44 8 100
17 125 20 25 4 63 10 85 15 22 5 60 11 85 15 25 3 52 8 60 10 8 2 29 7 45 10
34 5 48 8 155 30 41 8 84 17 95 19 116 24 204 43 335 72 85 20 162 37 170 39
65 14 468 119 500 130 22 8 44 15 48 15 44 5 490 140 777 235 909 301 1853
716 2670 1173 94 52 190 106 215 120 25 14 90 52 145 85 55 33 116 68 135 79
199 114 837 534 1075 708 316 231 720 543 866 668 13 11 58 49 99 83 98 82
282 240 295 253 6 6 48 45 95 86 105 92 85 74 226 205 127 117 650 637 749
746 33 35 103 112 156 169 82 89 168 186 298 335 14 17 51 59 81 95 30 36 57
67 60 70 3 3 64 77 136 165 173 211 344 433 540 698 17 23 88 123 157 222 70
99 130 185 134 190 5 6 53 78 107 160 277 418 570 907 761 1270 32 61 61 115
66 120 9 13 255 506 307 615 74 159 149 325 211 470 34 80 75 174 91 210 15
36 54 130 85 210 31 80 61 154 66 165 75 174 303 840 403 1180 15 50 33 110
41 135 7 25 32 115 55 200 23 85 45 166 50 180 9 26 116 465 124 510 2 14 11
54 20 90 8 36 17 76 19 90 3 14 16 79 30 145 14 66 28 135 32 152 3 18 14 77
24 130 11 54 22 116 25 138 4 22 8 47 11 55 2 8 6 37 10 64 3 27 8 52 10 55 1
3 6 31 10 61 3 30 8 62 10 70 2 8 7 35 10 60 6 45 10 69 19 125 3 17 8 50 11
75 3 25 8 61 10 80 3 19 7 55 10 80 3 25 10 77 15 115 6 39 12 88 15 110 2 22
6 68 10 103 4 35 8 72 10 82 2 10 6 56 10 102 3 46 8 99 10 118 2 19 6 69 10
110 3 41 7 95 9 120 8 84 18 245 21 315 2 39 7 140 11 225 10 197 11 1155 1
1360 -13 273 -16 324 -22 390 -3 36 -7 97 -10 135 -6 83 -14 184 -20 240 -3
22 -7 69 -10 105 -3 36 -8 81 -10 100 -2 19 -7 64 -10 100 -3 36 -8 76 -10 90
-2 14 -6 50 -10 80 -3 30 -7 66 -9 80 -2 14 -7 52 -10 85 -4 33 -9 67 -11 75
-2 8 -7 42 -10 75 -4 33 -8 67 -10 75 -4 14 -24 142 -50 315 -1 11 -7 47 -13
80 -6 33 -14 74 -17 90 -2 17 -14 80 -25 140 -12 61 -23 121 -26 135 -13 74
-68 336 -86 410 -26 111 -27 117 -38 170 -9 45 -95 387 -124 490 -8 30 -24 91
-36 135 -12 44 -34 123 -50 175 -16 52 -42 142 -60 200 -83 279 -285 869 -339
995 -5 11 -50 126 -101 255 -51 129 -102 255 -112 280 -11 25 -26 59 -33 75
-7 17 -22 51 -34 77 -12 26 -21 49 -21 52 0 2 -20 47 -45 100 -25 53 -45 98
-45 100 0 28 -396 818 -537 1071 -12 22 -34 61 -47 87 -58 106 -139 245 -329
562 -17 29 -115 185 -142 226 -89 139 -211 327 -218 335 -4 6 -18 26 -30 45
-170 258 -615 859 -819 1105 -9 11 -62 76 -119 145 -56 69 -105 127 -108 130
-4 3 -31 34 -61 70 -325 385 -831 913 -1231 1285 -41 39 -100 93 -130 120
-228 212 -771 670 -979 825 -18 14 -38 30 -44 35 -6 6 -81 62 -166 126 -672
501 -1375 948 -2092 1329 -169 90 -662 334 -793 393 -55 25 -130 59 -167 76
-37 17 -96 42 -130 57 -35 14 -88 37 -118 51 -30 14 -75 33 -100 43 -25 10
-135 54 -245 99 -109 45 -202 81 -206 81 -4 0 -24 8 -45 17 -22 9 -43 18 -49
19 -5 2 -77 28 -160 59 -82 31 -157 58 -165 60 -8 2 -103 34 -210 71 -107 36
-202 68 -210 69 -8 2 -28 9 -45 15 -85 30 -507 156 -660 195 -43 11 -32 8
-245 69 -107 31 -204 58 -215 60 -11 3 -195 54 -410 114 -384 108 -445 125
-455 126 -3 1 -23 7 -45 13 -22 7 -98 29 -170 49 -71 19 -159 44 -195 54 -36
10 -123 35 -195 54 -71 20 -159 45 -195 55 -36 11 -166 47 -290 81 -124 34
-254 70 -290 81 -36 10 -139 40 -230 65 -91 25 -244 67 -340 94 -491 137 -567
158 -595 165 -44 12 -45 12 -47 15 -2 1 -10 3 -18 5 -17 3 -582 162 -890 251
-316 90 -22232 6205 -22262 6211 -19 4 -28 1 -28 -7z"/>
</g>
</svg>
