<?xml version="1.0" encoding="utf-8"?>
<!-- Generator: Adobe Illustrator 23.0.1, SVG Export Plug-In . SVG Version: 6.00 Build 0)  -->
<svg version="1.1" id="Layer_1" xmlns="http://www.w3.org/2000/svg" xmlns:xlink="http://www.w3.org/1999/xlink" x="0px" y="0px"
	 viewBox="0 0 265.18 44.42" style="enable-background:new 0 0 265.18 44.42;" xml:space="preserve">
<style type="text/css">
	.st0{fill-rule:evenodd;clip-rule:evenodd;fill:#FFFFFF;}
</style>
<g>
	<path class="st0" d="M120.04,25.43l-23.09-0.05v-4.36c0-1.07,0.79-1.94,1.86-1.94l19.28-0.02c1.07,0,1.95,0.9,1.95,1.96
		L120.04,25.43L120.04,25.43z M129.92,20.35c0-3.41-0.96-4.93-2.23-6.14c-1.08-1.02-2.8-1.32-5.55-1.41c-0.97-0.03-24.02,0-25.09,0
		c-5.55,0-6.45,0.85-7.51,1.65c-1.27,0.96-2.4,2.92-2.4,5.9v16.76c0.03,3.32,1.14,5.49,3.32,6.46c0.93,0.41,2.93,0.83,9.58,0.83
		l28.35-0.01V38.1H98.81c-1.07,0-1.83-0.8-1.83-1.87l-0.01-4.42h32.93L129.92,20.35L129.92,20.35z"/>
	<polygon class="st0" points="0,44.41 9.93,44.41 9.93,12.8 0,12.8 	"/>
	<polygon class="st0" points="134.08,44.4 143.95,44.4 143.95,0.1 134.08,0.1 	"/>
	<polygon class="st0" points="148.15,44.38 158.02,44.38 158.02,0.1 148.15,0.1 	"/>
	<path class="st0" d="M71.3,18.89H83v-6.11L71.3,12.8V0h-9.9v37.11c0,3.35,1.16,5.55,3.29,6.6c1.58,0.78,2.85,0.68,9.5,0.68
		l8.61,0.01l0.01-6.34c0,0-8.8,0.2-10.12-0.19c-1.1-0.32-1.4-1.19-1.4-2.25V18.89H71.3z"/>
	<polygon class="st0" points="0.05,6.42 9.93,6.42 9.93,0.08 0.05,0.08 	"/>
	<path class="st0" d="M56.12,15.27c-1.61-1.83-2.46-2.56-11.67-2.5H14.1V44.4l9.85-0.01V19.15h21.62c1.07,0,1.89,0.79,1.89,1.86
		v23.38h9.94V24.94C57.39,21.54,57.65,17.01,56.12,15.27L56.12,15.27z"/>
	<path class="st0" d="M206.27,38.09l-18.28,0.02c-0.91,0-1.79-0.69-1.79-1.6v-2.99c0-0.91,0.87-1.73,1.78-1.73l20.23-0.01v4.45
		C208.21,37.28,207.34,38.09,206.27,38.09L206.27,38.09z M213.88,13.43c-0.94-0.39-1.9-0.66-8.55-0.66H177.8v6.32
		c0.04,0,28.39,0,28.39,0c1.07,0,2.01,0.99,2.01,2.06l0.01,4.25h-27.22c-3.09-0.04-4.68,1.81-4.68,6.21c0,0-0.08,3.62,0,6.42
		c0.04,1.51,0.01,3.09,0.58,4.17c0.72,1.39,1.89,2,4.21,2.18c0.04,0,37.05,0.03,37.05,0.03V20.44
		C218.14,17.04,216.2,14.38,213.88,13.43L213.88,13.43z"/>
	<path class="st0" d="M265.18,33.98c0-0.36,0.01-0.74,0.01-1.11v-0.11c0-2.01-0.16-4.16-1.97-5.97c-1.52-1.52-4.01-1.33-4-1.38
		h-25.25c-0.81,0-1.48-0.66-1.63-1.42c-0.03-0.11-0.04-0.66-0.04-0.78v-2.46c0-0.23,0.05-0.45,0.13-0.65
		c0.25-0.6,0.84-1.02,1.53-1.02l29.71-0.01l0.01-6.29l-28.33,0.02c-6.69,0-8.32,0.15-9.61,0.85c-2.08,1.12-3.36,3.25-3.36,6.64v2.73
		c0,2.13,0.04,4.53,2,6.64c1.8,1.92,3.74,1.99,6.25,2.15l23.04-0.01c0.91,0,1.72,0.8,1.72,1.71l-0.01,2.93
		c0,0.87-0.85,1.58-1.7,1.65c-0.11,0.02-29.77-0.01-29.77-0.01v6.31l28.82,0.03c0.99,0.01,1.86,0.01,2.63,0.01
		c4.73,0,5.78-0.17,6.55-0.57c2.58-1.34,3.09-3.04,3.27-6.19C265.18,37.65,265.18,34.29,265.18,33.98L265.18,33.98z"/>
	<polygon class="st0" points="162.27,6.42 172.11,6.42 172.11,0.08 162.27,0.08 	"/>
	<polygon class="st0" points="162.27,44.36 172.11,44.36 172.11,12.8 162.27,12.8 	"/>
</g>
</svg>
