<?xml version="1.0" encoding="utf-8"?>
<!-- Generator: Adobe Illustrator 22.0.1, SVG Export Plug-In . SVG Version: 6.00 Build 0)  -->
<svg version="1.1" id="Слой_1" xmlns="http://www.w3.org/2000/svg" xmlns:xlink="http://www.w3.org/1999/xlink" x="0px" y="0px"
	 viewBox="0 0 196 101" style="enable-background:new 0 0 196 101;" xml:space="preserve">
<style type="text/css">
	.st0{fill:#FFFFFF;}
</style>
<g>
	<g>
		<path class="st0" d="M8,7v49h46.3V7H8z M28.3,25.5c1.9,1.4,4.3,2,6.4,2.7c3.2,1.1,6.5,2.5,8.8,5.1c1.8,2,2.7,4.6,2.5,7.3
			c0.1,2.8-1.3,5.6-3.6,7.3c-3,2.3-6.9,2.9-10.6,2.9c-3.9,0-8-1.1-11.1-3.4c-2.9-2.1-4.5-5.7-4.4-9.3h9.1c0.1,1.6,0.4,3.3,1.5,4.4
			c1.4,1.3,3.4,1.5,5.2,1.5c1.6,0,3.5-0.5,4.4-2c1-1.4,0.5-3.6-1.1-4.7c-2.3-1.6-5-2.1-7.5-3.2c-3.1-1.2-6.2-2.7-8.3-5.3
			c-2-2.4-2.5-5.8-1.6-8.7c0.7-2.4,2.5-4.3,4.7-5.5c3-1.8,6.6-2.3,10.1-2.3c3.7,0.1,7.5,1.2,10.2,3.8c2.1,2,3.3,4.9,3.2,7.8h-9
			c0-1.2-0.3-2.4-1.2-3.3c-1.4-1.5-3.7-1.7-5.6-1.4c-1.8,0.2-3.6,1.5-3.7,3.4C26.6,23.8,27.4,24.8,28.3,25.5z"/>
		<path class="st0" d="M75.1,7v49h46.3V7H75.1z M92.5,23.4c0.3,1.5,1.7,2.5,2.9,3.1c3,1.5,6.2,2.1,9.1,3.6c2.9,1.4,5.7,3.6,6.8,6.7
			c1.1,3.2,0.8,7.1-1.4,9.8c-1.9,2.4-4.9,3.7-7.9,4.2c-4.2,0.7-8.5,0.4-12.4-1.4c-2.3-1-4.3-2.5-5.6-4.7c-1.2-1.9-1.7-4.1-1.7-6.3
			h9.1c0.1,1.5,0.3,3.1,1.4,4.2c1.3,1.4,3.4,1.6,5.2,1.7c1.7,0,3.6-0.4,4.5-2c0.8-1.6,0.4-3.8-1.1-4.9c-2-1.4-4.4-2-6.6-2.9
			c-3.5-1.3-7.1-2.8-9.4-5.9c-2.6-3.3-2.6-8.3,0.2-11.5c2.6-3.1,6.7-4.4,10.6-4.7c4.3-0.3,8.9,0.5,12.2,3.3c2.4,2,3.7,5.1,3.7,8.2
			H103c-0.1-1.1-0.3-2.3-1.1-3.2c-1.5-1.7-4.1-1.9-6.2-1.4C93.9,19.9,92.2,21.5,92.5,23.4z"/>
		<path class="st0" d="M168.5,33.3c0.3,1,0.7,2.1,1,3.2h-8c1.4-4.3,2.8-8.6,4-12.9c0.5,1.5,1,2.9,1.4,4.4c0.2,0.7,0.5,1.5,0.7,2.2
			C167.9,31.3,168.2,32.3,168.5,33.3z"/>
		<path class="st0" d="M142.1,7v49h46.3V7H142.1z M174,50.5c-0.7-1.9-1.2-3.8-1.8-5.7c-0.1-0.4-0.3-0.9-0.4-1.3h-12.4
			c-0.4,1.2-0.8,2.4-1.1,3.5c-0.3,1.2-0.7,2.3-1.1,3.5h-9.7c2.3-6.3,4.6-12.5,6.9-18.8c2.3-6.3,4.6-12.5,6.9-18.8h8.5
			c2.3,6.3,4.6,12.5,7,18.8c2.3,6.3,4.7,12.5,7,18.8C180.4,50.5,177.2,50.5,174,50.5z"/>
		<path class="st0" d="M106.5,82.6c-1.3-2.1-3.7-3.7-6.3-4c-1.1-0.1-2.3-0.3-3.4-0.1c-2.2,0.2-4.3,1-5.8,2.6
			c-2.2,2.2-3.2,5.4-3.1,8.5c-0.1,3,0.8,6,2.8,8.3c1.3,1.5,3.2,2.5,5.2,2.8c3,0.5,6.3,0.2,8.7-1.8c2.2-1.8,3.4-4.5,3.7-7.2
			C108.7,88.6,108.2,85.3,106.5,82.6z M104.2,96.7c-2.3,2.8-6.7,3.3-9.9,1.7c-2.4-1.3-3.9-3.9-4.3-6.6c-0.3-2.8-0.1-5.9,1.6-8.3
			c1.3-2.1,3.8-3.5,6.3-3.4c2.1-0.1,4.3,0.6,5.8,2.1c1.7,1.6,2.5,3.8,2.8,6C106.7,91.2,106.2,94.4,104.2,96.7z"/>
		<path class="st0" d="M44.9,81.1c1.8-1.8,4.4-2.7,6.9-2.6c2.2-0.1,4.6,0.4,6.4,1.7c0.5,0.2,0.3,0.8,0.4,1.3
			c-0.2,0.1-0.5,0.3-0.7,0.4c-1.4-0.6-2.8-1.5-4.4-1.6c-1.8-0.1-3.6-0.2-5.2,0.7c-2.6,1.2-4,4-4.5,6.7c-0.3,3.1-0.2,6.7,2,9.1
			c1.6,1.9,4.2,2.7,6.6,2.6c2,0.1,3.9-0.6,5.6-1.5c0.1-2.1,0-4.2,0-6.4c-1.6,0-3.2,0-4.8,0c-0.4,0-0.8,0-1.1-0.2
			c-0.3-0.6-0.1-1.3,0.5-1.5c1.9,0,3.9,0,5.8,0c0.4,0,0.8,0.1,1.2,0.3c0.1,2,0,4,0.1,6.1c0,0.7,0.1,1.5-0.1,2.2
			c-0.5,0.6-1.1,0.9-1.8,1.3c-3,1.5-6.7,1.7-9.9,0.7c-2.5-0.8-4.5-2.9-5.3-5.3c-0.9-2.3-0.9-4.9-0.7-7.4
			C42.1,85.3,43.1,82.9,44.9,81.1z"/>
		<path class="st0" d="M81,98.9c-1.7-2.6-3.4-5.3-5.1-7.9c2-0.7,3.8-2.3,4.3-4.4c0.4-2.2,0.2-4.8-1.6-6.3c-2.3-1.9-5.5-1.8-8.3-1.7
			c-1,0.2-2.1,0.1-3.1,0.6c-0.1,2.8,0,5.7,0.1,8.5V100c-0.1,1,1.7,1,1.7,0v-8.6c1.6,0.1,3.3,0.1,5,0c1.8,2.9,3.6,5.8,5.5,8.7
			c0.3,0.6,1.2,0.8,1.7,0.2C81.4,99.8,81.3,99.3,81,98.9z M73.1,89.9c-1.4,0.2-2.8-0.1-4.2-0.2v-9.2c2.5-0.3,5.2-0.6,7.6,0.6
			c1.3,0.5,2,1.8,2,3.1c0,1.4-0.1,2.9-1.1,4C76.3,89.4,74.6,89.8,73.1,89.9z"/>
		<path class="st0" d="M116.3,78.8c0.6-0.3,1.4,0,1.4,0.7c0,4.3,0,8.5,0,12.8c0.1,1.9,0.4,3.9,1.8,5.4c1.2,1.3,3.1,1.7,4.8,1.6
			c1.9,0,3.9-1,4.8-2.7c1-2,1-4.2,1-6.4c0-3.5,0-7.1,0-10.6c-0.1-1.1,1.9-1,1.8,0c0,4.3,0,8.5,0,12.8c0,2.2-0.5,4.5-1.9,6.2
			c-1.4,1.8-3.8,2.4-6,2.4c-2.1,0.1-4.4-0.4-5.9-1.9c-1.7-1.8-2.3-4.3-2.4-6.7c0-4.2,0-8.4,0-12.5C115.8,79.4,116,79,116.3,78.8z"/>
		<path class="st0" d="M153.2,81.2c-1.4-2.1-4.1-2.6-6.4-2.7c-2,0.1-4.1,0-6.1,0.6c-0.2,0.4-0.3,0.8-0.3,1.1v19.7
			c0.3,0.9,1.8,0.9,1.9-0.1v-8c2.5,0.4,5.1,0.5,7.5-0.4c1.7-0.6,3.4-1.9,4-3.8C154.5,85.5,154.4,83.1,153.2,81.2z M151.8,87.5
			c-0.8,1.9-2.9,2.7-4.8,2.9c-1.5,0.3-3.1-0.2-4.7-0.2v-9.7c2.3-0.3,4.7-0.5,6.9,0.2c1.4,0.5,2.7,1.7,2.9,3.2
			C152.4,85.1,152.2,86.4,151.8,87.5z"/>
		<path class="st0" d="M0,0v63.5h62.3V0H0z M28.3,25.5c1.9,1.4,4.3,2,6.4,2.7c3.2,1.1,6.5,2.5,8.8,5.1c1.8,2,2.7,4.6,2.5,7.3
			c0.1,2.8-1.3,5.6-3.6,7.3c-3,2.3-6.9,2.9-10.6,2.9c-3.9,0-8-1.1-11.1-3.4c-2.9-2.1-4.5-5.7-4.4-9.3h9.1c0.1,1.6,0.4,3.3,1.5,4.4
			c1.4,1.3,3.4,1.5,5.2,1.5c1.6,0,3.5-0.5,4.4-2c1-1.4,0.5-3.6-1.1-4.7c-2.3-1.6-5-2.1-7.5-3.2c-3.1-1.2-6.2-2.7-8.3-5.3
			c-2-2.4-2.5-5.8-1.6-8.7c0.7-2.4,2.5-4.3,4.7-5.5c3-1.8,6.6-2.3,10.1-2.3c3.7,0.1,7.5,1.2,10.2,3.8c2.1,2,3.3,4.9,3.2,7.8h-9
			c0-1.2-0.3-2.4-1.2-3.3c-1.4-1.5-3.7-1.7-5.6-1.4c-1.8,0.2-3.6,1.5-3.7,3.4C26.6,23.8,27.4,24.8,28.3,25.5z"/>
		<path class="st0" d="M66.8,0v63.5h62.4V0H66.8z M92.5,23.4c0.3,1.5,1.7,2.5,2.9,3.1c3,1.5,6.2,2.1,9.1,3.6
			c2.9,1.4,5.7,3.6,6.8,6.7c1.1,3.2,0.8,7.1-1.4,9.8c-1.9,2.4-4.9,3.7-7.9,4.2c-4.2,0.7-8.5,0.4-12.4-1.4c-2.3-1-4.3-2.5-5.6-4.7
			c-1.2-1.9-1.7-4.1-1.7-6.3h9.1c0.1,1.5,0.3,3.1,1.4,4.2c1.3,1.4,3.4,1.6,5.2,1.7c1.7,0,3.6-0.4,4.5-2c0.8-1.6,0.4-3.8-1.1-4.9
			c-2-1.4-4.4-2-6.6-2.9c-3.5-1.3-7.1-2.8-9.4-5.9c-2.6-3.3-2.6-8.3,0.2-11.5c2.6-3.1,6.7-4.4,10.6-4.7c4.3-0.3,8.9,0.5,12.2,3.3
			c2.4,2,3.7,5.1,3.7,8.2H103c-0.1-1.1-0.3-2.3-1.1-3.2c-1.5-1.7-4.1-1.9-6.2-1.4C93.9,19.9,92.2,21.5,92.5,23.4z"/>
		<path class="st0" d="M168.5,33.3c-0.3-1-0.6-2.1-1-3.1c-0.2-0.7-0.5-1.5-0.7-2.2c-0.4-1.5-0.9-2.9-1.4-4.4
			c-1.2,4.3-2.6,8.6-4,12.9h8C169.2,35.5,168.9,34.4,168.5,33.3z M168.5,33.3c-0.3-1-0.6-2.1-1-3.1c-0.2-0.7-0.5-1.5-0.7-2.2
			c-0.4-1.5-0.9-2.9-1.4-4.4c-1.2,4.3-2.6,8.6-4,12.9h8C169.2,35.5,168.9,34.4,168.5,33.3z M168.5,33.3c-0.3-1-0.6-2.1-1-3.1
			c-0.2-0.7-0.5-1.5-0.7-2.2c-0.4-1.5-0.9-2.9-1.4-4.4c-1.2,4.3-2.6,8.6-4,12.9h8C169.2,35.5,168.9,34.4,168.5,33.3z M168.5,33.3
			c-0.3-1-0.6-2.1-1-3.1c-0.2-0.7-0.5-1.5-0.7-2.2c-0.4-1.5-0.9-2.9-1.4-4.4c-1.2,4.3-2.6,8.6-4,12.9h8
			C169.2,35.5,168.9,34.4,168.5,33.3z M133.7,0v63.5H196V0H133.7z M174,50.5c-0.7-1.9-1.2-3.8-1.8-5.7c-0.1-0.4-0.3-0.9-0.4-1.3
			h-12.4c-0.4,1.2-0.8,2.4-1.1,3.5c-0.3,1.2-0.7,2.3-1.1,3.5h-9.7c2.3-6.3,4.6-12.5,6.9-18.8c2.3-6.3,4.6-12.5,6.9-18.8h8.5
			c2.3,6.3,4.6,12.5,7,18.8c2.3,6.3,4.7,12.5,7,18.8C180.4,50.5,177.2,50.5,174,50.5z M167.6,30.2c-0.2-0.7-0.5-1.5-0.7-2.2
			c-0.4-1.5-0.9-2.9-1.4-4.4c-1.2,4.3-2.6,8.6-4,12.9h8c-0.3-1-0.6-2.1-1-3.2C168.2,32.3,167.9,31.3,167.6,30.2z M168.5,33.3
			c-0.3-1-0.6-2.1-1-3.1c-0.2-0.7-0.5-1.5-0.7-2.2c-0.4-1.5-0.9-2.9-1.4-4.4c-1.2,4.3-2.6,8.6-4,12.9h8
			C169.2,35.5,168.9,34.4,168.5,33.3z M168.5,33.3c-0.3-1-0.6-2.1-1-3.1c-0.2-0.7-0.5-1.5-0.7-2.2c-0.4-1.5-0.9-2.9-1.4-4.4
			c-1.2,4.3-2.6,8.6-4,12.9h8C169.2,35.5,168.9,34.4,168.5,33.3z"/>
	</g>
</g>
</svg>
