<svg class="icon" xmlns="http://www.w3.org/2000/svg" viewBox="0 0 90 30" style="fill: rgb(255, 255, 255);"><path d="M13.9,7.9c-1.1-2-2.6-2.5-4-2.5c-1.6,0-3.3,0.8-3.4,3c-0.1,2.1,2.4,3.1,4.1,3.6c4.4,1.1,9,3.3,8.7,9.8c-0.2,5.7-5.2,8.3-9.7,8.3c-3.2,0-7.3-1.4-9.6-6.9l4.4-2.6c1.4,3,3.7,4.2,5.4,4.2c2.2,0,3.8-1.4,3.8-3.3c0.2-2.7-2.4-3.9-4.4-4.4c-2.9-0.7-8.4-2.7-8.3-8.6C1,2.5,5.6,0,10,0c3.4,0,6.4,1.6,8.2,5.3L13.9,7.9z"></path><rect x="42.3" y="8.6" width="5.5" height="20.8"></rect><path d="M60.3,29.4c-4.9,0.9-9.2-1.1-9-6.7V8.6l5.3-5.4v5.4h3.7v4.5h-3.7v9.5c0,1.4,1.4,2.4,3.7,2.1V29.4z"></path><path d="M70.7,29.4c-4.6,0.8-8.3-0.9-8.3-6.7V0.7h5.5v22.1c0,1.1,0.5,2.3,2.8,2.1V29.4z"></path><path d="M85,29.4l0-1.8c-1.3,1.6-3.2,2.3-4.8,2.3c-5.3,0-8.1-3.2-8.1-7.2c0-4.7,4.4-7,8.7-7c1.3,0,2.7,0.3,3.8,0.8c-0.1-2.9-1.9-3.9-4-4c-2,0-4.3,0.7-5.5,1.7l-2.1-3.6c2.6-2,5.3-2.5,8.1-2.5c4.6,0,8.9,2.5,8.9,8.5v12.7H85z M84.7,23.8v-3.3c-1-0.4-2.3-0.7-3.5-0.7c-2.1,0-4,0.8-4,2.7C77,26.3,82.6,26,84.7,23.8"></path><polygon points="34.2,8.6 39.9,8.6 32.9,29.4 26,29.4 19.1,8.6 24.8,8.6 29.5,23.8 "></polygon><path class="logo-rect"  style="fill: rgb(255, 120, 0);" d="M45,0c-3.1,0-5.9,1.3-7.9,3.3l3.8,3.8c1.1-1.1,2.5-1.8,4.2-1.8c1.6,0,3.1,0.7,4.2,1.8L53,3.3C50.9,1.3,48.1,0,45,0"></path></svg>