<!-- Generated by IcoMoon.io -->
<svg version="1.1" xmlns="http://www.w3.org/2000/svg" width="4463" height="1024" viewBox="0 0 4463 1024">
<title></title>
<g id="icomoon-ignore">
</g>
<path fill="#fff" d="M310.37 836.704l-58.077 12.906c-4.693-12.906-16.426-19.359-36.372-19.359-14.080 0-21.119 4.106-21.119 11.733 0 7.039 6.453 11.733 19.946 14.080 27.572 4.693 46.931 9.973 58.077 15.252 11.146 5.867 19.946 12.906 25.225 21.706 5.867 8.799 8.799 18.772 8.799 29.332 0 19.946-8.213 36.372-25.225 50.452-16.426 13.493-42.239 20.532-76.263 20.532-25.225 0-46.931-4.693-65.704-14.666s-30.505-24.639-35.198-44.585l62.184-8.799c4.693 14.080 18.772 21.119 41.651 21.119 8.799 0 15.252-1.174 19.946-4.106 4.106-2.346 6.453-5.28 6.453-8.799 0-2.933-1.174-5.28-4.106-7.039s-9.973-3.52-21.706-6.453c-22.879-5.28-39.891-9.973-49.278-14.080-9.973-4.106-18.186-10.559-25.225-19.946s-10.559-19.359-10.559-31.092c0-20.532 8.213-36.958 24.053-49.864s38.132-19.359 65.117-19.359c25.225 0 46.345 4.693 63.944 14.666s28.745 21.706 33.438 36.372z"></path>
<path fill="#fff" d="M732.164 790.947l-94.449 200.63c-14.080 29.332-28.159 48.104-42.825 56.317s-31.678 11.733-52.21 11.733c-9.973 0-20.532-1.174-31.092-3.52v-53.384c16.426 1.76 29.332 2.346 36.958 2.346 20.532 0 30.505-5.28 30.505-16.426 0-2.933-0.586-7.039-2.346-12.906l-48.104-185.378h78.609l17.012 79.783c2.933 13.493 4.693 21.706 4.693 25.225 1.174-2.346 2.933-5.867 4.693-9.973 1.174-3.52 2.933-7.627 4.693-11.146l39.305-83.89h54.557z"></path>
<path fill="#fff" d="M1116.412 836.704l-58.077 12.906c-4.693-12.906-16.426-19.359-36.372-19.359-14.080 0-21.119 4.106-21.119 11.733 0 7.039 6.453 11.733 19.946 14.080 27.572 4.693 46.931 9.973 58.077 15.252 11.146 5.867 19.946 12.906 25.225 21.706 5.867 8.799 8.799 18.772 8.799 29.332 0 19.946-8.213 36.372-25.225 50.452-16.426 13.493-42.239 20.532-76.263 20.532-25.225 0-46.931-4.693-65.704-14.666s-30.505-24.639-35.198-44.585l62.184-8.799c4.693 14.080 18.772 21.119 41.651 21.119 8.799 0 15.252-1.174 19.946-4.106 4.106-2.346 6.453-5.28 6.453-8.799 0-2.933-1.174-5.28-4.106-7.039s-9.973-3.52-21.706-6.453c-22.879-5.28-39.891-9.973-49.278-14.080-9.973-4.106-18.186-10.559-25.225-19.946s-10.559-19.359-10.559-31.092c0-20.532 8.213-36.958 24.053-49.864s38.132-19.359 65.117-19.359c25.225 0 46.345 4.693 63.944 14.666s28.745 21.706 33.438 36.372z"></path>
<path fill="#fff" d="M1478.955 790.947l-8.799 50.452h-35.785l-11.733 70.396c-1.174 7.039-1.76 11.146-1.76 12.906 0 9.387 5.867 14.666 18.186 14.666 5.28 0 11.733-0.586 18.772-2.346l-8.799 51.624c-14.080 2.933-27.572 4.693-40.478 4.693-15.84 0-28.159-1.76-35.785-5.867s-14.080-9.973-18.772-17.012c-4.693-7.627-7.627-17.012-7.627-29.332 0-5.28 1.174-14.666 3.52-28.745l11.733-70.396h-26.985l8.213-50.452h27.572l11.146-58.663 72.157-1.174-9.973 59.837h35.198z"></path>
<path fill="#fff" d="M1894.295 904.755h-136.686c-0.586 5.28-1.174 9.387-1.174 11.733 0 8.799 2.933 15.252 8.213 20.532 5.28 4.693 12.319 7.039 21.119 7.039 15.84 0 27.572-8.213 34.026-25.225l66.876 10.559c-8.799 19.359-22.292 35.198-41.651 46.931s-40.478 18.186-63.944 18.186c-29.332 0-53.384-8.213-71.57-25.225s-27.572-39.891-27.572-68.636c0-31.678 10.559-58.663 32.266-80.956s49.864-34.026 85.062-34.026c29.919 0 53.384 8.799 70.983 26.399s26.399 40.478 26.399 69.81c0 6.453-0.586 14.080-2.346 22.879zM1822.725 866.624c0.586-4.106 1.174-7.039 1.174-9.387 0-7.039-2.346-12.906-6.453-18.186s-10.559-7.627-18.186-7.627c-8.213 0-15.84 2.933-22.879 9.387s-11.146 15.252-12.319 26.399h58.663z"></path>
<path fill="#fff" d="M2144.79 790.947h67.464l-5.28 30.505c14.666-24.053 35.198-36.372 61.011-36.372 24.639 0 41.651 12.319 50.452 36.372 12.906-23.465 32.266-35.198 59.251-35.198 17.6 0 31.678 4.693 42.239 14.666s15.84 22.879 15.84 39.891c0 5.28-0.586 11.733-1.76 19.359l-21.706 129.061h-75.089l19.946-117.328c1.174-5.867 1.174-10.559 1.174-14.080 0-11.733-5.28-17.012-15.84-17.012-6.453 0-11.733 2.346-15.84 7.039s-7.627 14.080-9.973 27.572l-18.772 113.221h-73.33l19.946-117.328c1.174-7.039 1.76-12.319 1.76-15.252 0-5.867-1.76-10.559-5.28-12.906s-7.039-4.106-10.559-4.106c-3.52 0-8.213 1.76-13.493 4.693s-9.387 12.319-11.733 27.572l-19.946 117.328h-72.743l32.266-197.697z"></path>
<path fill="#fff" d="M2856.969 989.231h-77.437c-0.586-3.52-0.586-7.039-0.586-9.387 0-6.453 0.586-14.666 1.174-23.465-15.84 24.639-36.958 37.545-65.117 37.545-18.772 0-34.026-5.28-45.758-16.426-11.733-10.559-17.6-24.639-17.6-41.065 0-12.319 2.933-23.465 9.387-33.438s15.252-18.186 26.399-24.053c11.733-5.867 23.465-9.973 35.198-11.733s35.785-4.693 70.396-7.627c1.76-4.693 2.346-8.799 2.346-11.146 0-11.146-7.627-16.426-22.879-16.426-14.666 0-25.813 7.627-32.852 22.292l-64.53-12.906c16.426-36.958 52.21-55.144 107.941-55.144 28.159 0 50.452 4.693 66.29 14.666s24.053 24.053 24.053 42.825c0 8.213-4.693 38.718-14.080 90.343-3.52 19.359-5.28 31.678-5.28 38.132 1.174 4.693 1.76 9.973 2.933 17.012zM2787.16 894.782c-35.785 2.933-53.971 14.080-53.971 34.612 0 11.146 5.867 16.426 17.6 16.426 7.627 0 14.666-3.52 22.292-9.973s12.319-19.946 14.080-41.065z"></path>
<path fill="#fff" d="M3241.218 790.947l-8.799 50.452h-35.785l-11.733 70.396c-1.174 7.039-1.76 11.146-1.76 12.906 0 9.387 5.867 14.666 18.186 14.666 5.28 0 11.733-0.586 18.772-2.346l-8.213 52.21c-14.080 2.933-27.572 4.693-40.478 4.693-15.84 0-28.159-1.76-35.785-5.867s-14.080-9.973-18.772-17.012c-4.693-7.627-7.627-17.012-7.627-29.332 0-5.28 1.174-14.666 3.52-28.745l11.733-70.396h-26.985l8.213-50.452h27.572l11.146-58.663 72.157-1.174-9.973 59.837h34.612z"></path>
<path fill="#fff" d="M3548.617 790.947l-33.438 198.284h-76.849l33.438-198.284h76.849zM3561.524 715.27l-9.973 58.077h-76.849l9.973-58.077h76.849z"></path>
<path fill="#fff" d="M3892.387 912.381l59.837 14.666c-10.559 25.813-24.639 43.411-42.239 53.384s-35.198 14.666-53.971 14.666c-27.572 0-49.864-8.799-66.876-25.813-17.6-17.6-25.813-39.891-25.813-66.876 0-31.092 9.973-58.663 30.505-82.13 20.532-24.053 47.518-35.785 81.543-35.785 24.639 0 45.171 7.627 62.184 22.292s25.225 33.438 25.225 56.904l-67.464 7.627c0-21.706-7.039-32.266-21.706-32.266-12.319 0-21.119 8.799-26.399 26.399s-7.627 32.852-7.627 45.758c0 19.359 7.039 29.332 21.706 29.332 14.666-0.586 24.639-9.973 31.092-28.159z"></path>
<path fill="#fff" d="M4365.805 836.704l-58.077 12.906c-4.693-12.906-16.426-19.359-36.372-19.359-14.080 0-21.119 4.106-21.119 11.733 0 7.039 6.453 11.733 19.946 14.080 27.572 4.693 46.931 9.973 58.077 15.252 11.146 5.867 19.946 12.906 25.225 21.706 5.867 8.799 8.799 18.772 8.799 29.332 0 19.946-8.213 36.372-25.225 50.452-16.426 13.493-42.239 20.532-76.263 20.532-25.225 0-46.931-4.693-65.704-14.666s-30.505-24.639-35.198-44.585l62.184-8.799c4.693 14.080 18.772 21.119 41.651 21.119 8.799 0 15.252-1.174 19.946-4.106 4.106-2.346 6.453-5.28 6.453-8.799 0-2.933-1.174-5.28-4.106-7.039s-9.973-3.52-21.706-6.453c-22.879-5.28-39.305-9.973-49.278-14.080s-18.186-10.559-25.225-19.946c-7.039-8.799-10.559-19.359-10.559-31.092 0-20.532 8.213-36.958 24.053-49.864s38.132-19.359 65.117-19.359c25.225 0 46.345 4.693 63.944 14.666s28.745 21.706 33.438 36.372z"></path>
<path fill="#fff" d="M360.821 376.78l143.727 18.186c-17.012 58.663-45.171 106.768-86.236 143.727-40.478 37.545-92.103 56.317-153.7 56.317-67.464 0-120.848-22.879-160.153-68.636s-59.251-104.422-59.251-175.991c0-82.716 24.639-155.459 73.33-219.403 48.104-63.357 115.568-95.035 201.217-95.035 62.184 0 112.635 19.359 151.353 57.491s58.077 88.582 59.251 151.353l-151.94 10.559c-0.586-32.852-5.867-57.491-15.252-73.917s-25.813-24.053-49.278-24.053c-39.891 0-66.876 29.332-81.543 87.996s-21.706 105.008-21.706 139.034c0 55.144 21.706 82.13 64.53 82.13 21.119 0 38.132-7.039 51.624-21.119s24.639-36.958 34.026-68.636z"></path>
<path fill="#fff" d="M945.113 187.882l-188.898 401.261c-27.572 58.663-56.317 96.209-85.062 112.048-29.332 15.84-63.944 24.053-103.835 24.053-19.946 0-41.065-2.346-62.77-6.453l0.586-106.182c33.438 3.52 58.077 5.28 74.503 5.28 40.478 0 61.011-11.146 61.011-32.852 0-5.28-1.76-14.080-4.693-25.813l-95.622-371.342h157.806l34.026 158.979c5.867 26.985 9.387 43.998 9.973 51.038 2.346-4.693 5.867-11.733 8.799-19.946 2.346-7.039 5.867-14.666 9.973-22.879l78.609-167.192h105.595z"></path>
<path fill="#fff" d="M1159.237 48.262l-31.678 188.898c20.532-24.639 39.305-41.065 55.144-48.691 16.426-7.627 34.612-11.733 54.557-11.733 38.132 0 68.636 13.493 91.515 40.478s34.612 66.876 34.612 119.674c0 65.117-18.186 123.781-54.557 176.579s-86.822 79.196-151.353 79.196c-61.011 0-103.835-25.225-127.887-75.089l-44.585 66.29h-68.636l89.756-535.601h153.112zM1092.359 444.83c0 14.666 1.174 24.639 2.933 29.919 2.346 5.28 6.453 10.559 13.493 15.84 7.039 4.693 15.84 7.627 26.399 7.627 13.493 0 24.639-4.106 34.026-12.906s18.772-28.159 27.572-58.077c8.799-29.919 12.906-62.184 12.906-96.209 0-39.305-14.080-59.251-41.651-59.251-26.399 0-45.758 19.946-57.491 60.423l-18.186 112.635z"></path>
<path fill="#fff" d="M1823.311 414.911h-272.787c-1.174 10.559-1.76 18.772-1.76 24.053 0 17.6 5.28 31.092 16.426 40.478 11.146 9.973 25.225 14.666 42.239 14.666 32.266 0 55.144-17.012 68.050-50.452l133.167 21.706c-17.012 38.718-45.171 70.396-83.89 94.449s-81.543 35.785-128.474 35.785c-59.251 0-106.768-17.012-143.727-50.452s-55.144-79.196-55.144-137.274c0-62.77 21.706-117.328 65.117-161.913 43.411-45.171 100.316-67.464 170.126-67.464 59.251 0 106.768 17.6 141.967 52.21 35.198 35.198 52.798 81.543 52.798 139.62 0 12.319-1.174 27.572-4.106 44.585zM1680.758 338.648c1.174-8.213 1.76-14.666 1.76-18.772 0-14.080-4.106-26.399-12.906-36.958s-21.119-15.84-36.372-15.84c-17.012 0-31.678 6.453-45.758 18.772-13.493 12.906-21.706 29.919-25.225 52.21h118.502z"></path>
<path fill="#fff" d="M1922.454 187.882h131.994l-15.84 95.035c27.572-71.57 69.81-107.355 126.127-107.355 4.693 0 10.559 0.586 18.186 1.76l-17.6 141.38c-13.493-0.586-22.879-1.174-26.985-1.174-32.852 0-56.904 7.627-72.157 22.879s-26.399 42.239-32.852 80.956l-26.985 161.913h-150.766l66.876-395.395z"></path>
<path fill="#fff" d="M2175.882 583.863l89.169-535.015h221.162c40.478 0 73.33 3.52 98.556 10.559 25.813 7.039 46.931 21.706 64.53 43.998s25.813 48.104 25.813 78.023c0 32.852-10.559 60.423-31.092 83.302s-48.104 38.132-83.302 46.345c58.663 20.532 87.996 59.251 87.996 116.741 0 41.651-14.080 78.023-42.239 109.115s-75.089 46.931-140.207 46.931h-290.386zM2350.701 465.362h79.783c24.639 0 42.239-5.28 51.624-15.84s14.080-21.706 14.080-34.026c0-15.252-5.28-27.572-15.252-36.372-10.559-9.387-25.813-14.080-46.345-14.080h-67.464l-16.426 100.316zM2385.899 252.412h61.011c48.691 0 73.33-16.426 73.33-48.691 0-28.745-19.359-42.825-58.077-42.825h-61.597l-14.666 91.515z"></path>
<path fill="#fff" d="M2909.181 187.882l-66.29 395.981h-153.7l66.29-395.981h153.7zM2934.406 35.942l-19.359 116.741h-153.7l19.359-116.741h153.7z"></path>
<path fill="#fff" d="M3132.103 595.596c-55.144 0-101.488-16.426-139.034-49.278s-56.317-77.437-56.317-134.34c0-68.050 21.706-124.367 65.117-168.366s98.556-65.704 164.845-65.704c60.423 0 108.529 17.012 144.313 51.624s53.384 76.849 53.384 127.301c0 75.089-22.879 133.754-68.636 175.405-45.758 42.239-100.316 63.357-163.672 63.357zM3138.556 498.801c27.572 0 46.345-20.532 55.731-61.011 9.973-41.065 14.666-75.089 14.666-102.076 0-41.651-15.252-62.77-45.758-62.77-26.985 0-45.758 21.119-55.731 62.77-10.559 41.651-15.252 75.677-15.252 102.076 0 40.478 15.252 61.011 46.345 61.011z"></path>
<path fill="#fff" d="M3458.862 187.882h137.86l-10.559 64.53c10.559-26.399 28.159-45.758 52.21-58.077s49.864-18.186 76.849-18.186c33.438 0 61.011 8.799 82.13 26.399s31.092 41.065 31.092 70.396c0 11.146-1.174 24.639-4.106 40.478l-45.171 270.44h-150.766l39.891-238.176c2.346-15.252 4.106-25.225 4.106-29.919 0-22.292-11.733-33.438-35.198-33.438-31.678 0-51.038 21.119-58.077 63.357l-39.891 238.176h-147.247l66.876-395.981z"></path>
<path fill="#fff" d="M4081.872 187.882l-66.29 395.981h-153.7l66.29-395.981h153.7zM4107.684 35.942l-19.359 116.741h-153.7l19.359-116.741h153.7z"></path>
<path fill="#fff" d="M4367.565 430.164l119.674 29.332c-21.706 51.038-49.278 86.822-84.476 106.182-34.612 19.946-70.983 29.332-107.941 29.332-54.557 0-99.142-17.6-133.754-52.21s-52.21-79.196-52.21-133.754c0-62.184 20.532-116.741 61.597-164.259s95.035-71.57 162.499-71.57c48.691 0 90.343 14.666 124.367 43.998s51.038 67.464 51.038 113.808l-134.34 15.84c0-42.825-14.666-64.53-43.411-64.53-24.639 0-42.239 17.6-52.798 52.798s-15.84 65.704-15.84 92.103c0 38.718 14.666 58.077 43.998 58.077 28.159 0.586 49.278-18.186 61.597-55.144z"></path>
</svg>
