<!-- Generated by IcoMoon.io -->
<svg version="1.1" xmlns="http://www.w3.org/2000/svg" width="1024" height="1024" viewBox="0 0 1024 1024">
<title></title>
<g id="icomoon-ignore">
</g>
<path fill="#fff" d="M145.941 847.408h-25.454v87.48h-22.25v-87.48h-17.164v-10.371l17.164-6.785v-6.787c0-12.318 2.883-21.444 8.67-27.382 5.787-5.94 14.614-8.911 26.491-8.911 7.797 0 15.468 1.286 23.008 3.869l-5.848 16.778c-5.464-1.762-10.682-2.64-15.644-2.64-5.038 0-8.692 1.558-10.988 4.668-2.301 3.105-3.439 7.777-3.439 13.995v6.791h25.454v16.776z"></path>
<path fill="#fff" d="M258.161 936.851l-13.482-48.645c-1.634-5.153-4.59-17.123-8.861-35.911h-0.852c-3.645 16.965-6.533 28.998-8.672 36.102l-13.86 48.454h-24.512l-29.228-104.256h22.632l13.289 51.374c3.018 12.691 5.157 23.565 6.415 32.613h0.565c0.634-4.588 1.584-9.846 2.876-15.785s2.403-10.386 3.348-13.341l15.842-54.861h24.321l15.368 54.861c0.943 3.074 2.123 7.79 3.539 14.141 1.41 6.344 2.242 11.277 2.494 14.797h0.76c0.941-7.73 3.141-18.542 6.595-32.426l13.487-51.374h22.248l-29.415 104.256h-24.89z"></path>
<path fill="#fff" d="M720.437 905.192c0 10.184-3.711 17.988-11.123 23.426-7.423 5.431-18.044 8.155-31.865 8.155-13.902 0-25.057-2.11-33.469-6.32v-19.137c12.257 5.659 23.666 8.486 34.216 8.486 13.637 0 20.467-4.117 20.467-12.348 0-2.639-0.756-4.844-2.27-6.598-1.503-1.76-3.987-3.584-7.443-5.468s-8.27-4.025-14.425-6.409c-12.012-4.656-20.128-9.305-24.371-13.951-4.252-4.656-6.368-10.688-6.368-18.099 0-8.927 3.598-15.857 10.795-20.786 7.197-4.94 16.991-7.401 29.371-7.401 12.257 0 23.851 2.479 34.789 7.447l-7.167 16.684c-11.255-4.653-20.712-6.976-28.379-6.976-11.685 0-17.532 3.332-17.532 9.997 0 3.263 1.514 6.029 4.569 8.294 3.046 2.262 9.691 5.372 19.945 9.331 8.609 3.328 14.855 6.372 18.759 9.144 3.895 2.759 6.787 5.946 8.67 9.568 1.892 3.611 2.831 7.927 2.831 12.957z"></path>
<path fill="#fff" d="M370.259 920.665c9.118 0 15.744-2.566 19.899-7.686 4.145-5.121 6.276-13.43 6.406-24.929v-3.107c0-13.141-2.135-22.47-6.406-27.998-4.286-5.531-10.979-8.299-20.089-8.299-7.792 0-13.791 3.159-18.003 9.476-4.215 6.315-6.322 15.32-6.322 27.004 0 11.56 2.044 20.371 6.133 26.443 4.078 6.061 10.21 9.096 18.381 9.096zM364.317 938.583c-13.004 0-23.16-4.723-30.449-14.145-7.295-9.424-10.938-22.661-10.938-39.69 0-17.091 3.691-30.393 11.077-39.917 7.384-9.52 17.616-14.279 30.69-14.279 13.699 0 24.14 5.055 31.298 15.174h1.134c-1.073-7.48-1.599-13.384-1.599-17.721v-37.989h22.246v146.675h-17.345l-3.869-13.665h-1.032c-7.113 10.363-17.508 15.557-31.214 15.557v0z"></path>
<path fill="#fff" d="M475.142 921.607c8.044 0 14.497-2.249 19.374-6.735 4.862-4.497 7.301-10.793 7.301-18.9v-9.055l-13.386 0.573c-10.432 0.378-18.022 2.125-22.771 5.233-4.745 3.107-7.113 7.871-7.113 14.279 0 4.651 1.377 8.249 4.147 10.793 2.765 2.546 6.911 3.813 12.448 3.813zM508.137 936.693l-4.432-14.514h-0.754c-5.031 6.348-10.087 10.66-15.179 12.961-5.094 2.29-11.629 3.445-19.611 3.445-10.25 0-18.242-2.779-23.995-8.299-5.748-5.529-8.625-13.36-8.625-23.467 0-10.752 3.993-18.857 11.974-24.327 7.977-5.468 20.141-8.453 36.488-8.953l18.010-0.567v-5.561c0-6.667-1.555-11.64-4.668-14.942-3.113-3.298-7.938-4.949-14.471-4.949-5.349 0-10.463 0.786-15.372 2.355-4.899 1.568-9.611 3.424-14.14 5.562l-7.165-15.837c5.663-2.954 11.842-5.199 18.572-6.735 6.726-1.545 13.071-2.311 19.048-2.311 13.256 0 23.267 2.885 30.028 8.67 6.754 5.779 10.135 14.86 10.135 27.242v70.229h-15.839z"></path>
<path fill="#fff" d="M535.527 832.435h24.131l21.22 59.101c3.198 8.422 5.335 16.343 6.407 23.764h0.752c0.569-3.465 1.608-7.656 3.117-12.592 1.505-4.936 9.485-28.359 23.943-70.272h23.951l-44.596 118.118c-8.108 21.679-21.624 32.524-40.54 32.524-4.907 0-9.68-0.541-14.332-1.605v-17.54c3.333 0.756 7.132 1.134 11.408 1.134 10.682 0 18.198-6.194 22.53-18.572l3.867-9.802-41.857-104.258z"></path>
<path fill="#fff" d="M79.758 776.857c-6.874 0-13.398-0.671-19.576-2.007v-29.311c2.036 0.382 4.199 0.812 6.493 1.291 2.294 0.476 4.775 0.715 7.447 0.715 6.241 0 10.699-1.881 13.373-5.635s4.012-10.182 4.012-19.287v-129.189h37.911v125.943c0 18.903-4.138 33.21-12.413 42.919-8.275 9.707-20.69 14.562-37.246 14.562z"></path>
<path fill="#fff" d="M189.079 708.586c4.519 0 8.386-1.43 11.603-4.297 3.213-2.865 4.823-6.585 4.823-11.171v-8.403l-8.596 0.384c-12.289 0.448-18.429 4.964-18.429 13.556 0 6.626 3.532 9.934 10.601 9.934zM216.772 733.029l-7.162-14.323h-0.763c-5.034 6.241-10.158 10.506-15.376 12.796-5.223 2.29-11.972 3.439-20.247 3.439-10.187 0-18.209-3.055-24.066-9.165-5.861-6.115-8.787-14.707-8.787-25.782 0-11.523 4.010-20.102 12.033-25.737 8.019-5.635 19.641-8.8 34.859-9.5l18.049-0.571v-1.529c0-8.913-4.393-13.369-13.18-13.369-7.897 0-17.92 2.672-30.082 8.021l-10.79-24.636c12.604-6.493 28.522-9.737 47.748-9.737 13.88 0 24.623 3.437 32.23 10.31 7.61 6.88 11.418 16.487 11.418 28.837v70.943h-25.883z"></path>
<path fill="#fff" d="M286.994 733.029l-41.257-108.181h38.965l18.337 63.976c0.061 0.315 0.191 0.858 0.384 1.621 0.189 0.767 0.382 1.673 0.574 2.72 0.191 1.052 0.363 2.166 0.523 3.343 0.161 1.178 0.241 2.277 0.241 3.294h0.667c0-3.311 0.569-6.906 1.72-10.793l19.194-64.163h38.871l-41.257 108.181h-36.957z"></path>
<path fill="#fff" d="M411.727 708.586c4.517 0 8.386-1.43 11.603-4.297 3.215-2.865 4.825-6.585 4.825-11.171v-8.403l-8.596 0.384c-12.29 0.448-18.435 4.964-18.435 13.556 0 6.626 3.534 9.934 10.602 9.934zM439.421 733.029l-7.162-14.323h-0.765c-5.031 6.241-10.158 10.506-15.376 12.796-5.222 2.29-11.97 3.439-20.247 3.439-10.186 0-18.205-3.055-24.064-9.165-5.859-6.115-8.787-14.707-8.787-25.782 0-11.523 4.013-20.102 12.035-25.737 8.019-5.635 19.641-8.8 34.855-9.5l18.047-0.571v-1.529c0-8.913-4.391-13.369-13.178-13.369-7.895 0-17.921 2.672-30.084 8.021l-10.786-24.636c12.602-6.493 28.516-9.737 47.746-9.737 13.882 0 24.625 3.437 32.232 10.31 7.608 6.88 11.412 16.487 11.412 28.837v70.943h-25.88z"></path>
<path fill="#fff" d="M583.632 690.633c0 8.661-2.198 16.345-6.591 23.061s-10.728 11.935-19.004 15.659c-8.277 3.723-17.988 5.587-29.13 5.587-9.296 0-17.095-0.652-23.397-1.955-6.304-1.304-12.861-3.584-19.672-6.83v-33.61c7.195 3.693 14.675 6.572 22.444 8.64 7.764 2.072 14.896 3.104 21.39 3.104 5.601 0 9.709-0.967 12.322-2.911 2.607-1.942 3.913-4.441 3.913-7.499 0-1.907-0.526-3.578-1.577-5.012-1.049-1.432-2.735-2.878-5.058-4.343-2.325-1.462-8.516-4.454-18.574-8.977-9.107-4.138-15.933-8.145-20.484-12.029-4.553-3.884-7.929-8.34-10.126-13.369-2.196-5.027-3.294-10.982-3.294-17.855 0-12.856 4.68-22.882 14.040-30.080 9.357-7.189 22.218-10.788 38.578-10.788 14.455 0 29.195 3.343 44.22 10.026l-11.555 29.122c-13.056-5.983-24.323-8.976-33.808-8.976-4.903 0-8.47 0.86-10.697 2.576-2.231 1.72-3.341 3.854-3.341 6.4 0 2.737 1.414 5.19 4.249 7.352s10.523 6.111 23.063 11.835c12.035 5.414 20.39 11.221 25.068 17.429s7.021 14.023 7.021 23.439z"></path>
<path fill="#fff" d="M646.465 734.94c-17.701 0-31.118-4.777-40.253-14.323-9.153-9.548-13.723-23.265-13.723-41.152 0-17.951 4.936-31.861 14.823-41.726 9.867-9.869 23.906-14.797 42.113-14.797 12.544 0 24.355 2.737 35.43 8.212l-10.984 27.592c-4.519-1.973-8.685-3.546-12.504-4.725-3.823-1.175-7.803-1.768-11.942-1.768-6.050 0-10.728 2.355-14.036 7.063-3.313 4.714-4.973 11.366-4.973 19.958 0 17.316 6.404 25.971 19.2 25.971 10.951 0 21.451-3.181 31.516-9.548v29.695c-9.613 6.365-21.173 9.548-34.668 9.548z"></path>
<path fill="#fff" d="M762.882 622.938c3.25 0 6.337 0.258 9.265 0.763l2.099 0.382-3.343 35.23c-3.050-0.763-7.288-1.143-12.7-1.143-8.151 0-14.067 1.86-17.762 5.587-3.693 3.723-5.537 9.085-5.537 16.089v53.184h-37.342v-108.181h27.79l5.826 17.282h1.816c3.118-5.727 7.464-10.36 13.037-13.893 5.57-3.534 11.188-5.299 16.852-5.299z"></path>
<path fill="#fff" d="M787.281 733.029h37.338v-108.181h-37.338v108.181zM786.325 597.92c0-5.598 1.56-9.769 4.677-12.507 3.12-2.737 8.149-4.108 15.094-4.108 6.935 0 12 1.401 15.181 4.202 3.183 2.8 4.777 6.941 4.777 12.411 0 10.953-6.656 16.422-19.958 16.422-13.182 0-19.771-5.47-19.771-16.422v0z"></path>
<path fill="#fff" d="M894.2 652.251c-5.477 0-9.315 1.957-11.51 5.874-2.194 3.915-3.389 9.722-3.58 17.423v2.959c0 9.3 1.243 16.013 3.723 20.147 2.485 4.139 6.402 6.209 11.751 6.209 4.775 0 8.245-2.053 10.41-6.155 2.162-4.106 3.246-10.901 3.246-20.386 0-9.296-1.082-15.963-3.246-20.004s-5.764-6.065-10.791-6.065zM906.713 734.94c-5.477 0-10.378-0.906-14.712-2.724-4.332-1.814-8.627-5.073-12.893-9.785h-1.718c1.149 7.577 1.718 12.283 1.718 14.129v43.445h-37.336v-155.16h30.366l5.251 13.749h1.718c6.941-10.439 16.524-15.657 28.748-15.657 11.964 0 21.359 4.962 28.172 14.894 6.813 9.928 10.215 23.554 10.215 40.87 0 17.442-3.546 31.175-10.649 41.2-7.099 10.026-16.726 15.040-28.883 15.040v0z"></path>
<path fill="#fff" d="M1014.158 705.434c5.027 0 11.045-1.238 18.051-3.721v27.212c-5.034 2.162-9.826 3.708-14.375 4.63-4.551 0.923-9.885 1.384-15.996 1.384-12.539 0-21.581-3.072-27.123-9.216-5.537-6.141-8.307-15.578-8.307-28.309v-44.591h-13.083v-15.183l16.617-11.746 9.646-22.722h24.447v21.674h26.551v27.977h-26.551v42.108c0 7.004 3.374 10.502 10.124 10.502z"></path>
<path fill="#fefefe" d="M819.45 231.049c0 10.565-8.653 19.131-19.328 19.131-10.678 0-19.339-8.566-19.339-19.131 0-10.569 8.661-19.133 19.339-19.133 10.673 0 19.328 8.564 19.328 19.133z"></path>
<path fill="#fefefe" d="M225.774 54.447c0 10.565-8.655 19.13-19.333 19.13-10.675 0-19.333-8.566-19.333-19.13 0-10.562 8.659-19.133 19.333-19.133 10.678 0 19.333 8.572 19.333 19.133z"></path>
<path fill="#fefefe" d="M46.878 231.049c0 10.565-8.655 19.131-19.337 19.131-10.677 0-19.332-8.566-19.332-19.131 0-10.569 8.653-19.133 19.332-19.133 10.68 0 19.337 8.564 19.337 19.133z"></path>
<path fill="#fefefe" d="M225.774 231.049c0 10.565-8.655 19.131-19.333 19.131-10.675 0-19.333-8.566-19.333-19.131 0-10.569 8.659-19.133 19.333-19.133 10.678 0 19.333 8.564 19.333 19.133z"></path>
<path fill="#fefefe" d="M46.878 407.645c0 10.564-8.655 19.133-19.337 19.133-10.677 0-19.332-8.57-19.332-19.133s8.653-19.126 19.332-19.126c10.68 0 19.337 8.562 19.337 19.126z"></path>
<path fill="#fefefe" d="M403.795 407.645c0 10.564-8.651 19.133-19.333 19.133-10.68 0-19.333-8.57-19.333-19.133s8.653-19.126 19.333-19.126c10.682 0 19.333 8.562 19.333 19.126z"></path>
<path fill="#fefefe" d="M522.767 289.913c0 10.569-8.655 19.133-19.335 19.133-10.678 0-19.326-8.564-19.326-19.133s8.648-19.131 19.326-19.131c10.68 0 19.335 8.564 19.335 19.131z"></path>
<path fill="#fefefe" d="M641.736 407.645c0 10.564-8.659 19.133-19.326 19.133-10.68 0-19.341-8.57-19.341-19.133s8.661-19.126 19.341-19.126c10.667 0 19.326 8.562 19.326 19.126z"></path>
<path fill="#fefefe" d="M225.335 407.645c0 10.564-8.655 19.133-19.333 19.133-10.673 0-19.333-8.57-19.333-19.133 0-10.567 8.661-19.126 19.333-19.126 10.678 0 19.333 8.559 19.333 19.126z"></path>
<path fill="#fefefe" d="M104.576 290.481l-60.248-59.62 169.885-168.104-16.806-16.637-186.691 184.74 77.048 76.251z"></path>
<path fill="#fefefe" d="M128.482 347.401l68.919 68.21 16.815-16.634-68.931-68.204z"></path>
<path fill="#fefefe" d="M621.804 423.931l-118.854-117.623-118.852 117.623-178.288-176.43-169.883 168.11-16.806-16.636 186.689-184.745 178.288 176.428 118.852-117.62 118.854 117.62 169.891-168.11 16.804 16.63z"></path>
</svg>
