<?xml version="1.0" encoding="utf-8"?>
<!-- Generator: Adobe Illustrator 19.0.0, SVG Export Plug-In . SVG Version: 6.00 Build 0)  -->
<svg version="1.1" id="Layer_1" xmlns="http://www.w3.org/2000/svg" xmlns:xlink="http://www.w3.org/1999/xlink" x="0px" y="0px"
	 viewBox="200 0 400 400" style="enable-background:new 200 0 400 400;" xml:space="preserve">
<style type="text/css">
	.st0{fill:#333333;}
	.st1{fill:#111111;}
	.st2{fill:#636978;}
	.st3{fill:#414952;}
	.st4{fill:#555A66;}
	.st5{fill:#23272B;}
	.st6{fill:#FFCDBE;}
	.st7{fill:#FFBEAA;}
</style>
<g>
	<path class="st0" d="M600,200c0,110.4-89.5,200-200,200s-200-89.5-200-200C200,89.5,289.6,0,400,0S600,89.5,600,200L600,200z"/>
	<path class="st1" d="M334.9,284.5l-39.9,39.9l72.8,72.8c10.4,1.7,21.3,2.6,32.2,2.6c15.5,0,30.7-1.8,45.1-5.1L334.9,284.5z"/>
	<path class="st1" d="M596.4,237.5L452.6,93.8L346.4,270.1L465.3,389C532.2,365.9,583,308.3,596.4,237.5L596.4,237.5z"/>
	<path class="st2" d="M322.4,288.5l-24.9,24.9l57.2,57.2c13.8,13.8,35.9,13.8,49.7,0L322.4,288.5z"/>
	<path class="st3" d="M257.7,247.2c-8.7,8.7-8.7,22.8,0,31.6l40,40l31.6-31.6l-40-40C280.5,238.5,266.3,238.5,257.7,247.2
		L257.7,247.2z"/>
	<path class="st4" d="M268.8,290l43.3-19.8l11.7,11.7l-43.3,19.8L268.8,290z"/>
	<path class="st5" d="M262.3,283.5l34.3-29l11.7,11.7l-34.3,29L262.3,283.5z"/>
	<path class="st4" d="M267.1,288.3l-9.5-9.5c-0.8-0.8-1.5-1.6-2.1-2.4l15.9-35.5c5.3-0.5,10.6,0.9,15.1,4.2L267.1,288.3z"/>
	<path class="st5" d="M282.2,311.6l39.9-39.9l12.8,12.8l-39.9,39.9L282.2,311.6z"/>
	<path class="st4" d="M477.6,288.5l24.8,24.9l-57.2,57.2c-13.7,13.8-35.9,13.8-49.7,0L477.6,288.5z"/>
	<path class="st5" d="M542.3,247.2c8.7,8.7,8.7,22.8,0,31.6l-40,40l-31.6-31.6l40-40C519.5,238.5,533.7,238.5,542.3,247.2
		L542.3,247.2z"/>
	<path class="st3" d="M531.2,290l-43.3-19.8l-11.7,11.7l43.3,19.8L531.2,290z"/>
	<path class="st5" d="M537.7,283.5l-34.3-29l-11.7,11.7l34.3,29L537.7,283.5z"/>
	<path class="st3" d="M532.9,288.3l9.5-9.5c0.8-0.8,1.5-1.6,2.1-2.4l-15.9-35.5c-5.3-0.5-10.6,0.9-15.1,4.2L532.9,288.3z"/>
	<path class="st5" d="M505.1,324.4l-39.9-39.9l12.8-12.8l39.9,39.9L505.1,324.4z"/>
	<path class="st3" d="M400,399.9c53.6,0,102.3-21.1,138.2-55.5l-85-30.9c-10.3-3.7-17.1-13.5-17.1-24.4v-24h-72.2v24
		c0,10.9-6.8,20.6-17.1,24.4l-85,30.9C297.7,378.8,346.4,399.9,400,399.9L400,399.9z"/>
	<path class="st5" d="M538.2,344.4l-85-30.9c-10.3-3.7-17.1-13.5-17.1-24.4v-24h-36.4V400c0.1,0,0.2,0,0.3,0
		C453.6,399.9,502.3,378.8,538.2,344.4L538.2,344.4z"/>
	<path class="st4" d="M434.4,284.1l-17.3,8.9c-10.7,5.6-23.5,5.6-34.3,0l-17.3-8.9c-25.6-13.2-41.6-39.4-41.6-68.1v-67.3
		c0-42,34.1-76.1,76.1-76.1s76.1,34.1,76.1,76.1V216C476.1,244.7,459.9,270.9,434.4,284.1L434.4,284.1z"/>
	<path class="st3" d="M400,72.6c-0.1,0-0.2,0-0.3,0v224.5c6,0.1,12-1.4,17.5-4.1l17.2-8.9c25.6-13.2,41.6-39.4,41.6-68.1v-67.3
		C476.1,106.7,442,72.6,400,72.6L400,72.6z"/>
	<path class="st6" d="M438.8,211.6h-75.4c-14.7,0-26.8-12-26.8-26.8c0-14.7,12-26.8,26.8-26.8h75.4c14.7,0,26.8,12,26.8,26.8
		C465.5,199.7,453.5,211.6,438.8,211.6L438.8,211.6z"/>
	<path class="st7" d="M438.8,158.1h-39.1v53.5h39.1c14.7,0,26.8-12,26.8-26.8C465.5,170.1,453.5,158.1,438.8,158.1L438.8,158.1z"/>
</g>
</svg>
