<svg width="165px" height="26px" viewBox="0 0 443 72" version="1.1" xmlns="http://www.w3.org/2000/svg" xmlns:xlink="http://www.w3.org/1999/xlink">
    <g id="Page-1" stroke="none" stroke-width="1" fill="none" fill-rule="evenodd">
        <g id="DA-logo-white-rgb" fill-rule="nonzero" fill="#FFFFFF">
            <g id="icon">
                <polygon id="Shape" points="0.8 68.1 0.8 2.6 33.5 35.3"></polygon>
                <rect id="Rectangle-path" transform="translate(53.383860, 35.300320) rotate(-45.008103) translate(-53.383860, -35.300320) " x="41.9839692" y="23.9004292" width="22.7997816" height="22.7997816"></rect>
                <polygon id="Shape" points="35.4 37.2 20.7 52 50.2 52"></polygon>
                <polygon id="Shape" points="2.7 0.7 68.2 0.7 35.4 33.4"></polygon>
                <polygon id="Shape" points="70 32.1 70 2.6 55.3 17.3"></polygon>
                <polygon id="Shape" points="70 38.5 38.6 69.9 70 69.9"></polygon>
                <polygon id="Shape" points="18 54.6 50.2 54.6 34.9 69.9 2.7 69.9"></polygon>
            </g>
            <g id="text" transform="translate(97.000000, 0.000000)">
                <path d="M22.9,0.7 L0.9,0.7 L0.9,69.9 L22.3,69.9 C36.6,69.9 57.2,61.1 57.2,35.4 C57.2,9.7 34.8,0.7 22.9,0.7 Z M21.7,56.6 L16.6,56.6 L16.6,14.1 L22.4,14.1 C27.4,14.1 40.5,17.5 40.5,35.5 C40.5,53.5 26.2,56.6 21.7,56.6 Z" id="Shape"></path>
                <path d="M99.1,24.8 L99.1,31.1 L97.2,29 C95.3,26.8 91,23.2 84.1,23.2 C78,23.2 72,25.6 68.1,29.6 C65.5,32.2 61.2,38.1 61.2,47.8 C61.2,54.5 63.2,59.6 67.6,64.4 C72,69.2 77.4,71.6 83.5,71.6 C86.9,71.6 93.2,70.8 97.1,65.3 L99.1,62.5 L99.1,70 L112.1,70 L112.1,24.8 L99.1,24.8 Z M86.5,59.3 C80,59.3 74.8,53.9 74.8,47.3 C74.8,40.7 80,35.3 86.5,35.3 C93,35.3 98.2,40.7 98.2,47.3 C98.2,53.9 92.9,59.3 86.5,59.3 Z" id="Shape"></path>
                <path d="M190.7,24.8 L190.7,31.1 L188.8,29 C186.9,26.8 182.6,23.2 175.7,23.2 C169.6,23.2 163.6,25.6 159.7,29.6 C157.1,32.2 152.8,38.1 152.8,47.8 C152.8,54.5 154.8,59.6 159.2,64.4 C163.6,69.2 169,71.6 175.1,71.6 C178.5,71.6 184.8,70.8 188.7,65.3 L190.7,62.5 L190.7,70 L203.7,70 L203.7,24.8 L190.7,24.8 Z M178.1,59.3 C171.6,59.3 166.4,53.9 166.4,47.3 C166.4,40.7 171.6,35.3 178.1,35.3 C184.6,35.3 189.8,40.7 189.8,47.3 C189.8,53.9 184.5,59.3 178.1,59.3 Z" id="Shape"></path>
                <polygon id="Shape" points="126.1 0.7 126.1 24.8 120.8 24.8 120.8 36.5 126.1 36.5 126.1 70 140.5 70 140.5 36.5 150 36.5 150 24.8 140.5 24.8 140.5 0.7"></polygon>
                <polygon id="Shape" points="321.9 0.7 321.9 70 336.3 70 336.3 36.5 345.8 36.5 345.8 24.8 336.3 24.8 336.3 0.7"></polygon>
                <path d="M255,46.5 L235.2,46.5 L245,17 L255,46.5 Z M263.2,69.9 L279.7,69.9 L254.2,0.7 L236.2,0.7 L210.2,69.9 L226.5,69.9 L231.3,57.8 L259,57.8 L263.2,69.9 Z" id="Shape"></path>
                <path d="M284.9,70 L299.4,70 L299.4,50.8 C299.4,48.9 299.4,43 303.5,39.2 C305.6,37.3 308.3,36.4 311.8,36.4 C314.2,36.4 316.9,36.5 317.9,36.5 L317.9,24.8 C317.2,24.8 315,24.6 315,24.6 C312.2,24.6 309.6,24.6 307.5,25.7 C304.9,27 302.8,29.1 301.4,31.8 L299.4,35.7 L299.4,24.7 L284.9,24.7 L284.9,70 L284.9,70 Z" id="Shape"></path>
            </g>
        </g>
    </g>
</svg>