<?xml version="1.0" encoding="utf-8"?>
<!-- Generator: Adobe Illustrator 19.0.0, SVG Export Plug-In . SVG Version: 6.00 Build 0)  -->
<svg version="1.1" id="Layer_1" xmlns="http://www.w3.org/2000/svg" xmlns:xlink="http://www.w3.org/1999/xlink" x="0px" y="0px"
	 viewBox="0 0 1000 222" enable-background="new 0 0 1000 222" xml:space="preserve">
<g>
	<g>
		<path fill="#00A7E7" d="M329.5,117.3c5-7.2,11.1-10.8,18.1-10.8c10.9,0,19.1,4.4,24.4,13.3c1.2-1.5,2.6-3.1,4.3-4.8
			c1.7-1.7,4.3-3.5,7.9-5.5c3.6-2,7.4-3,11.2-3c8.6,0,15.7,3.1,21.5,9.4c5.8,6.2,8.7,16.6,8.7,31v26.7c0,2.3-0.1,4.1-0.2,5.3
			c-0.2,1.2-0.7,2.5-1.5,4c-1.4,2.7-5.5,4.1-12.4,4.1c-6.7,0-10.9-1.4-12.4-4.3c-0.7-1.5-1.2-2.9-1.4-4c-0.2-1.2-0.2-2.9-0.2-5.3
			v-26.7c0-8.8-3.3-13.3-10-13.3c-3.7,0-6.3,1.2-7.6,3.5c-1.3,2.3-2,5.6-2,9.9v26.7c0,2.4-0.1,4.2-0.2,5.3c-0.2,1.1-0.7,2.4-1.5,4
			c-1.5,2.7-5.7,4.1-12.5,4.1c-6.7,0-10.9-1.4-12.4-4.3c-0.7-1.5-1.2-2.9-1.4-4c-0.2-1.2-0.2-2.9-0.2-5.3v-26.7
			c0-8.8-3.3-13.3-10-13.3c-6.4,0-9.6,4.4-9.6,13.3v27c0,2.3-0.1,4.1-0.2,5.3c-0.2,1.2-0.7,2.5-1.5,4c-1.6,2.6-5.8,4-12.5,4
			c-6.7,0-10.9-1.4-12.4-4.1c-0.8-1.5-1.2-2.8-1.4-4c-0.2-1.1-0.2-2.9-0.2-5.3v-53.6c0-2.3,0.1-4.1,0.2-5.3c0.2-1.2,0.7-2.5,1.5-3.9
			c1.6-2.7,5.4-4.1,11.4-4.1s9.9,0.9,11.7,2.7C328.6,111.2,329.5,113.9,329.5,117.3z"/>
		<path fill="#00A7E7" d="M487,115.2c0.6-5.7,4.9-8.5,12.7-8.5c4.2,0,7.3,0.3,9.3,0.9c2,0.6,3.5,1.7,4.3,3.2c0.8,1.5,1.3,2.9,1.4,4
			c0.2,1.2,0.2,2.9,0.2,5.3v53.3c0,2.3-0.1,4.1-0.2,5.3c-0.2,1.2-0.6,2.5-1.4,4c-1.5,2.6-5.2,4-11,4c-5.8,0-9.7-0.7-11.7-2.1
			c-2-1.4-3.1-3.4-3.5-6c-4,5.4-10.6,8.1-19.8,8.1c-9.3,0-17.8-4-25.8-12c-7.9-8-11.9-17.3-11.9-28c0-10.6,4-19.9,12-27.9
			c8-8,16.7-12,26.3-12c3.6,0,7,0.6,10,1.8c3,1.2,5.1,2.4,6.3,3.4C485.3,113.1,486.3,114.2,487,115.2z M457.8,146.9
			c0,3.3,1.4,6.4,4.2,9.1c2.8,2.7,6.1,4,10.1,4c4,0,7.2-1.4,9.9-4.1c2.6-2.7,3.9-5.8,3.9-9.1s-1.3-6.4-3.8-9.2
			c-2.5-2.8-5.9-4.3-10.1-4.3c-4.2,0-7.7,1.4-10.3,4.3C459.1,140.4,457.8,143.5,457.8,146.9z"/>
		<path fill="#00A7E7" d="M578.9,107.6c2,0.6,3.7,1.7,5.1,3.1c1.3,1.5,2,3.8,2,7.1c0,3.3-1,6.8-3,10.7c-2,3.9-5,5.8-8.8,5.8
			c-1.9,0-3.8-0.4-5.5-1.2c-1.8-0.8-4.1-1.2-7-1.2c-2.9,0-5.6,1-8.1,2.9c-2.5,1.9-3.8,4.3-3.8,7v32c0,2.3-0.1,4.1-0.2,5.3
			c-0.2,1.2-0.7,2.5-1.5,4c-1.6,2.6-5.8,4-12.5,4c-5.1,0-8.8-0.9-11.1-2.6c-1.7-1.4-2.7-3.6-2.9-6.6c0-1,0-2.5,0-4.4v-53.5
			c0-2.3,0.1-4.1,0.2-5.3c0.2-1.2,0.6-2.5,1.4-3.9c1.5-2.7,5.7-4.1,12.5-4.1c6.4,0,10.4,1.2,12,3.5c1.2,1.6,1.8,3.3,1.8,5
			c0.5-0.7,1.3-1.6,2.3-2.6c1-1,3.2-2.4,6.5-4.1c3.3-1.7,6.2-2.6,8.7-2.6s4.6,0.1,6.3,0.4C575,106.5,576.8,107,578.9,107.6z"/>
		<path fill="#00A7E7" d="M638.1,146.7l21.4,16.8c2.7,2.1,4.4,3.8,5.1,4.9c0.7,1.1,1,2.2,1,3.2c0,2.4-1.7,5.7-5,9.9
			c-3.6,4.3-6.9,6.4-9.6,6.4c-2.4,0-5.6-1.5-9.8-4.4l-1.6-1.1c-2.5-1.9-6.3-5.3-11.4-10.1c-5.1-4.8-9-8.3-11.7-10.3v11.7
			c0,2.3-0.1,4.1-0.2,5.3c-0.2,1.2-0.7,2.5-1.5,4c-1.4,2.6-5.5,4-12.4,4c-6.7,0-10.9-1.4-12.4-4.1c-0.8-1.5-1.2-2.9-1.4-4
			c-0.2-1.2-0.2-2.9-0.2-5.3V82.3c0-2.3,0.1-4.1,0.2-5.3c0.2-1.2,0.6-2.5,1.4-4c1.5-2.7,5.7-4.1,12.5-4.1c5.1,0,8.8,0.9,10.9,2.6
			c1.8,1.4,2.8,3.7,2.9,6.7c0.1,0.9,0.2,2.3,0.2,4.3v48.3c1.9-1.5,4.8-4.1,8.7-7.8c3.9-3.7,6.8-6.2,8.8-7.8l1.9-1.2
			c3.7-2.7,7-4.1,9.6-4.1c2.7,0,5.8,2.1,9.2,6.2c3.5,4.1,5.2,7.3,5.2,9.7s-2,5.1-5.9,8.2L638.1,146.7z"/>
		<path fill="#00A7E7" d="M700.7,186.6c-10.8,0-19.8-3.9-26.9-11.7c-7.1-7.8-10.7-17.2-10.7-28.4v-26.7c0-2.4,0.1-4.2,0.2-5.3
			c0.2-1.1,0.6-2.4,1.4-4c1.5-2.7,5.7-4.1,12.5-4.1c7.5,0,11.9,1.9,13.2,5.8c0.6,1.6,1,4.2,1,7.8v26.7c0,4.2,1.3,7.4,3.8,9.8
			c2.5,2.3,5.9,3.5,10.1,3.5c4.2,0,7.7-1.2,10.3-3.7c2.6-2.4,3.9-5.6,3.9-9.6v-27c0-2.3,0.1-4.1,0.2-5.3c0.2-1.2,0.7-2.5,1.5-4
			c1.4-2.6,5.5-4,12.4-4c6.7,0,10.9,1.4,12.4,4.1c0.7,1.5,1.2,2.9,1.4,4c0.2,1.2,0.2,2.9,0.2,5.3v53.9c0,2.2-0.1,3.9-0.2,5.1
			c-0.2,1.2-0.7,2.5-1.5,3.9c-1.6,2.6-5.7,4-12.4,4c-6.5,0-10.5-1.2-12-3.7c-1.1-1.7-1.6-3.8-1.6-6.2c-0.4,0.7-1.4,1.7-2.9,3
			c-1.5,1.3-2.9,2.4-4.3,3.4C709,185.5,705,186.6,700.7,186.6z"/>
		<path fill="#00A7E7" d="M754,208.7v-89c0-2.3,0.1-4.1,0.2-5.2c0.2-1.1,0.6-2.4,1.4-3.8c1.5-2.7,5.1-4.1,10.8-4.1
			c5.7,0,9.5,0.7,11.5,2.1c2,1.4,3.1,3.4,3.5,6c4.1-5.3,10.5-7.9,19.2-7.9s17,3.9,24.8,11.7c7.8,7.8,11.7,16.9,11.7,27.3
			c0,10.4-3.9,19.5-11.6,27.3c-7.8,7.8-16,11.7-24.8,11.7s-15.1-2.3-19.1-7v30.8c0,2.3-0.1,4.1-0.2,5.2c-0.2,1.1-0.6,2.4-1.4,3.9
			c-0.8,1.5-2.2,2.5-4.1,3.1c-1.9,0.6-4.6,0.9-7.9,0.9s-6-0.3-7.9-0.9c-2-0.6-3.4-1.6-4.2-3c-0.8-1.4-1.3-2.7-1.4-3.8
			C754.1,212.8,754,211.1,754,208.7z M785.8,137c-2.5,2.7-3.7,5.7-3.7,9c0,3.3,1.3,6.2,3.8,8.9c2.5,2.7,5.7,4,9.6,4
			c3.9,0,7.2-1.3,10-4c2.7-2.6,4.1-5.6,4.1-9c0-3.4-1.3-6.4-3.9-9.1c-2.6-2.7-5.9-4-10-4C791.6,132.9,788.3,134.2,785.8,137z"/>
		<path fill="#00A7E7" d="M878.6,186.6c-10.8,0-19.8-3.9-26.9-11.7c-7.1-7.8-10.7-17.2-10.7-28.4v-26.7c0-2.4,0.1-4.2,0.2-5.3
			c0.2-1.1,0.6-2.4,1.4-4c1.5-2.7,5.7-4.1,12.5-4.1c7.5,0,11.9,1.9,13.2,5.8c0.6,1.6,1,4.2,1,7.8v26.7c0,4.2,1.3,7.4,3.8,9.8
			c2.5,2.3,5.9,3.5,10.1,3.5c4.2,0,7.7-1.2,10.3-3.7c2.6-2.4,3.9-5.6,3.9-9.6v-27c0-2.3,0.1-4.1,0.2-5.3c0.2-1.2,0.7-2.5,1.5-4
			c1.4-2.6,5.5-4,12.4-4c6.7,0,10.9,1.4,12.4,4.1c0.7,1.5,1.2,2.9,1.4,4c0.2,1.2,0.2,2.9,0.2,5.3v53.9c0,2.2-0.1,3.9-0.2,5.1
			c-0.2,1.2-0.7,2.5-1.5,3.9c-1.6,2.6-5.7,4-12.4,4c-6.5,0-10.5-1.2-12-3.7c-1.1-1.7-1.6-3.8-1.6-6.2c-0.4,0.7-1.4,1.7-2.9,3
			c-1.5,1.3-2.9,2.4-4.3,3.4C886.9,185.5,882.9,186.6,878.6,186.6z"/>
		<path fill="#00A7E7" d="M932.6,179.8c-2-1.2-3.1-3.1-3.1-5.8c0-2.6,2-6.7,6.1-12c1.2-1.7,3.1-2.6,5.7-2.6c2.6,0,6.2,1.2,10.7,3.7
			s8.6,3.7,12.2,3.7c6.5,0,9.8-1.2,9.8-3.7c0-1.9-3.6-3.3-10.8-4.3c-6.7-0.9-13.4-3.3-20.1-7.2c-3.1-1.8-5.7-4.7-7.7-8.6
			c-2-3.9-3-8.6-3-13.9c0-16,11.6-24.1,34.8-24.1c7.6,0,15.4,1.7,23.4,5.2c3.7,1.6,5.6,3.7,5.6,6.1c0,2.4-1.2,5.4-3.5,9
			c-2.4,3.6-4.8,5.3-7.2,5.3c-1.3,0-3.7-0.8-7.1-2.3c-3.5-1.5-7.2-2.3-11.3-2.3c-6.3,0-9.5,1.1-9.5,3.3c0,3,3.6,5,10.9,5.9
			c7.1,0.7,13.9,2.6,20.6,5.8c3.1,1.4,5.7,3.9,7.8,7.4c2.1,3.5,3.1,7.9,3.1,13.2c0,5.3-1,9.8-3.1,13.5c-2.1,3.7-5,6.5-8.8,8.3
			c-6.9,3.2-15.4,4.7-25.8,4.7S942.1,185.5,932.6,179.8z"/>
	</g>
	<path fill="#00A7E7" d="M239.9,131.6c10.6,0,19.1-8.1,19.1-18.2c0-10-8.6-18.2-19.1-18.2c-10.5,0-19.1,8.1-19.1,18.2
		C220.8,123.4,229.3,131.6,239.9,131.6z"/>
	<path fill="#00A7E7" d="M239.9,154.8c-10.5,0-19.1,8.1-19.1,18.2c0,10,8.6,18.2,19.1,18.2c10.6,0,19.1-8.1,19.1-18.2
		C259,163,250.4,154.8,239.9,154.8z"/>
	<path fill="#00A7E7" d="M194,5.1c-3.3-3.1-7.6-4.8-12.2-4.8c-4.6,0-9,1.7-12.2,4.8L58.3,130.3c-6.8,6.4-6.8,16.8,0,23.2
		c3.3,3.1,7.6,4.8,12.2,4.8c4.6,0,9-1.7,12.2-4.8L194,28.4C200.8,22,200.8,11.5,194,5.1z"/>
	<path fill="#00A7E7" d="M181.8,76.4c-4.6,0-9,1.7-12.2,4.8c-3.3,3.1-5.1,7.2-5.1,11.6V170c0,9.1,7.8,16.4,17.3,16.4
		c4.6,0,9-1.7,12.2-4.8c3.3-3.1,5.1-7.2,5.1-11.6V92.8C199.1,83.8,191.3,76.4,181.8,76.4z"/>
	<path fill="#00A7E7" d="M17.8,186.5c9.8,0,17.8-7.6,17.8-16.8V57.3l21.2,20.2c3.3,3.1,7.6,4.8,12.2,4.8c4.6,0,9-1.7,12.2-4.8
		c3.3-3.1,5.1-7.2,5.1-11.6c0-4.4-1.8-8.5-5.1-11.6L32.6,8c-3.3-4.8-8.8-7.7-14.9-7.7c-0.2,0-0.5,0-0.4,0c-4.6,0-9,1.7-12.2,4.8
		C1.8,8.2,0,12.3,0,16.7l0,0.1v152.8C0,178.9,8,186.5,17.8,186.5z"/>
</g>
</svg>
