<svg fill="white" height="480pt" viewBox="0 0 480 480" width="480pt" xmlns="http://www.w3.org/2000/svg"><path d="m176 0v128h128v-128zm112 112h-96v-96h96zm0 0"/><path d="m88 64c-9.265625-.074219-17.746094 5.191406-21.792969 13.527344-4.042969 8.335937-2.925781 18.257812 2.871094 25.488281 5.796875 7.226563 15.238281 10.472656 24.257813 8.339844l-8.921876 8.921875 91.585938 83.261718v100.460938h16v128h-32v48h80v-162.46875l26.585938 66.46875h61.414062v32h48v-80h-75.054688l-16-32h19.054688v-100.460938l91.585938-83.261718-8.921876-8.921875c10.539063 2.480469 21.441407-2.328125 26.710938-11.785157 5.269531-9.453124 3.625-21.257812-4.027344-28.914062s-19.457031-9.300781-28.914062-4.035156c-9.457032 5.269531-14.269532 16.171875-11.789063 26.707031l-8.277343-8.277344-67.371094 58.949219h-105.992188l-67.371094-58.949219-8.277343 8.277344c1.691406-7.121094.015625-14.621094-4.542969-20.34375-4.558594-5.726563-11.496094-9.039063-18.8125-8.984375zm-8 24c0-4.417969 3.582031-8 8-8s8 3.582031 8 8-3.582031 8-8 8c-4.417969-.003906-7.996094-3.582031-8-8zm312-8c4.417969 0 8 3.582031 8 8s-3.582031 8-8 8-8-3.582031-8-8c.003906-4.417969 3.582031-7.996094 8-8zm-168 384h-48v-16h48zm-16-32v-128h16v128zm136-80h16v48h-16zm-52.945312 0h36.945312v16h-50.585938l-25.601562-64h15.242188zm81.359374-232.277344-68.414062 62.191406v-26.285156l55.632812-48.679687zm-84.414062 168.277344h-96v-128h96zm-167.632812-181.050781 55.632812 48.679687v26.285156l-68.414062-62.191406zm0 0"/><path d="m272 208h-64v48h64zm-16 32h-32v-16h32zm0 0"/><path d="m208 32h16v16h-16zm0 0"/><path d="m256 32h16v16h-16zm0 0"/><path d="m240 96c8.5625.25 16.847656-3.039062 22.902344-9.097656 6.058594-6.054688 9.347656-14.339844 9.097656-22.902344h-16c-.015625 8.835938-7.191406 15.988281-16.027344 15.972656-8.839844-.019531-15.988281-7.195312-15.972656-16.03125l-16 .058594c-.25 8.5625 3.039062 16.847656 9.097656 22.902344 6.054688 6.058594 14.339844 9.347656 22.902344 9.097656zm0 0"/><path d="m160 256.839844-160-17.777344v48.097656l160 17.777344zm-16 30.222656-128-14.222656v-15.902344l128 14.222656zm0 0"/><path d="m320 304.9375 160-17.777344v-48.097656l-160 17.777344zm16-33.777344 128-14.222656v15.902344l-128 14.222656zm0 0"/><path d="m48 200c0 4.417969 3.582031 8 8 8 13.25.015625 23.984375 10.75 24 24 0 4.417969 3.582031 8 8 8s8-3.582031 8-8c.015625-13.25 10.75-23.984375 24-24 4.417969 0 8-3.582031 8-8s-3.582031-8-8-8c-13.25-.015625-23.984375-10.75-24-24 0-4.417969-3.582031-8-8-8s-8 3.582031-8 8c-.015625 13.25-10.75 23.984375-24 24-4.417969 0-8 3.582031-8 8zm40-8.246094c2.332031 3.132813 5.113281 5.914063 8.246094 8.246094-3.132813 2.332031-5.914063 5.113281-8.246094 8.246094-2.332031-3.132813-5.113281-5.914063-8.246094-8.246094 3.132813-2.332031 5.914063-5.113281 8.246094-8.246094zm0 0"/><path d="m400 152c0-4.417969-3.582031-8-8-8s-8 3.582031-8 8c-.015625 13.25-10.75 23.984375-24 24-4.417969 0-8 3.582031-8 8s3.582031 8 8 8c13.25.015625 23.984375 10.75 24 24 0 4.417969 3.582031 8 8 8s8-3.582031 8-8c.015625-13.25 10.75-23.984375 24-24 4.417969 0 8-3.582031 8-8s-3.582031-8-8-8c-13.25-.015625-23.984375-10.75-24-24zm-8 40.246094c-2.332031-3.132813-5.113281-5.914063-8.246094-8.246094 3.132813-2.332031 5.914063-5.113281 8.246094-8.246094 2.332031 3.132813 5.113281 5.914063 8.246094 8.246094-3.132813 2.332031-5.914063 5.113281-8.246094 8.246094zm0 0"/></svg>