<!-- Generated by IcoMoon.io -->
<svg version="1.1" xmlns="http://www.w3.org/2000/svg" width="640" height="640" viewBox="0 0 640 640">
<path fill="#333" d="M587.587 618.355c-28.861 28.861-75.627 28.861-104.426 0l-163.131-186.453-163.131 186.392c-28.861 28.861-75.628 28.861-104.426 0-28.861-28.861-28.861-75.628 0-104.426l169.716-193.838-169.777-193.96c-28.861-28.861-28.861-75.566 0-104.426s75.566-28.861 104.426 0l163.192 186.514 163.131-186.514c28.861-28.861 75.566-28.861 104.426 0s28.861 75.628 0 104.426l-169.716 193.96 169.716 193.838c28.861 28.861 28.861 75.627 0 104.488z"></path>
</svg>
