<?xml version="1.0" encoding="utf-8"?>
<!-- Generator: Adobe Illustrator 19.0.0, SVG Export Plug-In . SVG Version: 6.00 Build 0)  -->
<svg version="1.1" id="Layer_1" xmlns="http://www.w3.org/2000/svg" xmlns:xlink="http://www.w3.org/1999/xlink" x="0px" y="0px"
	 viewBox="0 0 800 800" style="enable-background:new 0 0 800 800;" xml:space="preserve">
<style type="text/css">
	.st0{fill:#333333;}
	.st1{fill:#111111;}
	.st2{fill:#636978;}
	.st3{fill:#414952;}
	.st4{fill:#555A66;}
	.st5{fill:#23272B;}
	.st6{fill:#FFCDBE;}
	.st7{fill:#FFBEAA;}
</style>
<g>
	<path class="st0" d="M604.6,399.8c0,113.1-91.7,204.8-204.8,204.8c-113.1,0-204.8-91.7-204.8-204.8C195,286.7,286.7,195,399.8,195
		C512.9,195,604.6,286.7,604.6,399.8L604.6,399.8z M604.6,399.8"/>
	<path class="st1" d="M333.1,486.4l-40.9,40.9l74.6,74.6c10.7,1.7,21.8,2.7,33,2.7c15.9,0,31.4-1.8,46.2-5.2L333.1,486.4z
		 M333.1,486.4"/>
	<path class="st1" d="M601,438.3L453.7,291.1L344.9,471.6l121.8,121.8C535.2,569.8,587.2,510.8,601,438.3L601,438.3z M601,438.3"/>
	<path class="st2" d="M320.3,490.5L294.8,516l58.6,58.6c14.1,14.1,36.8,14.1,50.9,0L320.3,490.5z M320.3,490.5"/>
	<path class="st3" d="M254,448.2c-8.9,8.9-8.9,23.4,0,32.4l41,41l32.4-32.4l-41-41C277.4,439.3,262.9,439.3,254,448.2L254,448.2z
		 M254,448.2"/>
	<path class="st4" d="M265.4,492l44.4-20.3l12,12L277.4,504L265.4,492z M265.4,492"/>
	<path class="st5" d="M258.8,485.4l35.1-29.7l12,12l-35.1,29.7L258.8,485.4z M258.8,485.4"/>
	<path class="st4" d="M263.7,490.3l-9.7-9.7c-0.8-0.8-1.5-1.6-2.2-2.5l16.3-36.4c5.4-0.5,10.9,0.9,15.5,4.3L263.7,490.3z
		 M263.7,490.3"/>
	<path class="st5" d="M279.1,514.2l40.9-40.9l13.1,13.1l-40.9,40.9L279.1,514.2z M279.1,514.2"/>
	<path class="st4" d="M479.3,490.5l25.4,25.5l-58.6,58.6c-14,14.1-36.8,14.1-50.9,0L479.3,490.5z M479.3,490.5"/>
	<path class="st5" d="M545.6,448.2c8.9,8.9,8.9,23.4,0,32.4l-41,41l-32.4-32.4l41-41C522.2,439.3,536.7,439.3,545.6,448.2
		L545.6,448.2z M545.6,448.2"/>
	<path class="st3" d="M534.2,492l-44.4-20.3l-12,12l44.4,20.3L534.2,492z M534.2,492"/>
	<path class="st5" d="M540.8,485.4l-35.1-29.7l-12,12l35.1,29.7L540.8,485.4z M540.8,485.4"/>
	<path class="st3" d="M535.9,490.3l9.7-9.7c0.8-0.8,1.5-1.6,2.2-2.5l-16.3-36.4c-5.4-0.5-10.9,0.9-15.5,4.3L535.9,490.3z
		 M535.9,490.3"/>
	<path class="st5" d="M507.4,527.3l-40.9-40.9l13.1-13.1l40.9,40.9L507.4,527.3z M507.4,527.3"/>
	<path class="st3" d="M399.8,604.6c54.9,0,104.8-21.6,141.6-56.8l-87.1-31.7c-10.5-3.8-17.5-13.8-17.5-25v-24.6h-74v24.6
		c0,11.2-7,21.1-17.5,25l-87.1,31.7C295,583,344.9,604.6,399.8,604.6L399.8,604.6z M399.8,604.6"/>
	<path class="st5" d="M541.4,547.8l-87.1-31.7c-10.5-3.8-17.5-13.8-17.5-25v-24.6h-37.3v138.2c0.1,0,0.2,0,0.3,0
		C454.7,604.6,504.6,583,541.4,547.8L541.4,547.8z M541.4,547.8"/>
	<path class="st4" d="M435,486l-17.7,9.1c-11,5.7-24.1,5.7-35.1,0l-17.7-9.1c-26.2-13.5-42.6-40.4-42.6-69.8v-68.9
		c0-43,34.9-77.9,77.9-77.9c43,0,77.9,34.9,77.9,77.9v68.9C477.7,445.6,461.2,472.5,435,486L435,486z M435,486"/>
	<path class="st3" d="M399.8,269.4c-0.1,0-0.2,0-0.3,0v229.9c6.1,0.1,12.3-1.4,17.9-4.2L435,486c26.2-13.5,42.6-40.4,42.6-69.8
		v-68.9C477.7,304.3,442.8,269.4,399.8,269.4L399.8,269.4z M399.8,269.4"/>
	<path class="st6" d="M439.5,411.7h-77.2c-15.1,0-27.4-12.3-27.4-27.4c0-15.1,12.3-27.4,27.4-27.4h77.2c15.1,0,27.4,12.3,27.4,27.4
		C466.9,399.5,454.6,411.7,439.5,411.7L439.5,411.7z M439.5,411.7"/>
	<path class="st7" d="M439.5,356.9h-40v54.8h40c15.1,0,27.4-12.3,27.4-27.4C466.9,369.2,454.6,356.9,439.5,356.9L439.5,356.9z
		 M439.5,356.9"/>
</g>
</svg>
