<?xml version="1.0" encoding="utf-8"?>
<!-- Generator: Adobe Illustrator 22.1.0, SVG Export Plug-In . SVG Version: 6.00 Build 0)  -->
<svg version="1.1" id="Layer_1" xmlns="http://www.w3.org/2000/svg" xmlns:xlink="http://www.w3.org/1999/xlink" x="0px" y="0px"
	 viewBox="0 0 833.8 191.3" style="enable-background:new 0 0 833.8 191.3;" xml:space="preserve">
<style type="text/css">
	.st0{fill:#FFFFFF;}
</style>
<g>
	<g>
		<g>
			<path class="st0" d="M89.4,151l-9.9,2.2c-0.8-2.2-2.8-3.3-6.2-3.3c-2.4,0-3.6,0.7-3.6,2c0,1.2,1.1,2,3.4,2.4
				c4.7,0.8,8,1.7,9.9,2.6c1.9,1,3.4,2.2,4.3,3.7c1,1.5,1.5,3.2,1.5,5c0,3.4-1.4,6.2-4.3,8.6c-2.8,2.3-7.2,3.5-13,3.5
				c-4.3,0-8-0.8-11.2-2.5c-3.2-1.7-5.2-4.2-6-7.6l10.6-1.5c0.8,2.4,3.2,3.6,7.1,3.6c1.5,0,2.6-0.2,3.4-0.7c0.7-0.4,1.1-0.9,1.1-1.5
				c0-0.5-0.2-0.9-0.7-1.2c-0.5-0.3-1.7-0.6-3.7-1.1c-3.9-0.9-6.8-1.7-8.4-2.4c-1.7-0.7-3.1-1.8-4.3-3.4s-1.8-3.3-1.8-5.3
				c0-3.5,1.4-6.3,4.1-8.5s6.5-3.3,11.1-3.3c4.3,0,7.9,0.8,10.9,2.5C86.7,146.5,88.6,148.5,89.4,151z"/>
			<path class="st0" d="M161.3,143.2l-16.1,34.2c-2.4,5-4.8,8.2-7.3,9.6c-2.5,1.4-5.4,2-8.9,2c-1.7,0-3.5-0.2-5.3-0.6l0-9.1
				c2.8,0.3,5,0.4,6.3,0.4c3.5,0,5.2-0.9,5.2-2.8c0-0.5-0.1-1.2-0.4-2.2l-8.2-31.6h13.4l2.9,13.6c0.5,2.3,0.8,3.7,0.8,4.3
				c0.2-0.4,0.5-1,0.8-1.7c0.2-0.6,0.5-1.3,0.8-1.9l6.7-14.3H161.3z"/>
			<path class="st0" d="M226.8,151l-9.9,2.2c-0.8-2.2-2.8-3.3-6.2-3.3c-2.4,0-3.6,0.7-3.6,2c0,1.2,1.1,2,3.4,2.4
				c4.7,0.8,8,1.7,9.9,2.6c1.9,1,3.4,2.2,4.3,3.7c1,1.5,1.5,3.2,1.5,5c0,3.4-1.4,6.2-4.3,8.6c-2.8,2.3-7.2,3.5-13,3.5
				c-4.3,0-8-0.8-11.2-2.5c-3.2-1.7-5.2-4.2-6-7.6l10.6-1.5c0.8,2.4,3.2,3.6,7.1,3.6c1.5,0,2.6-0.2,3.4-0.7c0.7-0.4,1.1-0.9,1.1-1.5
				c0-0.5-0.2-0.9-0.7-1.2c-0.5-0.3-1.7-0.6-3.7-1.1c-3.9-0.9-6.8-1.7-8.4-2.4c-1.7-0.7-3.1-1.8-4.3-3.4s-1.8-3.3-1.8-5.3
				c0-3.5,1.4-6.3,4.1-8.5c2.7-2.2,6.5-3.3,11.1-3.3c4.3,0,7.9,0.8,10.9,2.5C224.1,146.5,226,148.5,226.8,151z"/>
			<path class="st0" d="M288.6,143.2l-1.5,8.6h-6.1l-2,12c-0.2,1.2-0.3,1.9-0.3,2.2c0,1.6,1,2.5,3.1,2.5c0.9,0,2-0.1,3.2-0.4
				l-1.5,8.8c-2.4,0.5-4.7,0.8-6.9,0.8c-2.7,0-4.8-0.3-6.1-1c-1.3-0.7-2.4-1.7-3.2-2.9c-0.8-1.3-1.3-2.9-1.3-5
				c0-0.9,0.2-2.5,0.6-4.9l2-12H264l1.4-8.6h4.7l1.9-10l12.3-0.2l-1.7,10.2H288.6z"/>
			<path class="st0" d="M359.4,162.6h-23.3c-0.1,0.9-0.2,1.6-0.2,2c0,1.5,0.5,2.6,1.4,3.5c0.9,0.8,2.1,1.2,3.6,1.2
				c2.7,0,4.7-1.4,5.8-4.3l11.4,1.8c-1.5,3.3-3.8,6-7.1,8c-3.3,2-6.9,3.1-10.9,3.1c-5,0-9.1-1.4-12.2-4.3c-3.1-2.9-4.7-6.8-4.7-11.7
				c0-5.4,1.8-10,5.5-13.8c3.7-3.8,8.5-5.8,14.5-5.8c5.1,0,9.1,1.5,12.1,4.5c3,3,4.5,6.9,4.5,11.9
				C359.8,159.8,359.7,161.1,359.4,162.6z M347.2,156.1c0.1-0.7,0.2-1.2,0.2-1.6c0-1.2-0.4-2.2-1.1-3.1c-0.7-0.9-1.8-1.3-3.1-1.3
				c-1.4,0-2.7,0.5-3.9,1.6c-1.2,1.1-1.9,2.6-2.1,4.5H347.2z"/>
			<path class="st0" d="M402.1,143.2h11.5l-0.9,5.2c2.5-4.1,6-6.2,10.4-6.2c4.2,0,7.1,2.1,8.6,6.2c2.2-4,5.5-6,10.1-6
				c3,0,5.4,0.8,7.2,2.5c1.8,1.7,2.7,3.9,2.7,6.8c0,0.9-0.1,2-0.3,3.3l-3.7,22h-12.8l3.4-20c0.2-1,0.2-1.8,0.2-2.4
				c0-2-0.9-2.9-2.7-2.9c-1.1,0-2,0.4-2.7,1.2c-0.7,0.8-1.3,2.4-1.7,4.7l-3.2,19.3h-12.5l3.4-20c0.2-1.2,0.3-2.1,0.3-2.6
				c0-1-0.3-1.8-0.9-2.2c-0.6-0.4-1.2-0.7-1.8-0.7c-0.6,0-1.4,0.3-2.3,0.8c-0.9,0.5-1.6,2.1-2,4.7l-3.4,20h-12.4L402.1,143.2z"/>
			<path class="st0" d="M523.5,177h-13.2c-0.1-0.6-0.1-1.2-0.1-1.6c0-1.1,0.1-2.5,0.2-4c-2.7,4.2-6.3,6.4-11.1,6.4
				c-3.2,0-5.8-0.9-7.8-2.8c-2-1.8-3-4.2-3-7c0-2.1,0.5-4,1.6-5.7c1.1-1.7,2.6-3.1,4.5-4.1c2-1,4-1.7,6-2c2-0.3,6.1-0.8,12-1.3
				c0.3-0.8,0.4-1.5,0.4-1.9c0-1.9-1.3-2.8-3.9-2.8c-2.5,0-4.4,1.3-5.6,3.8l-11-2.2c2.8-6.3,8.9-9.4,18.4-9.4
				c4.8,0,8.6,0.8,11.3,2.5s4.1,4.1,4.1,7.3c0,1.4-0.8,6.6-2.4,15.4c-0.6,3.3-0.9,5.4-0.9,6.5C523.2,174.9,523.3,175.8,523.5,177z
				 M511.6,160.9c-6.1,0.5-9.2,2.4-9.2,5.9c0,1.9,1,2.8,3,2.8c1.3,0,2.5-0.6,3.8-1.7C510.5,166.8,511.3,164.5,511.6,160.9z"/>
			<path class="st0" d="M589,143.2l-1.5,8.6h-6.1l-2,12c-0.2,1.2-0.3,1.9-0.3,2.2c0,1.6,1,2.5,3.1,2.5c0.9,0,2-0.1,3.2-0.4L584,177
				c-2.4,0.5-4.7,0.8-6.9,0.8c-2.7,0-4.8-0.3-6.1-1c-1.3-0.7-2.4-1.7-3.2-2.9c-0.8-1.3-1.3-2.9-1.3-5c0-0.9,0.2-2.5,0.6-4.9l2-12
				h-4.6l1.4-8.6h4.7l1.9-10l12.3-0.2l-1.7,10.2H589z"/>
			<path class="st0" d="M641.4,143.2l-5.7,33.8h-13.1l5.7-33.8H641.4z M643.6,130.3l-1.7,9.9h-13.1l1.7-9.9H643.6z"/>
			<path class="st0" d="M700,163.9l10.2,2.5c-1.8,4.4-4.2,7.4-7.2,9.1c-3,1.7-6,2.5-9.2,2.5c-4.7,0-8.5-1.5-11.4-4.4
				c-3-3-4.4-6.8-4.4-11.4c0-5.3,1.7-10,5.2-14c3.5-4.1,8.1-6.1,13.9-6.1c4.2,0,7.7,1.3,10.6,3.8c2.9,2.5,4.3,5.7,4.3,9.7l-11.5,1.3
				c0-3.7-1.2-5.5-3.7-5.5c-2.1,0-3.6,1.5-4.5,4.5c-0.9,3-1.3,5.6-1.3,7.8c0,3.3,1.2,5,3.7,5C697.2,168.6,698.9,167,700,163.9z"/>
			<path class="st0" d="M780.7,151l-9.9,2.2c-0.8-2.2-2.8-3.3-6.2-3.3c-2.4,0-3.6,0.7-3.6,2c0,1.2,1.1,2,3.4,2.4
				c4.7,0.8,8,1.7,9.9,2.6c1.9,1,3.4,2.2,4.3,3.7c1,1.5,1.5,3.2,1.5,5c0,3.4-1.4,6.2-4.3,8.6c-2.8,2.3-7.2,3.5-13,3.5
				c-4.3,0-8-0.8-11.2-2.5c-3.2-1.7-5.2-4.2-6-7.6l10.6-1.5c0.8,2.4,3.2,3.6,7.1,3.6c1.5,0,2.6-0.2,3.4-0.7c0.7-0.4,1.1-0.9,1.1-1.5
				c0-0.5-0.2-0.9-0.7-1.2c-0.5-0.3-1.7-0.6-3.7-1.1c-3.9-0.9-6.7-1.7-8.4-2.4c-1.7-0.7-3.1-1.8-4.3-3.4c-1.2-1.5-1.8-3.3-1.8-5.3
				c0-3.5,1.4-6.3,4.1-8.5s6.5-3.3,11.1-3.3c4.3,0,7.9,0.8,10.9,2.5C778,146.5,779.9,148.5,780.7,151z"/>
		</g>
	</g>
	<g>
		<g>
			<path class="st0" d="M98,72.6l24.5,3.1c-2.9,10-7.7,18.2-14.7,24.5c-6.9,6.4-15.7,9.6-26.2,9.6c-11.5,0-20.6-3.9-27.3-11.7
				s-10.1-17.8-10.1-30c0-14.1,4.2-26.5,12.5-37.4C64.9,19.9,76.4,14.5,91,14.5c10.6,0,19.2,3.3,25.8,9.8
				c6.6,6.5,9.9,15.1,10.1,25.8L101,51.9c-0.1-5.6-1-9.8-2.6-12.6c-1.6-2.8-4.4-4.1-8.4-4.1c-6.8,0-11.4,5-13.9,15
				c-2.5,10-3.7,17.9-3.7,23.7c0,9.4,3.7,14,11,14c3.6,0,6.5-1.2,8.8-3.6C94.5,81.9,96.4,78,98,72.6z"/>
			<path class="st0" d="M197.6,40.4l-32.2,68.4c-4.7,10-9.6,16.4-14.5,19.1c-5,2.7-10.9,4.1-17.7,4.1c-3.4,0-7-0.4-10.7-1.1
				l0.1-18.1c5.7,0.6,9.9,0.9,12.7,0.9c6.9,0,10.4-1.9,10.4-5.6c0-0.9-0.3-2.4-0.8-4.4l-16.3-63.3h26.9l5.8,27.1
				c1,4.6,1.6,7.5,1.7,8.7c0.4-0.8,1-2,1.5-3.4c0.4-1.2,1-2.5,1.7-3.9l13.4-28.5H197.6z"/>
			<path class="st0" d="M234.1,16.6l-5.4,32.2c3.5-4.2,6.7-7,9.4-8.3c2.8-1.3,5.9-2,9.3-2c6.5,0,11.7,2.3,15.6,6.9
				c3.9,4.6,5.9,11.4,5.9,20.4c0,11.1-3.1,21.1-9.3,30.1c-6.2,9-14.8,13.5-25.8,13.5c-10.4,0-17.7-4.3-21.8-12.8l-7.6,11.3h-11.7
				L208,16.6H234.1z M222.7,84.2c0,2.5,0.2,4.2,0.5,5.1c0.4,0.9,1.1,1.8,2.3,2.7c1.2,0.8,2.7,1.3,4.5,1.3c2.3,0,4.2-0.7,5.8-2.2
				c1.6-1.5,3.2-4.8,4.7-9.9c1.5-5.1,2.2-10.6,2.2-16.4c0-6.7-2.4-10.1-7.1-10.1c-4.5,0-7.8,3.4-9.8,10.3L222.7,84.2z"/>
			<path class="st0" d="M347.3,79.1h-46.5c-0.2,1.8-0.3,3.2-0.3,4.1c0,3,0.9,5.3,2.8,6.9c1.9,1.7,4.3,2.5,7.2,2.5
				c5.5,0,9.4-2.9,11.6-8.6l22.7,3.7c-2.9,6.6-7.7,12-14.3,16.1c-6.6,4.1-13.9,6.1-21.9,6.1c-10.1,0-18.2-2.9-24.5-8.6
				c-6.3-5.7-9.4-13.5-9.4-23.4c0-10.7,3.7-20,11.1-27.6c7.4-7.7,17.1-11.5,29-11.5c10.1,0,18.2,3,24.2,8.9c6,6,9,13.9,9,23.8
				C348,73.6,347.8,76.2,347.3,79.1z M323,66.1c0.2-1.4,0.3-2.5,0.3-3.2c0-2.4-0.7-4.5-2.2-6.3c-1.5-1.8-3.6-2.7-6.2-2.7
				c-2.9,0-5.4,1.1-7.8,3.2c-2.3,2.2-3.7,5.1-4.3,8.9H323z"/>
			<path class="st0" d="M364.2,40.4h22.5L384,56.6c4.7-12.2,11.9-18.3,21.5-18.3c0.8,0,1.8,0.1,3.1,0.3l-3,24.1
				c-2.3-0.1-3.9-0.2-4.6-0.2c-5.6,0-9.7,1.3-12.3,3.9c-2.6,2.6-4.5,7.2-5.6,13.8l-4.6,27.6h-25.7L364.2,40.4z"/>
			<path class="st0" d="M407.4,107.9l15.2-91.2h37.7c6.9,0,12.5,0.6,16.8,1.8c4.4,1.2,8,3.7,11,7.5c3,3.8,4.4,8.2,4.4,13.3
				c0,5.6-1.8,10.3-5.3,14.2c-3.5,3.9-8.2,6.5-14.2,7.9c10,3.5,15,10.1,15,19.9c0,7.1-2.4,13.3-7.2,18.6c-4.8,5.3-12.8,8-23.9,8
				H407.4z M437.2,87.7h13.6c4.2,0,7.2-0.9,8.8-2.7c1.6-1.8,2.4-3.7,2.4-5.8c0-2.6-0.9-4.7-2.6-6.2c-1.8-1.6-4.4-2.4-7.9-2.4H440
				L437.2,87.7z M443.2,51.4h10.4c8.3,0,12.5-2.8,12.5-8.3c0-4.9-3.3-7.3-9.9-7.3h-10.5L443.2,51.4z"/>
			<path class="st0" d="M532.4,40.4l-11.3,67.5h-26.2l11.3-67.5H532.4z M536.7,14.5l-3.3,19.9h-26.2l3.3-19.9H536.7z"/>
			<path class="st0" d="M570.4,109.9c-9.4,0-17.3-2.8-23.7-8.4c-6.4-5.6-9.6-13.2-9.6-22.9c0-11.6,3.7-21.2,11.1-28.7
				c7.4-7.5,16.8-11.2,28.1-11.2c10.3,0,18.5,2.9,24.6,8.8s9.1,13.1,9.1,21.7c0,12.8-3.9,22.8-11.7,29.9
				C590.5,106.3,581.2,109.9,570.4,109.9z M571.5,93.4c4.7,0,7.9-3.5,9.5-10.4c1.7-7,2.5-12.8,2.5-17.4c0-7.1-2.6-10.7-7.8-10.7
				c-4.6,0-7.8,3.6-9.5,10.7c-1.8,7.1-2.6,12.9-2.6,17.4C563.6,89.9,566.2,93.4,571.5,93.4z"/>
			<path class="st0" d="M626.1,40.4h23.5l-1.8,11c1.8-4.5,4.8-7.8,8.9-9.9c4.1-2.1,8.5-3.1,13.1-3.1c5.7,0,10.4,1.5,14,4.5
				c3.6,3,5.3,7,5.3,12c0,1.9-0.2,4.2-0.7,6.9l-7.7,46.1h-25.7l6.8-40.6c0.4-2.6,0.7-4.3,0.7-5.1c0-3.8-2-5.7-6-5.7
				c-5.4,0-8.7,3.6-9.9,10.8l-6.8,40.6h-25.1L626.1,40.4z"/>
			<path class="st0" d="M732.3,40.4L721,107.9h-26.2l11.3-67.5H732.3z M736.7,14.5l-3.3,19.9h-26.2l3.3-19.9H736.7z"/>
			<path class="st0" d="M781,81.7l20.4,5c-3.7,8.7-8.4,14.8-14.4,18.1c-5.9,3.4-12.1,5-18.4,5c-9.3,0-16.9-3-22.8-8.9
				c-5.9-5.9-8.9-13.5-8.9-22.8c0-10.6,3.5-19.9,10.5-28c7-8.1,16.2-12.2,27.7-12.2c8.3,0,15.4,2.5,21.2,7.5
				c5.8,5,8.7,11.5,8.7,19.4l-22.9,2.7c0-7.3-2.5-11-7.4-11c-4.2,0-7.2,3-9,9c-1.8,6-2.7,11.2-2.7,15.7c0,6.6,2.5,9.9,7.5,9.9
				C775.3,91.2,778.9,88,781,81.7z"/>
		</g>
	</g>
</g>
</svg>
