<?xml version="1.0" encoding="utf-8"?>
<!-- Generator: Adobe Illustrator 17.1.0, SVG Export Plug-In . SVG Version: 6.00 Build 0)  -->
<!DOCTYPE svg PUBLIC "-//W3C//DTD SVG 1.1//EN" "http://www.w3.org/Graphics/SVG/1.1/DTD/svg11.dtd">
<svg version="1.1" id="Layer_1" xmlns="http://www.w3.org/2000/svg" xmlns:xlink="http://www.w3.org/1999/xlink" x="0px" y="0px"
	 viewBox="0.7 141.8 611.3 508.3" enable-background="new 0.7 141.8 611.3 508.3" xml:space="preserve">
<g>
	<path fill="#FFFFFF" d="M255.6,592.8h17v29.7c0,4.2-1.1,7.4-2.1,10.6c-1.1,3.2-3.2,6.4-5.3,8.5c-2.1,2.1-5.3,4.2-8.5,6.4
		c-3.2,1.1-7.4,2.1-10.6,2.1h-12.7c-4.2,0-7.4-1.1-10.6-2.1s-6.4-3.2-8.5-6.4c-2.1-2.1-4.2-5.3-6.4-8.5c-1.1-3.2-2.1-6.4-2.1-10.6
		V521.7c0-4.2,1.1-7.4,2.1-10.6c1.1-3.2,3.2-6.4,6.4-8.5c2.1-2.1,5.3-4.2,8.5-5.3c3.2-1.1,6.4-2.1,10.6-2.1H245
		c4.2,0,7.4,1.1,10.6,2.1c3.2,1.1,6.4,3.2,8.5,5.3c2.1,2.1,4.2,5.3,5.3,8.5c1.1,3.2,2.1,7.4,2.1,10.6v24.4h-17v-24.4
		c0-3.2-1.1-5.3-3.2-7.4c-2.1-2.1-4.2-3.2-7.4-3.2h-10.6c-3.2,0-5.3,1.1-7.4,3.2c-2.1,2.1-3.2,4.2-3.2,7.4v100.8
		c0,3.2,1.1,5.3,3.2,7.4c2.1,2.1,4.2,3.2,7.4,3.2H245c2.1,0,4.2,0,5.3-1.1c1.1,0,2.1-1.1,3.2-2.1c1.1,0,1.1-1.1,1.1-3.2
		c0-1.1,0-3.2,0-4.2L255.6,592.8L255.6,592.8L255.6,592.8z M360.6,496.2V649h-17v-75.3h-31.8V649h-17V496.2h17v59.4h31.8v-59.4
		L360.6,496.2L360.6,496.2z M405.2,647.9h-17V496.2h17V647.9L405.2,647.9z"/>
	<path fill="#FFFFFF" d="M178.2,191.8c-9.5,108.2,35,178.2,43.5,201.5c-36.1,6.4-79.5,17-112.4,35C87,327.6,35,295.8,4.2,242.7
		c-12.7-20.2,11.7-33.9,27.6-41.4c38.2-15.9,87-20.2,131.5-23.3C176.1,178,178.2,183.3,178.2,191.8L178.2,191.8z M461.4,177
		c22.3,23.3,42.4,33.9,72.1,45.6c21.2,8.5,44.5,13.8,66.8,17c11.7,2.1,17,6.4,4.2,18c-63.6,57.3-73.2,100.8-82.7,180.3
		c-31.8-15.9-64.7-27.6-99.7-37.1c25.5-88,30.8-146.4,26.5-215.3C447.6,180.2,448.7,168.5,461.4,177L461.4,177z M218.5,144.1
		c41.4,15.9,110.3,15.9,162.3,8.5c13.8-2.1,21.2,4.2,14.8,17C367,229,374.4,329.8,379.7,392.3c-42.4-6.4-84.9-7.4-127.3-3.2
		c-3.2-79.5-2.1-168.6-44.5-228C196.2,145.2,198.3,137.7,218.5,144.1L218.5,144.1z"/>
</g>
</svg>
