<svg width="215" height="203" viewBox="0 0 215 203" fill="none" xmlns="http://www.w3.org/2000/svg">
<path fill-rule="evenodd" clip-rule="evenodd" d="M5.15068 173.778C6.65297 173.778 7.88698 174.29 8.85273 175.313C9.81849 176.336 10.3014 177.588 10.3014 179.07C10.3014 179.776 10.1672 180.42 9.89897 181.002C9.6307 181.584 9.25513 182.095 8.77226 182.536C8.28938 182.977 7.73497 183.321 7.10901 183.568C6.48306 183.815 5.83029 183.939 5.15068 183.939C3.71993 183.939 2.50381 183.48 1.50228 182.563C0.500756 181.646 0 180.481 0 179.07C0 177.588 0.482872 176.336 1.44863 175.313C2.41439 174.29 3.64839 173.778 5.15068 173.778ZM5.15068 191.049C6.65297 191.049 7.88698 191.56 8.85273 192.583C9.81849 193.606 10.3014 194.859 10.3014 196.341C10.3014 197.046 10.1672 197.69 9.89897 198.272C9.6307 198.854 9.25513 199.366 8.77226 199.807C8.28938 200.248 7.73497 200.592 7.10901 200.839C6.48306 201.086 5.83029 201.209 5.15068 201.209C3.71993 201.209 2.50381 200.751 1.50228 199.833C0.500756 198.916 0 197.752 0 196.341C0 194.859 0.482872 193.606 1.44863 192.583C2.41439 191.56 3.64839 191.049 5.15068 191.049ZM47.489 194.304C47.489 194.304 47.4664 194.891 47.3751 195.177C47.2696 195.508 46.8988 196.156 46.8988 196.156C45.2176 198.555 43.3309 200.293 41.2384 201.369C39.1459 202.445 36.5974 202.983 33.5928 202.983C31.3036 202.983 29.086 202.604 26.9399 201.845C24.7938 201.087 22.8891 200.019 21.2258 198.644C19.5626 197.268 18.2213 195.618 17.2019 193.695C16.1825 191.773 15.6728 189.647 15.6728 187.318C15.6728 184.919 16.1288 182.776 17.0409 180.888C17.953 179.001 19.196 177.396 20.7698 176.073C22.3436 174.75 24.1767 173.744 26.2692 173.056C28.3617 172.368 30.5704 172.077 32.8954 172.077C34.3976 172.077 35.7479 172.112 36.9462 172.289C38.1444 172.465 39.2622 172.765 40.2995 173.188C41.3368 173.612 42.3293 174.185 43.2772 174.908C44.2251 175.632 45.1819 176.522 46.1476 177.581C46.6126 178.251 46.8451 178.939 46.8451 179.645C46.8451 180.633 46.4606 181.462 45.6916 182.132C44.9226 182.802 44.0373 183.138 43.0358 183.138C42.1058 183.138 41.1579 182.732 40.1922 181.92C39.7629 181.568 39.3248 181.197 38.8777 180.809C38.4306 180.421 37.9387 180.059 37.4022 179.724C36.8657 179.389 36.2844 179.116 35.6585 178.904C35.0325 178.692 34.3261 178.586 33.5392 178.586C32.3588 178.586 31.3663 178.833 30.5615 179.327C29.7567 179.821 29.1039 180.465 28.6031 181.259C28.1024 182.053 27.7447 182.961 27.5301 183.984C27.3155 185.007 27.2081 186.048 27.2081 187.107C27.2081 188.2 27.3244 189.276 27.5569 190.335C27.7894 191.393 28.1739 192.337 28.7104 193.166C29.247 193.995 29.9355 194.666 30.7761 195.177C31.6166 195.689 32.6271 195.945 33.8075 195.945C34.809 195.945 35.6048 195.892 36.195 195.786C36.7852 195.68 37.3128 195.486 37.7778 195.204C38.2428 194.921 38.6988 194.542 39.1459 194.066C39.593 193.59 40.1743 192.999 40.8896 192.293C41.7123 191.376 42.6602 190.917 43.7333 190.917C44.7705 190.917 45.6558 191.235 46.3891 191.87C47.1223 192.505 47.489 193.316 47.489 194.304ZM68.2525 202.989C65.9275 203.059 63.7099 202.81 61.5995 202.033C59.4892 201.257 57.6113 200.164 55.966 198.752C54.3206 197.341 53.0151 195.656 52.0493 193.698C51.0835 191.74 50.6007 189.615 50.6007 187.321C50.6007 184.958 51.0835 183.232 52.0493 181.291C53.0151 179.351 54.3117 177.693 55.9391 176.317C57.5666 174.941 59.4445 173.874 61.5727 173.115C63.7009 172.357 65.9275 172.073 68.2525 172.073C70.5775 172.073 72.804 172.357 74.9323 173.115C77.0605 173.874 78.9384 174.941 80.5658 176.317C82.1933 177.693 83.4899 179.351 84.4557 181.291C85.4214 183.232 85.9043 184.958 85.9043 187.321C85.9043 189.615 85.4214 191.74 84.4557 193.698C83.4899 195.656 82.1844 197.341 80.539 198.752C78.8937 200.164 77.0069 201.257 74.8786 202.033C72.7504 202.81 70.5417 203.059 68.2525 202.989ZM68.0383 178.012C66.1783 178.012 64.7207 178.85 63.6656 180.526C62.6104 182.202 62.0828 184.68 62.0828 187.961C62.0828 191.242 62.6104 193.721 63.6656 195.397C64.7207 197.072 66.1783 197.91 68.0383 197.91C69.8983 197.91 71.3558 197.072 72.411 195.397C73.4662 193.721 73.9937 191.242 73.9937 187.961C73.9937 185.915 73.8149 184.248 73.4572 182.96C73.0995 181.672 72.6435 180.658 72.0891 179.917C71.5347 179.176 70.8998 178.673 70.1844 178.409C69.469 178.144 68.7536 178.012 68.0383 178.012ZM111.735 172.062L111.725 158H123.529V199.179C123.529 200.202 123.145 201.093 122.376 201.852C121.606 202.61 120.703 202.989 119.666 202.989H103.463C100.852 202.989 98.6038 202.844 96.7796 202.244C94.9554 201.644 93.5102 200.431 92.3835 199.232C91.2568 198.032 90.4431 195.689 89.9423 193.907C89.4415 192.125 89.1912 190.053 89.1912 187.689C89.1196 184.796 89.4685 182.156 90.3806 180.216C91.2927 178.275 92.6518 176.102 94.315 174.955C95.9783 173.808 97.9455 173.023 100.217 172.6C102.488 172.177 104.949 172.062 107.657 172.062H111.735ZM101.732 187.795C101.732 189.011 101.875 190.114 102.054 191.261C102.232 192.408 102.484 193.54 102.931 194.422C103.378 195.304 103.832 196.354 104.918 197.195C106.003 198.035 106.936 198.334 108.331 198.334H112.14V177.892H107.687C106.328 177.892 105.569 178.075 104.564 178.857C103.559 179.638 103.069 180.709 102.675 181.573C102.282 182.437 102.054 183.464 101.946 184.54C101.839 185.616 101.732 186.579 101.732 187.795ZM140.738 177.903V202.986H128.934V177.903C128.934 177.127 129.095 176.386 129.417 175.68C129.739 174.975 130.168 174.357 130.705 173.828C131.241 173.299 131.867 172.876 132.583 172.558C133.298 172.241 134.049 172.082 134.836 172.082C135.587 172.082 136.321 172.241 137.036 172.558C137.751 172.876 138.395 173.299 138.967 173.828C139.54 174.357 139.987 174.975 140.309 175.68C140.631 176.386 140.774 177.127 140.738 177.903ZM139.666 163.292C139.666 163.998 139.531 164.642 139.263 165.224C138.995 165.806 138.619 166.317 138.136 166.758C137.654 167.199 137.099 167.543 136.473 167.79C135.847 168.037 135.194 168.161 134.515 168.161C133.084 168.161 131.868 167.702 130.866 166.785C129.865 165.868 129.364 164.703 129.364 163.292C129.364 161.81 129.847 160.558 130.813 159.535C131.779 158.512 133.013 158 134.515 158C136.017 158 137.251 158.512 138.217 159.535C139.183 160.558 139.666 161.81 139.666 163.292ZM177.522 194.304C177.522 194.304 177.499 194.891 177.408 195.177C177.303 195.508 176.932 196.156 176.932 196.156C175.251 198.555 173.364 200.293 171.271 201.369C169.179 202.445 166.63 202.983 163.626 202.983C161.337 202.983 159.119 202.604 156.973 201.845C154.827 201.087 152.922 200.019 151.259 198.643C149.595 197.268 148.254 195.618 147.235 193.695C146.215 191.773 145.706 189.647 145.706 187.318C145.706 184.919 146.162 182.776 147.074 180.888C147.986 179.001 149.229 177.396 150.803 176.073C152.377 174.75 154.21 173.744 156.302 173.056C158.395 172.368 160.603 172.054 162.928 172.054C164.431 172.054 165.781 172.112 166.979 172.289C168.177 172.465 169.295 172.765 170.332 173.188C171.37 173.612 172.362 174.185 173.31 174.908C174.258 175.632 175.215 176.522 176.181 177.581C176.646 178.251 176.878 178.939 176.878 179.645C176.878 180.633 176.494 181.462 175.724 182.132C174.955 182.802 174.07 183.138 173.069 183.138C172.139 183.138 171.191 182.732 170.225 181.92C169.796 181.568 169.358 181.197 168.911 180.809C168.463 180.421 167.972 180.059 167.435 179.724C166.899 179.389 166.317 179.116 165.691 178.904C165.065 178.692 164.359 178.586 163.572 178.586C162.392 178.586 161.399 178.833 160.594 179.327C159.79 179.821 159.137 180.465 158.636 181.259C158.135 182.053 157.778 182.961 157.563 183.984C157.348 185.007 157.241 186.048 157.241 187.107C157.241 188.2 157.357 189.276 157.59 190.335C157.822 191.393 158.207 192.337 158.743 193.166C159.28 193.995 159.968 194.666 160.809 195.177C161.65 195.689 162.66 195.944 163.84 195.944C164.842 195.944 165.638 195.892 166.228 195.786C166.818 195.68 167.346 195.486 167.811 195.204C168.276 194.921 168.732 194.542 169.179 194.066C169.626 193.589 170.207 192.999 170.923 192.293C171.745 191.376 172.693 190.917 173.766 190.917C174.803 190.917 175.689 191.235 176.422 191.87C177.155 192.505 177.522 193.316 177.522 194.304ZM205.22 172.073C207.854 172.073 211.198 172.009 212.66 172.436C214.122 172.863 214.639 174.223 214.868 175.187C215.098 176.152 214.958 179.814 214.958 180.728C214.958 180.728 214.958 187.208 214.958 189.985C214.958 192.762 214.958 198.315 214.958 198.315C214.958 199.229 214.958 199.718 214.958 200.062C214.958 200.657 214.958 201.462 214.364 202.092C213.77 202.721 213.391 202.988 211.283 202.988C210.287 202.988 208.623 202.988 207.355 202.988C206.316 202.933 206.067 202.757 205.808 202.621C205.549 202.484 204.739 202.092 204.233 200.405C202.765 202.511 198.647 202.988 195.215 202.988C193.439 202.988 190.937 202.73 188.871 202.092C186.806 201.454 185.432 200.556 184.408 199.627C182.286 197.702 180.564 194.988 180.564 187.946C180.564 180.903 183.286 177.539 185.083 175.697C186.88 173.855 190.675 172.451 193.463 172.258C196.123 172.073 197.348 172.073 205.22 172.073ZM192.283 187.795C192.247 188.888 192.426 190.114 192.605 191.261C192.784 192.408 193.097 193.422 193.544 194.304C193.991 195.186 194.644 195.9 195.502 196.447C196.361 196.994 197.487 197.268 198.882 197.268H203.979V177.892H198.239C196.879 177.892 196.057 178.32 195.161 178.995C194.266 179.67 193.642 180.765 193.249 181.629C192.855 182.494 192.605 183.464 192.498 184.54C192.39 185.616 192.319 186.701 192.283 187.795Z" fill="#ED3E44"/>
<path fill-rule="evenodd" clip-rule="evenodd" d="M141.954 80.7194C138.079 81.0904 134.38 82.9659 132.347 84.2088C130.314 85.4516 128.76 86.7884 126.876 87.556C124.992 88.3236 122.235 89.269 121.165 89.4492C120.095 89.6294 116.822 89.9103 115.199 89.9103C113.577 89.9103 109.868 89.2246 109.221 89.0021C108.573 88.7796 105.401 87.7325 104.341 87.0886C103.28 86.4446 101.106 85.3963 99.2981 83.7327C97.4903 82.069 95.8909 80.6478 94.5271 78.4134C93.1632 76.179 92.0253 74.311 91.3179 71.7601C90.6106 69.2091 90.0169 67.7967 90.1304 63.1819C90.244 58.5671 90.8611 57.1237 91.2269 55.8947C91.5927 54.6658 92.5432 52.7395 92.8306 52.2023C93.1181 51.665 94.2205 49.7656 94.2205 49.7656L92.4707 51.9102C92.4707 51.9102 92.0956 52.3312 91.3179 54.0134C90.5403 55.6956 89.8436 57.2502 89.0876 59.1579C88.3316 61.0656 87.3945 64.429 87.0566 66.3359C86.7187 68.2427 86.2959 71.2445 86.2959 73.0656C86.2959 74.8867 86.6792 79.7102 86.6792 80.7194C86.6792 81.7285 87.525 85.351 87.8007 86.3025C88.0764 87.254 89.0017 90.1055 89.3974 91.1692C89.7931 92.2329 91.7602 96.4332 91.9848 96.7432C92.2094 97.0532 94.7748 101.082 95.4312 101.941C96.0875 102.801 98.4491 105.502 99.2981 106.368C100.147 107.234 104.336 110.789 105.116 111.382C105.895 111.974 108.636 113.637 109.372 114.066C110.108 114.494 111.702 115.177 113.105 115.888C114.509 116.598 115.766 116.994 116.761 117.364C117.757 117.734 120.074 118.383 121.761 118.695C123.448 119.007 127.069 119.75 128.791 119.75C130.512 119.75 134.606 119.783 136.58 119.54C138.553 119.296 142.883 118.491 143.807 118.18C144.732 117.868 148.847 116.489 149.743 116.064C150.639 115.64 154.955 113.298 156.127 112.649C157.298 112 160.315 109.848 160.596 109.644C160.877 109.441 161.672 108.793 162.157 108.007C162.643 107.22 163.49 105.735 163.586 103.545C163.643 102.231 163.65 100.832 163.431 99.0607C163.065 96.0936 161.926 92.5123 159.987 89.4492C158.491 87.0856 156.765 85.1943 154.58 83.7327C149.561 80.3767 145.829 80.3483 141.954 80.7194Z" fill="url(#paint0_linear)"/>
<path fill-rule="evenodd" clip-rule="evenodd" d="M134.729 45.2121C134.729 45.2121 133.989 44.3622 133.666 44.007C133.069 43.3508 132.578 42.8518 132.202 42.4851C131.308 41.6132 130.285 40.6905 129.376 39.9201C128.466 39.1498 126.535 37.6493 124.521 36.3832C122.508 35.1171 119.363 33.4452 117.802 32.8526C116.417 32.3269 114.617 31.6569 112.698 31.1075C110.74 30.5469 108.659 30.11 106.916 29.881C105.226 29.6338 103.027 29.381 100.1 29.4191C97.2062 29.4191 94.6934 29.7175 92.9177 30.0344C91.9769 30.2023 89.5448 30.6343 86.8824 31.4732C84.2199 32.3121 81.9604 33.2559 80.472 34.0261C78.8779 34.8511 76.6 36.0693 74.4302 37.5904C72.2605 39.1115 70.3305 40.8027 69.2905 41.8173C68.3286 42.7558 66.465 44.5978 64.7777 46.7312C62.7896 49.2449 60.9654 52.3031 60.3986 53.5003C59.898 54.5576 58.7711 56.7119 57.9232 59.133C57.0753 61.5541 56.3841 64.2224 56.0916 65.6076C55.7991 66.9928 55.4453 69.7491 55.3697 70.8724C55.2941 71.9957 55.204 73.8061 55.1987 74.8971C55.1907 76.5449 55.2876 77.9678 55.3697 78.7834C55.4106 79.1895 55.8964 82.8614 56.0916 83.81C56.2868 84.7586 56.8468 87.0994 57.4405 88.7193C57.6839 89.3836 58.0993 90.8379 58.7983 92.4426C59.8039 94.7508 61.2961 97.4349 62.9568 99.9574C65.7721 104.234 70.5264 109.245 72.9413 111.36C74.1425 112.412 76.0789 114.219 78.9627 116.214C81.8465 118.21 84.5601 119.826 87.3963 121.259C90.2325 122.691 92.6754 123.743 96.3911 124.959C100.107 126.174 103.505 126.863 107.32 127.418C109.237 127.696 111.796 128 115.343 128C118.89 128 123.085 127.618 125.671 127.253C126.914 127.077 129.659 126.625 133.25 125.601C136.841 124.576 139.973 123.347 141.263 122.774C142.443 122.251 145.173 121.037 147.443 119.721C149.713 118.406 152.778 116.376 153.792 115.583C154.763 114.822 156.569 113.561 158.902 111.435C159.681 110.725 161.59 108.768 161.59 108.768C161.59 108.768 157.909 111.602 154.777 113.302C151.645 115.001 146.824 117.065 143.805 117.902C140.786 118.738 137.149 119.441 132.586 119.559C129.968 119.627 126.395 119.345 124.219 118.989C122.044 118.634 119.893 118.088 117.872 117.464C115.331 116.679 112.748 115.474 110.318 114.258C108.21 113.203 106.502 111.908 104.797 110.761C104.063 110.268 102.381 108.87 100.516 107.171C99.0688 105.853 97.6559 104.223 96.4437 102.73C95.5838 101.67 94.8067 100.629 94.2732 99.7546C92.8211 97.3759 90.9177 94.3427 89.6337 90.9449C88.9286 89.079 88.2707 87.2349 87.8522 85.3287C87.3841 83.1964 86.9178 80.5846 86.6594 77.3627C86.5 75.3738 86.5969 73.1434 86.7502 70.6722C86.919 67.9522 87.3089 65.7922 88.1603 62.6576C89.0117 59.523 90.0571 57.1173 90.5077 56.1827C90.7386 55.7037 91.9532 53.3276 93.3888 51.05C94.8245 48.7724 96.2182 46.9766 96.9281 46.2767C97.6975 45.5181 99.2912 43.832 101.173 42.5395C103.054 41.247 105.124 40.1639 106.566 39.6161C109.518 38.4942 113.649 37.5904 117.4 37.8751C119.423 38.0286 121.23 38.2177 123.225 38.8271C123.938 39.0452 124.618 39.2547 125.228 39.4819C126.321 39.8897 127.197 40.3043 127.713 40.5704C128.516 40.9848 129.74 41.6166 131.126 42.6139C131.824 43.1163 132.51 43.6573 133.329 44.3587C133.672 44.6527 134.485 45.4393 134.485 45.4393L134.729 45.2121Z" fill="url(#paint1_linear)"/>
<path fill-rule="evenodd" clip-rule="evenodd" d="M134.824 45.8508C138.718 48.798 146.68 48.2635 151.6 46.4341C156.521 44.6046 160.154 41.0864 162.477 36.3655C164.8 31.6446 164.379 24.2999 161.806 20.4442C159.234 16.5884 156.999 14.8273 154.104 12.6841C150.232 9.81908 146.17 7.43523 141.933 5.55287C137.758 3.85097 133.507 2.28759 129.174 1.40094C123.33 0.205342 117.726 -0.324552 110.979 0.205342C99.2089 1.12973 89.7704 5.30211 84.6897 8.1714C79.609 11.0407 71.6104 16.5255 64.9649 25.419C63.1656 27.8268 61.5783 30.1333 60.1684 32.6912C59.2581 34.3428 58.5535 35.7426 57.5796 37.8983C55.5811 42.3216 53.7704 48.0182 52.7768 53.776C52.2176 57.0159 52.1285 59.7945 52.0385 62.2938C51.8349 67.9457 52.484 72.0463 52.9446 74.882C53.6055 78.9509 54.3719 81.9254 55.9274 86.1793C57.3221 89.9937 59.0901 93.4558 59.8238 94.5948C59.558 93.4442 57.7662 89.5459 56.5769 84.5417C55.8683 81.5599 55.4701 78.0319 55.4701 74.882C55.4701 70.7582 55.796 65.7475 57.9453 59.98C60.0946 54.2124 61.811 51.0944 64.9649 47.0658C66.6486 44.9151 68.9218 42.4548 71.3201 40.3719C73.5619 38.4248 75.9176 36.8206 77.8782 35.7426C82.3256 33.2971 86.3783 31.7342 89.4894 31.0217C91.7534 30.5031 94.1442 30.0426 96.6075 29.8779C101.526 29.5489 107.497 29.9473 111.276 31.0217C115.056 32.096 116.552 32.534 118.683 33.5575C122.191 35.2421 124.725 36.8471 126.965 38.4787C128.408 39.5297 129.897 40.9387 131.024 42.12C132.151 43.3012 132.4 43.9164 134.824 45.8508Z" fill="url(#paint2_linear)"/>
<defs>
<linearGradient id="paint0_linear" x1="147.401" y1="67.8853" x2="90.4519" y2="67.8853" gradientUnits="userSpaceOnUse">
<stop stop-color="#F87179"/>
<stop offset="1" stop-color="#BD1010"/>
</linearGradient>
<linearGradient id="paint1_linear" x1="56.0902" y1="31.0682" x2="56.0902" y2="128" gradientUnits="userSpaceOnUse">
<stop stop-color="#BF0404"/>
<stop offset="1" stop-color="#EA5151"/>
</linearGradient>
<linearGradient id="paint2_linear" x1="150.66" y1="-7.02286" x2="60.8664" y2="-7.02286" gradientUnits="userSpaceOnUse">
<stop stop-color="#F77279"/>
<stop offset="1" stop-color="#ED3E44"/>
</linearGradient>
</defs>
</svg>
