<?xml version="1.0" encoding="utf-8"?>
<!-- Generator: Adobe Illustrator 20.1.0, SVG Export Plug-In . SVG Version: 6.00 Build 0)  -->
<svg version="1.1" id="Слой_1" xmlns="http://www.w3.org/2000/svg" xmlns:xlink="http://www.w3.org/1999/xlink" x="0px" y="0px"
	 viewBox="0 0 97 42" enable-background="new 0 0 97 42" xml:space="preserve">
<path fill="#ffffff" d="M21.5,36c-5,0-9.2-1.8-12-4.8l0,0c-1.1-0.6-1.9-1.8-2.2-3.1l0,0c-1.1-2.1-1.7-4.5-1.7-7c0-8.3,6.6-15,14.9-15
	c4.2,0,8,1.8,10.7,4.6l-0.1-0.1l0.1,0.1c0.2,0.2,0.4,0.3,0.5,0.5l2.2,3l3-2.1c-3.2-5.8-9.4-9.8-16.5-9.8C10.2,2.3,1.8,10.7,1.8,21
	c0,10.3,8,18.7,19.7,18.7c6.3,0,12.1-3.1,15.7-8.4l-3-2.2C31.3,33.6,26.5,36,21.5,36z"/>
<g>
	<path fill="#ffffff" d="M48.7,15.4c-1.9,0-3.4-0.6-4.5-1.8c-1.1-1.2-1.6-2.8-1.6-4.7V8.4c0-1.9,0.5-3.5,1.6-4.8c1.1-1.3,2.5-1.9,4.2-1.9
		c1.8,0,3.1,0.5,4,1.6s1.4,2.5,1.4,4.4v1.6h-8.1l0,0.1c0,1.1,0.3,2,0.8,2.6c0.5,0.7,1.3,1,2.4,1c0.8,0,1.5-0.1,2.1-0.3
		s1.1-0.5,1.6-0.8l1,1.9c-0.5,0.4-1.2,0.8-2,1.1S49.7,15.4,48.7,15.4z M48.3,4.1c-0.8,0-1.4,0.3-1.8,0.8c-0.5,0.6-0.7,1.3-0.9,2.2
		l0,0.1h5.1V6.9c0-0.8-0.2-1.5-0.6-2S49.2,4.1,48.3,4.1z"/>
	<path fill="#ffffff" d="M64,15.1c-0.1-0.3-0.2-0.7-0.3-1c-0.1-0.3-0.1-0.6-0.1-0.9c-0.4,0.6-0.9,1.1-1.6,1.5s-1.4,0.6-2.2,0.6
		c-1.4,0-2.4-0.4-3.2-1.1c-0.7-0.7-1.1-1.7-1.1-2.9c0-1.3,0.5-2.3,1.5-3c1-0.7,2.4-1.1,4.2-1.1h2.3V6.2c0-0.7-0.2-1.2-0.6-1.6
		C62.6,4.2,62,4,61.2,4c-0.7,0-1.2,0.2-1.6,0.5C59.2,4.8,59,5.2,59,5.7l-2.8,0l0-0.1c-0.1-1,0.4-2,1.4-2.8c1-0.8,2.3-1.2,3.8-1.2
		c1.5,0,2.8,0.4,3.7,1.2c0.9,0.8,1.4,1.9,1.4,3.3v5.8c0,0.5,0,1.1,0.1,1.6c0.1,0.5,0.2,1,0.4,1.5H64z M60.4,13c0.7,0,1.4-0.2,2-0.6
		c0.6-0.4,1-0.8,1.2-1.3V9.2h-2.3c-0.9,0-1.5,0.2-2,0.6c-0.5,0.4-0.7,0.9-0.7,1.5c0,0.5,0.2,0.9,0.5,1.2C59.3,12.8,59.8,13,60.4,13z
		"/>
	<path fill="#ffffff" d="M77,11.5c0-0.5-0.2-0.8-0.6-1.1s-1.1-0.6-2.2-0.8c-1.5-0.3-2.7-0.8-3.5-1.4c-0.8-0.6-1.2-1.4-1.2-2.5c0-1.1,0.5-2,1.4-2.8
		s2.2-1.2,3.7-1.2c1.6,0,2.8,0.4,3.8,1.2s1.4,1.8,1.4,2.9l0,0.1h-2.8c0-0.5-0.2-1-0.6-1.4c-0.4-0.4-1-0.6-1.7-0.6
		c-0.7,0-1.3,0.2-1.6,0.5s-0.6,0.7-0.6,1.2c0,0.4,0.2,0.8,0.5,1.1s1.1,0.5,2.1,0.7c1.6,0.3,2.8,0.8,3.6,1.4c0.8,0.6,1.2,1.5,1.2,2.5
		c0,1.2-0.5,2.1-1.5,2.9c-1,0.7-2.3,1.1-3.9,1.1c-1.7,0-3.1-0.4-4-1.3c-1-0.9-1.5-1.9-1.4-3l0-0.1h2.7c0,0.8,0.3,1.3,0.8,1.7
		c0.5,0.3,1.1,0.5,1.9,0.5c0.8,0,1.3-0.1,1.8-0.4C76.8,12.4,77,12,77,11.5z"/>
	<path fill="#ffffff" d="M86.9,9.8l0.3,1.3h0.1L90.1,2h3.2l-5.4,15.1c-0.3,0.9-0.8,1.7-1.5,2.3c-0.6,0.6-1.5,1-2.7,1c-0.2,0-0.5,0-0.8-0.1
		c-0.3,0-0.5-0.1-0.8-0.2l0.3-2.3c0.1,0,0.3,0,0.4,0c0.2,0,0.3,0,0.4,0c0.5,0,1-0.2,1.3-0.5c0.3-0.4,0.6-0.8,0.8-1.3l0.5-1.2L81.2,2
		h3.2L86.9,9.8z"/>
</g>
<g>
	<path fill="#ffffff" d="M49.4,34c0.7,0,1.2-0.2,1.7-0.6s0.7-0.9,0.7-1.6h2.6l0,0.1c0,1.2-0.4,2.2-1.4,3.1c-1,0.9-2.2,1.3-3.6,1.3
		c-1.9,0-3.3-0.6-4.3-1.8c-1-1.2-1.5-2.8-1.5-4.6v-0.4c0-1.9,0.5-3.4,1.5-4.6c1-1.2,2.4-1.8,4.3-1.8c1.5,0,2.7,0.5,3.7,1.4
		c0.9,0.9,1.4,2,1.4,3.4l0,0.1h-2.6c0-0.7-0.2-1.3-0.7-1.8c-0.4-0.5-1-0.7-1.7-0.7c-1,0-1.8,0.4-2.2,1.2c-0.5,0.8-0.7,1.8-0.7,3v0.4
		c0,1.2,0.2,2.2,0.7,3C47.6,33.6,48.3,34,49.4,34z"/>
	<path fill="#ffffff" d="M56.2,29.5c0-1.9,0.5-3.5,1.6-4.7c1.1-1.2,2.5-1.8,4.3-1.8c1.8,0,3.3,0.6,4.4,1.8c1.1,1.2,1.6,2.8,1.6,4.7v0.3
		c0,1.9-0.5,3.5-1.6,4.7c-1.1,1.2-2.5,1.8-4.3,1.8c-1.8,0-3.3-0.6-4.3-1.8c-1.1-1.2-1.6-2.8-1.6-4.7V29.5z M59.1,29.7
		c0,1.3,0.2,2.3,0.7,3.1c0.5,0.8,1.3,1.2,2.3,1.2c1,0,1.8-0.4,2.3-1.2s0.8-1.8,0.8-3.1v-0.3c0-1.2-0.3-2.2-0.8-3s-1.3-1.2-2.3-1.2
		c-1,0-1.8,0.4-2.3,1.2c-0.5,0.8-0.7,1.8-0.7,3V29.7z"/>
	<path fill="#ffffff" d="M70.1,29.8c0-2.1,0.4-3.7,1.3-5s2.1-1.9,3.7-1.9c0.7,0,1.3,0.1,1.9,0.4c0.6,0.3,1,0.7,1.4,1.2v-7.1h2.9V36H79l-0.3-1.6
		c-0.4,0.6-0.9,1.1-1.5,1.4c-0.6,0.3-1.3,0.5-2,0.5c-1.6,0-2.8-0.6-3.7-1.7c-0.9-1.2-1.3-2.7-1.3-4.5V29.8z M73,30
		c0,1.2,0.2,2.1,0.7,2.8c0.5,0.7,1.2,1.1,2.2,1.1c0.6,0,1.1-0.1,1.6-0.4c0.4-0.3,0.8-0.6,1-1.1v-5.6c-0.3-0.5-0.6-0.8-1-1.1
		c-0.4-0.3-0.9-0.4-1.5-0.4c-1,0-1.7,0.4-2.2,1.2c-0.5,0.8-0.7,1.9-0.7,3.2V30z"/>
	<path fill="#FDD835" d="M89.9,36.3c-1.9,0-3.4-0.6-4.4-1.8c-1.1-1.2-1.6-2.7-1.6-4.6v-0.5c0-1.9,0.5-3.4,1.6-4.7
		c1.1-1.2,2.4-1.8,4.1-1.8c1.7,0,3,0.5,3.9,1.6c0.9,1.1,1.3,2.5,1.3,4.3v1.6h-8l0,0.1c0,1.1,0.3,1.9,0.8,2.6c0.5,0.7,1.3,1,2.4,1
		c0.8,0,1.5-0.1,2-0.3s1.1-0.5,1.6-0.8l0.9,1.9c-0.5,0.4-1.1,0.8-2,1.1S90.9,36.3,89.9,36.3z M89.6,25.2c-0.8,0-1.4,0.3-1.8,0.8
		c-0.5,0.5-0.7,1.3-0.8,2.1l0,0.1h5V28c0-0.8-0.2-1.5-0.6-2C91,25.5,90.4,25.2,89.6,25.2z"/>
</g>
<rect fill="#ffffff" x="70" y="37.5" width="11.8" height="2.6"/>
<g>
	<path fill="#FDD835" d="M36.7,30.9l3.1,2.3c-3.7,5.3-9,7.9-15.3,7.9c-11.8,0-19.7-8.3-19.7-18.6c0-10.3,8.4-18.6,18.8-18.6
		c7.1,0,13.3,3.9,16.5,9.7l-27.6,19c2.7,3,7,4.8,12,4.8C29.5,37.4,33.8,35.4,36.7,30.9z M10.3,29.4l24.4-16.8
		C32.1,9.5,28,7.5,23.5,7.5c-8.3,0-14.9,6.7-14.9,14.9C8.6,25,9.2,27.4,10.3,29.4z"/>
</g>
<path fill="none" d="M39.7,19.2C39.7,19.2,39.7,19.2,39.7,19.2L39.7,19.2L39.7,19.2z"/>
<path fill="none" d="M39.7,19.1c-0.3-0.3-0.7-0.5-1.2-0.5c-1,0-1.7,0.8-1.7,1.7c0,0.3,0.1,0.6,0.2,0.8l0,0c0,0,0-0.1,0-0.1
	c0,0,0,0.1,0,0.1L39.7,19.1L39.7,19.1z"/>
</svg>
