<?xml version="1.0" encoding="utf-8"?>
<!-- Generator: Adobe Illustrator 22.1.0, SVG Export Plug-In . SVG Version: 6.00 Build 0)  -->
<svg version="1.1" id="Слой_1" xmlns="http://www.w3.org/2000/svg" xmlns:xlink="http://www.w3.org/1999/xlink" x="0px" y="0px"
	 viewBox="0 0 1200 177" style="enable-background:new 0 0 1200 177;" xml:space="preserve">
<style type="text/css">
	.st0{fill:#FFFFFF;}
	.st1{fill:url(#SVGID_1_);}
	.st2{fill:url(#SVGID_2_);}
	.st3{fill:url(#SVGID_3_);}
	.st4{fill:url(#SVGID_4_);}
	.st5{fill:url(#SVGID_5_);}
	.st6{fill:url(#SVGID_6_);}
	.st7{fill:url(#SVGID_7_);}
	.st8{fill:url(#SVGID_8_);}
	.st9{fill:url(#SVGID_9_);}
</style>
<g>
	<g>
		<path class="st0" d="M36.1,97.1c0,27,21.4,49.8,47.1,49.8c15.7,0,35.6-4.9,44.4-29.1H86.5V91.3h79.6v5.4
			c0,45.4-36.8,82.2-82.9,82.2C37.5,178.9,0,141.8,0,96.7c0-45.1,37.5-82.2,83.2-82.2c35.6,0,67.7,23,78.9,56.2h-39.2
			c-7.8-16.9-24-23.3-39.7-23.3C57.5,47.3,36.1,70.1,36.1,97.1z"/>
		<path class="st0" d="M188.7,176.6V0.3h35.6v176.2H188.7z"/>
		<path class="st0" d="M366.4,124.9c0,33.1-26.4,53.8-59.6,53.8c-33.5,0-59.9-20.7-59.9-53.8c0-32.4,27.1-54,59.9-54
			C339.3,70.8,366.4,92.4,366.4,124.9z M331,125.1c0-12.9-5.7-26.8-24.2-26.8c-18.8,0-24.5,13.9-24.5,26.8c0,13.2,5.2,27,24.5,27
			C325.8,152.1,331,138.3,331,125.1z"/>
		<path class="st0" d="M389,176.6V0.3h35.6v85.3c9.3-11.3,22.3-15,35.9-15c29.7,0,52,25.6,52,54.3c0,28.7-22.3,54-52,54
			c-13.5,0-28.8-4.2-35.9-14.8v12.5H389z M449.6,150.7c14.3,0,25-12.2,25-25.8c0-13.6-10.7-25.9-25-25.9s-25,12.2-25,25.9
			C424.6,138.5,435.3,150.7,449.6,150.7z"/>
		<path class="st0" d="M652.8,176.6h-35.6v-12.5c-7.1,10.6-22.6,14.8-35.9,14.8c-29.7,0-52-25.4-52-54c0-28.7,22.3-54.3,52-54.3
			c13.3,0,26.6,3.8,35.9,15V73.2h35.6V176.6z M592.2,99c-14.3,0-25,12.2-25,25.9c0,13.6,10.7,25.8,25,25.8s25-12.2,25-25.8
			C617.1,111.2,606.4,99,592.2,99z"/>
		<path class="st0" d="M681.3,176.6V0.3h35.6v176.2H681.3z"/>
		<path class="st0" d="M901.8,122.3c-10.9,32.9-42.3,56.6-79.1,56.6c-45.9,0-83.2-36.9-83.2-82.2c0-45.4,37.3-82.2,83.2-82.2
			c36.8,0,68,23.5,78.9,56.2h-39.7c-6.7-14.3-22.8-23.3-39.2-23.3c-26.1,0-47.1,22.3-47.1,49.3c0,27.3,20.9,49.3,47.1,49.3
			c16.6,0,32.8-9.6,39.4-23.7H901.8z"/>
		<path class="st0" d="M1013.5,132.9c0-31-93.4-11-93.4-70c0-32.9,30.9-48.4,60.4-48.4c33.3,0,63.2,14.6,64.4,51h-34.5
			c-1.9-16.7-11.6-22.1-29.5-22.1c-10,0-24,4.7-24,16.7c0,28.4,93.4,8,93.4,68.9c0,37.6-34,51.5-67,51.5
			c-35.6,0-68.2-17.4-68.4-56.4H951c1,19,16.2,27.7,33.7,27.7C995.9,151.7,1013.5,147.2,1013.5,132.9z"/>
		<path class="st0" d="M1163.2,132.9c0-31-93.4-11-93.4-70c0-32.9,30.9-48.4,60.4-48.4c33.3,0,63.2,14.6,64.4,51h-34.5
			c-1.9-16.7-11.6-22.1-29.5-22.1c-10,0-24,4.7-24,16.7c0,28.4,93.4,8,93.4,68.9c0,37.6-34,51.5-67,51.5
			c-35.6,0-68.2-17.4-68.4-56.4h36.1c1,19,16.2,27.7,33.7,27.7C1145.6,151.7,1163.2,147.2,1163.2,132.9z"/>
	</g>
	<g>
		<linearGradient id="SVGID_1_" gradientUnits="userSpaceOnUse" x1="0" y1="90.3315" x2="1200" y2="90.3315">
			<stop  offset="0" style="stop-color:#B71C1C"/>
			<stop  offset="1" style="stop-color:#E53935"/>
		</linearGradient>
		<path class="st1" d="M36.1,97.1c0,27,21.4,49.8,47.1,49.8c15.7,0,35.6-4.9,44.4-29.1H86.5V91.3h79.6v5.4
			c0,45.4-36.8,82.2-82.9,82.2C37.5,178.9,0,141.8,0,96.7c0-45.1,37.5-82.2,83.2-82.2c35.6,0,67.7,23,78.9,56.2h-39.2
			c-7.8-16.9-24-23.3-39.7-23.3C57.5,47.3,36.1,70.1,36.1,97.1z"/>
		<linearGradient id="SVGID_2_" gradientUnits="userSpaceOnUse" x1="0" y1="90.3315" x2="1200" y2="90.3315">
			<stop  offset="0" style="stop-color:#B71C1C"/>
			<stop  offset="1" style="stop-color:#E53935"/>
		</linearGradient>
		<path class="st2" d="M188.7,176.6V0.3h35.6v176.2H188.7z"/>
		<linearGradient id="SVGID_3_" gradientUnits="userSpaceOnUse" x1="0" y1="90.3315" x2="1200" y2="90.3315">
			<stop  offset="0" style="stop-color:#B71C1C"/>
			<stop  offset="1" style="stop-color:#E53935"/>
		</linearGradient>
		<path class="st3" d="M366.4,124.9c0,33.1-26.4,53.8-59.6,53.8c-33.5,0-59.9-20.7-59.9-53.8c0-32.4,27.1-54,59.9-54
			C339.3,70.8,366.4,92.4,366.4,124.9z M331,125.1c0-12.9-5.7-26.8-24.2-26.8c-18.8,0-24.5,13.9-24.5,26.8c0,13.2,5.2,27,24.5,27
			C325.8,152.1,331,138.3,331,125.1z"/>
		<linearGradient id="SVGID_4_" gradientUnits="userSpaceOnUse" x1="0" y1="90.3315" x2="1200" y2="90.3315">
			<stop  offset="0" style="stop-color:#B71C1C"/>
			<stop  offset="1" style="stop-color:#E53935"/>
		</linearGradient>
		<path class="st4" d="M389,176.6V0.3h35.6v85.3c9.3-11.3,22.3-15,35.9-15c29.7,0,52,25.6,52,54.3c0,28.7-22.3,54-52,54
			c-13.5,0-28.8-4.2-35.9-14.8v12.5H389z M449.6,150.7c14.3,0,25-12.2,25-25.8c0-13.6-10.7-25.9-25-25.9s-25,12.2-25,25.9
			C424.6,138.5,435.3,150.7,449.6,150.7z"/>
		<linearGradient id="SVGID_5_" gradientUnits="userSpaceOnUse" x1="0" y1="90.3315" x2="1200" y2="90.3315">
			<stop  offset="0" style="stop-color:#B71C1C"/>
			<stop  offset="1" style="stop-color:#E53935"/>
		</linearGradient>
		<path class="st5" d="M652.8,176.6h-35.6v-12.5c-7.1,10.6-22.6,14.8-35.9,14.8c-29.7,0-52-25.4-52-54c0-28.7,22.3-54.3,52-54.3
			c13.3,0,26.6,3.8,35.9,15V73.2h35.6V176.6z M592.2,99c-14.3,0-25,12.2-25,25.9c0,13.6,10.7,25.8,25,25.8s25-12.2,25-25.8
			C617.1,111.2,606.4,99,592.2,99z"/>
		<linearGradient id="SVGID_6_" gradientUnits="userSpaceOnUse" x1="0" y1="90.3315" x2="1200" y2="90.3315">
			<stop  offset="0" style="stop-color:#B71C1C"/>
			<stop  offset="1" style="stop-color:#E53935"/>
		</linearGradient>
		<path class="st6" d="M681.3,176.6V0.3h35.6v176.2H681.3z"/>
		<linearGradient id="SVGID_7_" gradientUnits="userSpaceOnUse" x1="0" y1="90.3315" x2="1200" y2="90.3315">
			<stop  offset="0" style="stop-color:#B71C1C"/>
			<stop  offset="1" style="stop-color:#E53935"/>
		</linearGradient>
		<path class="st7" d="M901.8,122.3c-10.9,32.9-42.3,56.6-79.1,56.6c-45.9,0-83.2-36.9-83.2-82.2c0-45.4,37.3-82.2,83.2-82.2
			c36.8,0,68,23.5,78.9,56.2h-39.7c-6.7-14.3-22.8-23.3-39.2-23.3c-26.1,0-47.1,22.3-47.1,49.3c0,27.3,20.9,49.3,47.1,49.3
			c16.6,0,32.8-9.6,39.4-23.7H901.8z"/>
		<linearGradient id="SVGID_8_" gradientUnits="userSpaceOnUse" x1="0" y1="90.3315" x2="1200" y2="90.3315">
			<stop  offset="0" style="stop-color:#B71C1C"/>
			<stop  offset="1" style="stop-color:#E53935"/>
		</linearGradient>
		<path class="st8" d="M1013.5,132.9c0-31-93.4-11-93.4-70c0-32.9,30.9-48.4,60.4-48.4c33.3,0,63.2,14.6,64.4,51h-34.5
			c-1.9-16.7-11.6-22.1-29.5-22.1c-10,0-24,4.7-24,16.7c0,28.4,93.4,8,93.4,68.9c0,37.6-34,51.5-67,51.5
			c-35.6,0-68.2-17.4-68.4-56.4H951c1,19,16.2,27.7,33.7,27.7C995.9,151.7,1013.5,147.2,1013.5,132.9z"/>
		<linearGradient id="SVGID_9_" gradientUnits="userSpaceOnUse" x1="0" y1="90.3315" x2="1200" y2="90.3315">
			<stop  offset="0" style="stop-color:#B71C1C"/>
			<stop  offset="1" style="stop-color:#E53935"/>
		</linearGradient>
		<path class="st9" d="M1163.2,132.9c0-31-93.4-11-93.4-70c0-32.9,30.9-48.4,60.4-48.4c33.3,0,63.2,14.6,64.4,51h-34.5
			c-1.9-16.7-11.6-22.1-29.5-22.1c-10,0-24,4.7-24,16.7c0,28.4,93.4,8,93.4,68.9c0,37.6-34,51.5-67,51.5
			c-35.6,0-68.2-17.4-68.4-56.4h36.1c1,19,16.2,27.7,33.7,27.7C1145.6,151.7,1163.2,147.2,1163.2,132.9z"/>
	</g>
</g>
</svg>
