<?xml version="1.0" encoding="UTF-8"?> <svg xmlns="http://www.w3.org/2000/svg" xmlns:xlink="http://www.w3.org/1999/xlink" width="171px" height="44px" viewBox="0 0 171 44"> <!-- Generator: Sketch 51.2 (57519) - http://www.bohemiancoding.com/sketch --> <title>Page 1</title> <desc>Created with Sketch.</desc> <defs></defs> <g id="Page-1" stroke="none" stroke-width="1" fill="none" fill-rule="evenodd"> <g id="2-copy-2" transform="translate(-83.000000, -44.000000)" fill="#FFFFFF"> <g id="1" transform="translate(41.000000, 28.000000)"> <g id="Паттерн"> <g id="Page-1" transform="translate(42.000000, 16.000000)"> <path d="M0.0190224095,0.00654253015 L0.0190224095,43.3107176 L42.3529875,43.3107176 L43.3262168,43.3107176 L84.6859461,43.3107176 L85.6571625,43.3107176 L127.018905,43.3107176 L127.991128,43.3107176 L170.325093,43.3107176 L170.325093,0.00654253015 L0.0190224095,0.00654253015 Z M127.991128,42.3395011 L169.35287,42.3395011 L169.35287,0.978765392 L127.991128,0.978765392 L127.991128,42.3395011 Z M85.6571625,42.3395011 L127.018905,42.3395011 L127.018905,0.978765392 L85.6571625,0.978765392 L85.6571625,42.3395011 Z M43.3262168,42.3395011 L84.6859461,42.3395011 L84.6859461,0.978765392 L43.3262168,0.978765392 L43.3262168,42.3395011 Z M0.992251713,42.3395011 L42.3539939,42.3395011 L42.3539939,0.978765392 L0.992251713,0.978765392 L0.992251713,42.3395011 Z" id="Fill-1"></path> <polygon id="Fill-2" points="19.8806498 28.0916053 23.4645894 28.0916053 23.4645894 15.2262587 19.8806498 15.2262587"></polygon> <polygon id="Fill-3" points="61.9617967 28.0913034 65.5276203 28.0913034 65.5276203 18.3509588 69.3863184 18.3509588 69.3863184 15.2259567 58.102092 15.2259567 58.102092 18.3509588 61.9617967 18.3509588"></polygon> <polygon id="Fill-4" points="111.671572 25.0591959 104.530867 25.0591959 104.530867 23.0191382 111.671572 23.0191382 111.671572 20.2071396 104.530867 20.2071396 104.530867 18.2586681 111.671572 18.2586681 111.671572 15.2262587 101.001275 15.2262587 101.001275 28.0916053 111.671572 28.0916053"></polygon> <path d="M148.642611,19.4535159 L150.075784,23.1109257 L147.190315,23.1109257 L148.642611,19.4535159 Z M146.143615,25.8866924 L151.104367,25.8866924 L152.042371,28.1833928 L155.864837,28.1833928 L150.387781,15.22646 L146.950782,15.22646 L141.474731,28.1833928 L145.224734,28.1833928 L146.143615,25.8866924 Z" id="Fill-5"></path> </g> </g> </g> </g> </g> </svg> 