<!-- Generated by IcoMoon.io -->
<svg version="1.1" xmlns="http://www.w3.org/2000/svg" width="985" height="1024" viewBox="0 0 985 1024">
<title></title>
<g id="icomoon-ignore">
</g>
<path fill="#fff" d="M346.070 625.144h-16.646v-178.17h16.646v178.17z"></path>
<path fill="#fff" d="M443.347 462.060v163.084h-16.646v-163.084h-51.24v-15.086h119.387v15.086h-51.5z"></path>
<path fill="#fff" d="M590.825 625.144h-16.126l-65.026-178.17h18.467l50.459 142.536c0.781 2.601 1.821 5.202 2.341 8.063 0.781 2.601 1.3 5.462 1.56 8.324h0.521c0.521-2.341 1.040-4.942 1.821-7.543 0.781-2.861 1.821-5.722 2.861-9.103l52.54-142.276h17.948l-67.366 178.17z"></path>
<path fill="#fff" d="M684.983 625.144v-178.17h46.818c30.432 0 53.581 7.283 69.187 21.848s23.41 36.154 23.41 64.766c0 13.786-2.081 26.27-6.503 37.454s-10.664 20.808-18.727 28.872c-8.324 8.063-18.207 14.046-29.912 18.467s-24.97 6.503-39.535 6.503h-44.737zM701.629 462.060v147.998h27.311c12.225 0 23.149-1.56 32.773-4.942s17.948-8.063 24.45-14.565c6.762-6.503 11.705-14.305 15.346-23.929 3.641-9.364 5.202-20.288 5.202-32.513 0-48.119-25.491-72.048-76.21-72.048h-28.872z"></path>
<path fill="#fff" d="M982.279 625.144l-98.839-143.056c-1.3-1.821-2.341-3.641-3.641-5.722-1.3-1.821-2.081-3.641-2.861-5.722h-0.521c0.26 1.56 0.26 3.641 0.521 6.243 0 2.601 0.26 5.983 0.26 9.884v138.114h-17.167v-178.17h18.207l97.279 141.235c1.56 2.341 2.861 4.422 4.162 6.243s2.341 3.641 3.381 5.462h0.521c-0.26-2.861-0.521-5.722-0.781-9.103s-0.26-7.283-0.26-11.184v-132.652h16.646v178.17h-16.907z"></path>
<path fill="#fff" d="M332.544 690.17h-3.121v-33.813h3.121v33.813z"></path>
<path fill="#fff" d="M349.971 659.218v30.953h-3.121v-30.953h-9.624v-2.861h22.629v2.861h-9.884z"></path>
<path fill="#fff" d="M387.946 690.17h-3.121l-12.225-33.813h3.641l9.624 27.051c0.26 0.521 0.26 1.040 0.521 1.56s0.26 1.040 0.26 1.56v0c0-0.521 0.26-1.040 0.26-1.56 0.26-0.521 0.26-1.040 0.521-1.821l9.884-27.051h3.381l-12.745 34.073z"></path>
<path fill="#fff" d="M407.714 690.17h-3.121v-33.813h3.121v33.813z"></path>
<path fill="#fff" d="M415.257 690.17v-33.813h8.843c5.722 0 10.144 1.3 13.005 4.162s4.422 6.762 4.422 12.225c0 2.601-0.521 4.942-1.3 7.022s-2.081 3.902-3.641 5.462c-1.56 1.56-3.381 2.601-5.722 3.641-2.341 0.781-4.682 1.3-7.543 1.3h-8.063zM418.378 659.218v28.091h5.202c2.341 0 4.422-0.26 6.243-1.040 1.821-0.521 3.381-1.56 4.682-2.861s2.341-2.601 2.861-4.422c0.781-1.821 1.040-3.902 1.040-6.243 0-9.103-4.942-13.786-14.565-13.786h-5.462z"></path>
<path fill="#fff" d="M447.249 690.17v-33.813h16.386v2.861h-13.265v12.484h12.484v2.861h-12.484v12.745h14.046v2.861h-17.167z"></path>
<path fill="#fff" d="M484.184 690.95c-2.341 0-4.682-0.521-6.503-1.3s-3.641-2.081-4.942-3.641c-1.3-1.56-2.341-3.381-3.121-5.462s-1.040-4.422-1.040-6.762c0-2.601 0.26-4.942 1.040-7.283 0.781-2.081 1.821-4.162 3.121-5.722s3.121-2.861 5.202-3.641c2.081-0.781 4.422-1.3 7.022-1.3 2.341 0 4.422 0.521 6.503 1.3 1.821 0.781 3.641 2.081 4.942 3.641s2.341 3.381 3.121 5.462c0.781 2.081 1.040 4.422 1.040 6.762 0 2.601-0.26 4.942-1.040 7.022s-1.821 4.162-3.121 5.722c-1.3 1.56-3.121 2.861-4.942 3.902-2.341 0.781-4.682 1.3-7.283 1.3zM484.444 658.697c-2.081 0-3.902 0.26-5.462 1.040s-2.861 1.821-3.902 3.121c-1.040 1.3-1.821 2.861-2.341 4.682s-0.781 3.641-0.781 5.722c0 1.821 0.26 3.641 0.781 5.462s1.3 3.381 2.341 4.682c1.040 1.3 2.341 2.341 3.902 3.121s3.381 1.3 5.462 1.3c2.081 0 3.902-0.26 5.462-1.040s2.861-1.821 3.902-3.121c1.040-1.3 1.821-2.861 2.341-4.682s0.781-3.641 0.781-5.983c0-2.081-0.26-3.902-0.781-5.722s-1.3-3.381-2.341-4.682c-1.040-1.3-2.341-2.341-3.902-3.121-1.3-0.26-3.121-0.781-5.462-0.781z"></path>
<path fill="#fff" d="M517.997 690.17v-33.813h8.843c5.722 0 10.144 1.3 13.005 4.162s4.422 6.762 4.422 12.225c0 2.601-0.521 4.942-1.3 7.022s-2.081 3.902-3.641 5.462c-1.56 1.56-3.381 2.601-5.722 3.641-2.341 0.781-4.682 1.3-7.543 1.3h-8.063zM521.118 659.218v28.091h5.202c2.341 0 4.422-0.26 6.243-1.040 1.821-0.521 3.381-1.56 4.682-2.861s2.341-2.601 2.861-4.422c0.781-1.821 1.040-3.902 1.040-6.243 0-9.103-4.942-13.786-14.565-13.786h-5.462z"></path>
<path fill="#fff" d="M549.99 690.17v-33.813h16.386v2.861h-13.265v12.484h12.484v2.861h-12.484v12.745h14.046v2.861h-17.167z"></path>
<path fill="#fff" d="M584.844 690.17h-3.121l-12.225-33.813h3.641l9.624 27.051c0.26 0.521 0.26 1.040 0.521 1.56s0.26 1.040 0.26 1.56v0c0-0.521 0.26-1.040 0.26-1.56 0.26-0.521 0.26-1.040 0.521-1.821l9.884-27.051h3.381l-12.745 34.073z"></path>
<path fill="#fff" d="M601.75 690.17v-33.813h16.386v2.861h-13.265v12.484h12.484v2.861h-12.484v12.745h14.046v2.861h-17.167z"></path>
<path fill="#fff" d="M624.899 690.17v-33.813h3.121v30.953h13.525v2.861h-16.646z"></path>
<path fill="#fff" d="M658.192 690.95c-2.341 0-4.682-0.521-6.503-1.3-2.081-0.781-3.641-2.081-4.942-3.641s-2.341-3.381-3.121-5.462c-0.781-2.081-1.040-4.422-1.040-6.762 0-2.601 0.26-4.942 1.040-7.283 0.781-2.081 1.821-4.162 3.121-5.722s3.121-2.861 5.202-3.641c2.081-0.781 4.422-1.3 7.022-1.3 2.341 0 4.422 0.521 6.503 1.3 1.821 0.781 3.641 2.081 4.942 3.641s2.341 3.381 3.121 5.462c0.781 2.081 1.040 4.422 1.040 6.762 0 2.601-0.26 4.942-1.040 7.022s-1.821 4.162-3.121 5.722c-1.3 1.56-3.121 2.861-4.942 3.902-2.341 0.781-4.682 1.3-7.283 1.3zM658.453 658.697c-2.081 0-3.902 0.26-5.462 1.040s-2.861 1.821-3.902 3.121c-1.040 1.3-1.821 2.861-2.341 4.682s-0.781 3.641-0.781 5.722c0 1.821 0.26 3.641 0.781 5.462s1.3 3.381 2.341 4.682c1.040 1.3 2.341 2.341 3.902 3.121s3.381 1.3 5.462 1.3c2.081 0 3.902-0.26 5.462-1.040s2.861-1.821 3.902-3.121c1.040-1.3 1.821-2.861 2.341-4.682s0.781-3.641 0.781-5.983c0-2.081-0.26-3.902-0.781-5.722s-1.3-3.381-2.341-4.682c-1.040-1.3-2.341-2.341-3.902-3.121-1.3-0.26-3.121-0.781-5.462-0.781z"></path>
<path fill="#fff" d="M682.902 677.165v13.265h-3.121v-33.813h8.843c1.821 0 3.381 0.26 4.682 0.781s2.601 1.040 3.381 1.821c1.040 0.781 1.56 1.821 2.081 3.121s0.781 2.601 0.781 4.162c0 1.56-0.26 3.121-0.781 4.422s-1.3 2.601-2.341 3.381c-1.040 1.040-2.341 1.821-3.641 2.341-1.56 0.521-3.121 0.781-4.942 0.781h-4.942zM682.902 659.218v14.826h4.422c2.861 0 5.202-0.781 6.762-2.081s2.341-3.381 2.341-5.722c0-4.682-2.861-7.283-8.324-7.283h-5.202z"></path>
<path fill="#fff" d="M705.271 690.17v-33.813h16.386v2.861h-13.265v12.484h12.484v2.861h-12.484v12.745h14.046v2.861h-17.167z"></path>
<path fill="#fff" d="M746.887 690.17l-5.202-9.624c-0.521-1.040-1.040-1.821-1.56-2.341s-1.040-1.040-1.56-1.56c-0.521-0.26-1.040-0.781-1.56-0.781-0.521-0.26-1.3-0.26-1.821-0.26h-3.641v14.826h-3.121v-33.813h9.624c1.3 0 2.601 0.26 3.641 0.521 1.3 0.26 2.341 1.040 3.121 1.56 1.040 0.781 1.56 1.56 2.341 2.861 0.521 1.040 0.781 2.341 0.781 3.902 0 1.3-0.26 2.341-0.521 3.381s-0.781 1.821-1.56 2.601c-0.781 0.781-1.56 1.56-2.341 2.081-1.040 0.521-2.081 1.040-3.121 1.3v0c0.521 0.26 0.781 0.521 1.3 0.781 0.26 0.26 0.781 0.781 1.040 1.040 0.26 0.521 0.781 1.040 1.040 1.56s0.781 1.3 1.040 1.821l5.722 10.404h-3.641zM731.541 659.218v13.265h5.722c1.040 0 2.081-0.26 3.121-0.521s1.821-0.781 2.341-1.3c0.781-0.521 1.3-1.3 1.56-2.341s0.521-1.821 0.521-2.861c0-2.081-0.521-3.641-1.821-4.682s-3.121-1.56-5.462-1.56h-5.983z"></path>
<path fill="#fff" d="M753.909 685.227c0.521 0.521 1.3 0.781 1.821 1.040 0.781 0.26 1.3 0.521 2.081 0.781s1.56 0.521 2.081 0.521c0.781 0 1.3 0.26 2.081 0.26 2.601 0 4.422-0.521 5.722-1.56s1.821-2.341 1.821-4.162c0-0.781-0.26-1.56-0.521-2.341s-0.781-1.3-1.3-1.821c-0.521-0.521-1.3-1.040-2.341-1.821-1.040-0.521-2.081-1.3-3.381-1.821-1.56-0.781-2.601-1.56-3.641-2.341s-1.821-1.3-2.601-2.081c-0.781-0.781-1.040-1.56-1.56-2.341-0.26-0.781-0.521-1.821-0.521-2.861 0-1.3 0.26-2.601 0.781-3.641s1.3-2.081 2.341-2.861c1.040-0.781 2.081-1.3 3.381-1.821s2.861-0.521 4.162-0.521c2.601 0 4.942 0.26 6.762 1.040v3.381c-2.081-1.040-4.422-1.821-7.022-1.821-1.040 0-2.081 0-2.861 0.26s-1.56 0.521-2.341 1.040c-0.781 0.521-1.3 1.040-1.56 1.821s-0.521 1.56-0.521 2.341c0 0.781 0 1.56 0.26 2.341 0.26 0.521 0.781 1.3 1.3 1.821s1.3 1.040 2.341 1.56c1.040 0.521 2.081 1.3 3.381 1.821 1.3 0.781 2.601 1.56 3.641 2.081 1.040 0.781 1.821 1.56 2.601 2.341s1.3 1.56 1.56 2.601c0.26 0.781 0.521 1.821 0.521 2.861 0 1.56-0.26 2.861-0.781 3.902s-1.3 2.081-2.341 2.861c-1.040 0.781-2.081 1.3-3.641 1.56-1.3 0.26-2.861 0.521-4.422 0.521-0.521 0-1.3 0-1.821 0-0.781 0-1.56-0.26-2.341-0.26-0.781-0.26-1.56-0.26-2.081-0.521-0.781-0.26-1.3-0.521-1.56-0.781v-3.381z"></path>
<path fill="#fff" d="M814.253 690.17l-18.727-27.051c-0.26-0.26-0.521-0.781-0.781-1.040s-0.521-0.781-0.521-1.040v0c0 0.26 0 0.781 0 1.3s0 1.040 0 1.821v26.27h-3.121v-33.813h3.381l18.467 26.791c0.26 0.521 0.521 0.781 0.781 1.3 0.26 0.26 0.521 0.781 0.521 1.040v0c0-0.521 0-1.040-0.26-1.821 0-0.521 0-1.3 0-2.081v-25.23h3.121v33.813h-2.861z"></path>
<path fill="#fff" d="M824.918 690.17v-33.813h16.386v2.861h-13.265v12.484h12.484v2.861h-12.484v12.745h14.046v2.861h-17.167z"></path>
<path fill="#fff" d="M857.95 659.218v30.953h-3.121v-30.953h-9.624v-2.861h22.629v2.861h-9.884z"></path>
<path fill="#fff" d="M902.168 690.17h-3.381l-7.283-24.97c-0.26-0.521-0.26-1.3-0.521-1.821 0-0.521-0.26-1.040-0.26-1.56v0c0 1.040-0.26 2.081-0.781 3.381l-7.543 25.23h-3.381l-9.884-33.813h3.381l7.543 26.53c0.26 0.521 0.26 1.040 0.521 1.56 0 0.521 0.26 1.040 0.26 1.56v0c0-0.781 0.26-1.821 0.781-3.121l7.803-26.53h2.601l7.543 26.53c0.26 0.521 0.26 1.040 0.26 1.56s0.26 1.040 0.26 1.56v0c0-0.26 0-0.781 0.26-1.040 0-0.521 0.26-0.781 0.26-1.3l7.543-27.311h3.381l-9.364 33.553z"></path>
<path fill="#fff" d="M929.738 690.95c-2.341 0-4.682-0.521-6.503-1.3-2.081-0.781-3.641-2.081-4.942-3.641s-2.341-3.381-3.121-5.462c-0.781-2.081-1.040-4.422-1.040-6.762 0-2.601 0.26-4.942 1.040-7.283 0.781-2.081 1.821-4.162 3.121-5.722s3.121-2.861 5.202-3.641c2.081-0.781 4.422-1.3 7.022-1.3 2.341 0 4.422 0.521 6.503 1.3 1.821 0.781 3.641 2.081 4.942 3.641s2.341 3.381 3.121 5.462c0.781 2.081 1.040 4.422 1.040 6.762 0 2.601-0.26 4.942-1.040 7.022s-1.821 4.162-3.121 5.722c-1.3 1.56-3.121 2.861-4.942 3.902-2.341 0.781-4.682 1.3-7.283 1.3zM929.999 658.697c-2.081 0-3.902 0.26-5.462 1.040s-2.861 1.821-3.902 3.121c-1.040 1.3-1.821 2.861-2.341 4.682s-0.781 3.641-0.781 5.722c0 1.821 0.26 3.641 0.781 5.462s1.3 3.381 2.341 4.682c1.040 1.3 2.341 2.341 3.902 3.121s3.381 1.3 5.462 1.3c2.081 0 3.902-0.26 5.462-1.040s2.861-1.821 3.902-3.121c1.040-1.3 1.821-2.861 2.341-4.682s0.781-3.641 0.781-5.983c0-2.081-0.26-3.902-0.781-5.722s-1.3-3.381-2.341-4.682c-1.040-1.3-2.341-2.341-3.902-3.121-1.3-0.26-3.121-0.781-5.462-0.781z"></path>
<path fill="#fff" d="M969.794 690.17l-5.202-9.624c-0.521-1.040-1.040-1.821-1.56-2.341s-1.040-1.040-1.56-1.56c-0.521-0.26-1.040-0.781-1.56-0.781-0.521-0.26-1.3-0.26-1.821-0.26h-3.641v14.826h-3.121v-33.813h9.624c1.3 0 2.601 0.26 3.641 0.521 1.3 0.26 2.341 1.040 3.121 1.56 1.040 0.781 1.56 1.56 2.341 2.861 0.521 1.040 0.781 2.341 0.781 3.902 0 1.3-0.26 2.341-0.521 3.381s-0.781 1.821-1.56 2.601-1.56 1.56-2.341 2.081-2.081 1.040-3.121 1.3v0c0.521 0.26 0.781 0.521 1.3 0.781 0.26 0.26 0.781 0.781 1.040 1.040 0.26 0.521 0.781 1.040 1.040 1.56s0.781 1.3 1.040 1.821l5.722 10.404h-3.641zM954.708 659.218v13.265h5.722c1.040 0 2.081-0.26 3.121-0.521s1.821-0.781 2.341-1.3c0.781-0.521 1.3-1.3 1.56-2.341s0.521-1.821 0.521-2.861c0-2.081-0.521-3.641-1.821-4.682s-3.121-1.56-5.462-1.56h-5.983z"></path>
<path fill="#fff" d="M995.804 690.17l-13.786-15.867c-0.26-0.521-0.521-0.781-0.781-1.040v0 16.907h-3.121v-33.813h3.121v15.867c0-0.26 0.26-0.26 0.26-0.521s0.26-0.26 0.521-0.521l13.265-14.826h3.902l-14.565 16.386 15.606 17.427h-4.422z"></path>
<path fill="#757470" d="M134.347 590.55l-119.127 120.687v-238.774l119.127-120.687z"></path>
<path fill="#c0591e" d="M270.64 452.696l-119.387 120.947v-238.774l119.387-120.687z"></path>
<path fill="#5b5957" d="M151.253 412.642v4.422c38.755-29.132 76.99-62.164 118.866-98.839 0.26-0.26 0.26-0.26 0.521-0.521v-4.682c-1.040 0.781-1.821 1.56-2.861 2.601-41.096 35.894-78.55 68.407-116.525 97.018z"></path>
<path fill="#5b5957" d="M15.22 496.914c43.437-18.207 81.932-41.096 119.387-67.626v-4.422c-37.454 26.791-75.95 49.68-119.387 68.147v3.902z"></path>
<path fill="#5b5957" d="M15.22 490.411c43.437-18.467 81.932-41.616 119.387-68.928v-4.422c-37.454 27.57-75.95 50.98-119.387 69.447v3.902z"></path>
<path fill="#5b5957" d="M151.253 404.578v4.422c37.454-28.872 74.39-61.385 114.705-97.279 1.56-1.3 3.121-2.601 4.422-4.162v-4.682c-2.341 2.081-4.682 4.162-6.762 5.983-39.535 35.374-75.69 67.366-112.365 95.717z"></path>
<path fill="#5b5957" d="M15.22 484.169c43.697-18.727 82.193-42.656 119.387-70.748v-4.422c-37.194 28.351-75.69 52.54-119.387 71.268v3.902z"></path>
<path fill="#5b5957" d="M151.253 395.735v4.422c37.715-30.172 74.39-64.505 114.965-102.48 1.3-1.3 2.861-2.601 4.162-3.902v-4.682c-2.341 2.081-4.422 4.162-6.762 6.243-39.535 36.934-75.69 70.748-112.365 100.399z"></path>
<path fill="#5b5957" d="M151.253 368.944c29.912-24.97 57.742-52.020 84.533-80.112 2.081-2.341-1.3-5.722-3.381-3.381-26.010 27.051-52.54 53.321-81.152 77.51v5.983z"></path>
<path fill="#5b5957" d="M131.745 384.81c1.040-0.781 1.821-1.56 2.601-2.341v-5.983c-0.781 0.521-1.56 1.3-2.341 2.081-24.97 19.768-51.5 37.454-78.291 54.882l-15.346 15.606c31.992-20.288 63.464-41.096 93.377-64.245z"></path>
<path fill="#5b5957" d="M118.74 384.81c5.462-4.162 10.404-8.583 15.606-13.005v-6.243c-4.942 4.422-10.144 8.843-15.346 13.005-11.705 9.364-24.189 17.687-36.675 26.010l-15.346 15.346c17.948-10.924 35.374-22.369 51.761-35.113z"></path>
<path fill="#5b5957" d="M210.037 290.913c-18.987 20.548-38.235 40.836-58.783 59.563v6.503c21.848-19.768 42.137-41.096 62.164-62.685 2.081-2.341-1.3-5.722-3.381-3.381z"></path>
<path fill="#5b5957" d="M244.11 279.729c8.843-1.56 17.687-3.381 26.27-5.462v-5.202c-5.983 1.56-11.965 2.861-18.207 4.162-15.606 3.121-31.212 5.202-47.078 6.762l-5.202 5.202c15.086-1.3 29.651-3.121 44.218-5.462z"></path>
<path fill="#5b5957" d="M243.069 264.903c9.364-1.56 18.467-3.641 27.57-5.722v-5.202c-6.503 1.56-12.745 3.121-19.508 4.422-9.624 1.821-19.508 3.381-29.132 4.682l-5.462 5.462c8.843-1.040 17.687-2.081 26.53-3.641z"></path>
<path fill="#5b5957" d="M151.253 434.229c39.015-25.23 76.99-54.621 119.387-89.995v-3.902c-42.397 35.634-80.371 65.026-119.387 90.255v3.641z"></path>
<path fill="#5b5957" d="M151.253 462.32c40.316-19.508 78.811-42.397 119.387-70.748v-3.641c-40.576 28.351-79.071 51.5-119.387 71.007v3.381z"></path>
<path fill="#5b5957" d="M151.253 458.939c38.755-19.768 77.25-43.697 119.387-73.609v-3.641c-42.137 30.172-80.371 53.842-119.387 73.869v3.381z"></path>
<path fill="#5b5957" d="M15.22 514.861c43.177-13.265 82.193-27.57 119.387-44.477v-6.243c-12.225 5.722-24.45 11.445-36.934 16.646 12.484-5.462 24.71-11.184 36.934-17.427v-3.381c-36.415 18.467-74.39 33.813-118.087 47.078 42.656-16.126 81.152-33.553 118.087-54.101v-3.381c-4.422 2.341-8.583 4.942-13.005 7.283 4.422-2.341 8.583-4.942 13.005-7.543v-3.381c-19.248 11.184-38.495 21.329-58.263 30.692 20.288-9.884 39.275-20.548 58.263-31.992v-3.381c-36.934 22.629-75.429 41.616-119.387 58.523v15.086z"></path>
<path fill="#5b5957" d="M151.253 454.517c39.796-21.329 78.031-46.558 119.387-76.99v-3.381c-41.356 30.692-79.591 55.921-119.387 77.25v3.121z"></path>
<path fill="#5b5957" d="M151.253 443.333c39.796-23.41 78.291-50.459 119.387-83.753v-3.641c-41.096 33.293-79.591 60.604-119.387 84.273v3.121z"></path>
<path fill="#5b5957" d="M151.253 439.431c38.235-23.41 76.73-51.5 119.387-86.614v-3.641c-42.656 35.113-81.152 63.205-119.387 86.874v3.381z"></path>
</svg>
