<?xml version="1.0" encoding="utf-8"?>
<!-- Generator: Adobe Illustrator 22.1.0, SVG Export Plug-In . SVG Version: 6.00 Build 0)  -->
<svg version="1.1" id="Слой_1" xmlns="http://www.w3.org/2000/svg" xmlns:xlink="http://www.w3.org/1999/xlink" x="0px" y="0px"
	 viewBox="0 0 1366 266" style="enable-background:new 0 0 1366 266;" xml:space="preserve">
<style type="text/css">
	.st0{fill:url(#SVGID_1_);}
	.st1{fill:url(#SVGID_2_);}
	.st2{fill:url(#SVGID_3_);}
	.st3{fill:url(#SVGID_4_);}
	.st4{fill:url(#SVGID_5_);}
	.st5{fill:url(#SVGID_6_);}
	.st6{fill:url(#SVGID_7_);}
</style>
<linearGradient id="SVGID_1_" gradientUnits="userSpaceOnUse" x1="0" y1="136.1" x2="1366" y2="136.1" gradientTransform="matrix(1 0 0 -1 0 268)">
	<stop  offset="0" style="stop-color:#4A148C"/>
	<stop  offset="1" style="stop-color:#7B1FA2"/>
</linearGradient>
<path class="st0" d="M0,3.8h56.6v205h92.1V260H0V3.8z"/>
<linearGradient id="SVGID_2_" gradientUnits="userSpaceOnUse" x1="0" y1="91.1" x2="1366" y2="91.1" gradientTransform="matrix(1 0 0 -1 0 268)">
	<stop  offset="0" style="stop-color:#4A148C"/>
	<stop  offset="1" style="stop-color:#7B1FA2"/>
</linearGradient>
<path class="st1" d="M269.6,260h-66.8L139.3,93.8h57L236,212.5l39.6-118.7H333L269.6,260z"/>
<linearGradient id="SVGID_3_" gradientUnits="userSpaceOnUse" x1="0" y1="136.1" x2="1366" y2="136.1" gradientTransform="matrix(1 0 0 -1 0 268)">
	<stop  offset="0" style="stop-color:#4A148C"/>
	<stop  offset="1" style="stop-color:#7B1FA2"/>
</linearGradient>
<path class="st2" d="M382.1,3.8c18.1,0,33.2,14.7,33.2,33.2c0,18.1-15.1,33.2-33.2,33.2c-18.5,0-33.2-15.1-33.2-33.2
	C348.9,18.5,363.6,3.8,382.1,3.8z M353.8,260V93.8h56.6V260H353.8z"/>
<linearGradient id="SVGID_4_" gradientUnits="userSpaceOnUse" x1="9.094947e-13" y1="91.1" x2="1366" y2="91.1" gradientTransform="matrix(1 0 0 -1 0 268)">
	<stop  offset="0" style="stop-color:#4A148C"/>
	<stop  offset="1" style="stop-color:#7B1FA2"/>
</linearGradient>
<path class="st3" d="M561.4,260h-66.8L431.2,93.8h57l39.6,118.7l39.6-118.7h57.4L561.4,260z"/>
<linearGradient id="SVGID_5_" gradientUnits="userSpaceOnUse" x1="9.094947e-13" y1="136.15" x2="1366" y2="136.15" gradientTransform="matrix(1 0 0 -1 0 268)">
	<stop  offset="0" style="stop-color:#4A148C"/>
	<stop  offset="1" style="stop-color:#7B1FA2"/>
</linearGradient>
<path class="st4" d="M892.2,172.9c-17.4,52.7-67.2,90.8-125.7,90.8c-72.9,0-132.1-59.2-132.1-131.9S693.6,0,766.4,0
	c58.5,0,108,37.7,125.3,90h-63.1c-10.6-23-36.2-37.3-62.3-37.3c-41.5,0-74.8,35.8-74.8,79.1c0,43.7,33.2,79.1,74.8,79.1
	c26.4,0,52.1-15.4,62.7-38.1h63.2V172.9z"/>
<linearGradient id="SVGID_6_" gradientUnits="userSpaceOnUse" x1="-7.275958e-12" y1="134.95" x2="1366" y2="134.95" gradientTransform="matrix(1 0 0 -1 0 268)">
	<stop  offset="0" style="stop-color:#4A148C"/>
	<stop  offset="1" style="stop-color:#7B1FA2"/>
</linearGradient>
<path class="st5" d="M1069.6,189.9c0-49.7-148.4-17.7-148.4-112.3c0-52.7,49.1-77.6,95.9-77.6c52.9,0,100.4,23.4,102.3,81.8h-54.7
	c-3-26.8-18.5-35.4-46.8-35.4c-15.9,0-38.1,7.5-38.1,26.8c0,45.6,148.4,12.8,148.4,110.4c0,60.3-54,82.5-106.5,82.5
	c-56.6,0-108.4-27.9-108.7-90.4h57.4c1.5,30.5,25.7,44.5,53.6,44.5C1041.7,220,1069.6,212.9,1069.6,189.9z"/>
<linearGradient id="SVGID_7_" gradientUnits="userSpaceOnUse" x1="3.547029e-11" y1="134.95" x2="1366" y2="134.95" gradientTransform="matrix(1 0 0 -1 0 268)">
	<stop  offset="0" style="stop-color:#4A148C"/>
	<stop  offset="1" style="stop-color:#7B1FA2"/>
</linearGradient>
<path class="st6" d="M1307.5,189.9c0-49.7-148.4-17.7-148.4-112.3c0-52.7,49.1-77.6,95.9-77.6c52.9,0,100.4,23.4,102.3,81.8h-54.7
	c-3-26.8-18.5-35.4-46.8-35.4c-15.9,0-38.1,7.5-38.1,26.8c0,45.6,148.4,12.8,148.4,110.4c0,60.3-54,82.5-106.5,82.5
	c-56.6,0-108.4-27.9-108.7-90.4h57.4c1.5,30.5,25.7,44.5,53.6,44.5C1279.5,220,1307.5,212.9,1307.5,189.9z"/>
</svg>
