<svg xmlns="http://www.w3.org/2000/svg" version="1.1" xlink="http://www.w3.org/1999/xlink" xmlns:svgjs="http://svgjs.com/svgjs" width="300" height="75.71597680485932"><defs id="SvgjsDefs11097"></defs><g id="SvgjsG11098" transform="scale(0.6493506493506493)" opacity="1"><g id="SvgjsG11099" class="jJAZVrffU" transform="translate(-13.441490723097678, -6.663465155207967) scale(1.3166094157705874)" light-content="false" fill="#ffffff"><path d="M11.3 65.7l25.5-54.3c3.9-8.3 15.7-8.5 19.9-.3L90 77.6c4.1 8.2-3.1 17.6-12.1 15.8L19 81.2c-7-1.5-10.8-9.1-7.7-15.5z"></path></g><g id="SvgjsG11100" class="text" transform="translate(115.48755030585147, 56.752765525634004) scale(1)" light-content="false" fill="#ffffff"><path d="M16.9 -19.2L8.85 -36.39L0.77 -36.39L13.55 -10.45L12.62 -8.07C12.19 -7.09 11.65 -6.42 11.01 -6.05C10.37 -5.68 9.52 -5.5 8.47 -5.5C7.57 -5.5 6.92 -5.53 6.52 -5.6L6.6 0.42L9.22 0.52C13.11 0.52 15.99 -1.12 17.87 -4.4L18.9 -6.37L31.62 -36.39L23.52 -36.39Z M47.44 -14.87L56.82 0L65.76 0L53.37 -19.17L64.59 -36.39L55.44 -36.39L46.54 -21.82L43.12 -21.82L43.12 -36.39L35.62 -36.39L35.62 0L43.12 0L43.12 -14.87Z M76.14 -12.82L82.71 -12.82C87.03 -12.82 90.41 -13.85 92.85 -15.91C95.29 -17.97 96.51 -20.78 96.51 -24.35C96.51 -26.7 95.95 -28.79 94.83 -30.63C93.72 -32.47 92.12 -33.89 90.05 -34.89C87.97 -35.89 85.57 -36.39 82.84 -36.39L68.64 -36.39L68.64 0L76.14 0ZM76.14 -18.9L76.14 -30.32L83.01 -30.32C84.86 -30.29 86.31 -29.72 87.36 -28.62C88.41 -27.52 88.94 -26.08 88.94 -24.3C88.94 -22.56 88.41 -21.23 87.37 -20.3C86.33 -19.36 84.82 -18.9 82.84 -18.9Z M117.76 -7.5L120.28 0L128.25 0L114.63 -36.39L107.68 -36.39L94.13 0L102.11 0L104.61 -7.5ZM106.63 -13.57L111.16 -27.2L115.73 -13.57Z M139.63 0L139.63 -36.39L132.13 -36.39L132.13 0ZM133.25 -41.94C133.25 -42.81 132.93 -43.56 132.29 -44.18C131.65 -44.81 130.81 -45.12 129.78 -45.12C128.75 -45.12 127.91 -44.81 127.28 -44.18C126.65 -43.56 126.33 -42.81 126.33 -41.94C126.33 -41.08 126.65 -40.34 127.28 -39.72C127.91 -39.1 128.75 -38.79 129.78 -38.79C130.8 -38.79 131.63 -39.1 132.28 -39.71C132.93 -40.31 133.25 -41.06 133.25 -41.94ZM138.5 -41.94C138.5 -41.08 138.82 -40.33 139.46 -39.71C140.11 -39.08 140.94 -38.77 141.98 -38.77C143.01 -38.77 143.84 -39.08 144.48 -39.71C145.11 -40.33 145.43 -41.08 145.43 -41.94C145.43 -42.83 145.1 -43.58 144.44 -44.19C143.78 -44.81 142.96 -45.12 141.98 -45.12C141.01 -45.12 140.19 -44.81 139.51 -44.21C138.84 -43.6 138.5 -42.84 138.5 -41.94Z M176.2 0L176.2 -36.39L168.7 -36.39L168.7 -21.65L154.07 -21.65L154.07 -36.39L146.58 -36.39L146.58 0L154.07 0L154.07 -15.6L168.7 -15.6L168.7 0Z M211.32 -12.12L203.82 -12.12C203.65 -9.91 203 -8.27 201.85 -7.21C200.71 -6.15 198.98 -5.62 196.67 -5.62C194.1 -5.62 192.22 -6.53 191.03 -8.35C189.84 -10.17 189.24 -13.04 189.24 -16.97L189.24 -19.72C189.28 -23.49 189.91 -26.27 191.16 -28.06C192.4 -29.85 194.27 -30.74 196.77 -30.74C199.07 -30.74 200.78 -30.22 201.9 -29.16C203.03 -28.1 203.68 -26.4 203.87 -24.05L211.37 -24.05C210.97 -28.11 209.48 -31.27 206.92 -33.52C204.35 -35.77 200.97 -36.89 196.77 -36.89C193.74 -36.89 191.07 -36.18 188.78 -34.76C186.49 -33.33 184.73 -31.29 183.5 -28.62C182.26 -25.95 181.65 -22.87 181.65 -19.37L181.65 -17.15C181.65 -11.66 182.98 -7.35 185.66 -4.21C188.33 -1.07 192 0.5 196.67 0.5C200.93 0.5 204.37 -0.62 206.98 -2.87C209.59 -5.12 211.03 -8.21 211.32 -12.12Z M223.74 -23.27L223.74 -36.39L216.19 -36.39L216.19 0L229.86 0C234 -0.03 237.31 -1.12 239.8 -3.26C242.29 -5.4 243.54 -8.24 243.54 -11.77C243.54 -15.29 242.28 -18.08 239.77 -20.16C237.27 -22.23 233.87 -23.27 229.59 -23.27ZM223.74 -17.22L229.89 -17.22C231.79 -17.19 233.28 -16.69 234.37 -15.73C235.47 -14.78 236.01 -13.47 236.01 -11.82C236.01 -10.06 235.44 -8.65 234.3 -7.6C233.16 -6.55 231.63 -6.02 229.71 -6.02L223.74 -6.02Z M260.13 -14.87L269.51 0L278.45 0L266.06 -19.17L277.28 -36.39L268.13 -36.39L259.23 -21.82L255.81 -21.82L255.81 -36.39L248.31 -36.39L248.31 0L255.81 0L255.81 -14.87Z M303.15 -36.39L288.58 -12.17L288.58 -36.39L281.08 -36.39L281.08 0L288.58 0L303.15 -24.17L303.15 0L310.67 0L310.67 -36.39Z M338.99 -36.39L324.42 -12.17L324.42 -36.39L316.92 -36.39L316.92 0L324.42 0L338.99 -24.17L338.99 0L346.52 0L346.52 -36.39ZM340.44 -45.97L335.27 -45.97C335.27 -44.92 334.96 -44.11 334.35 -43.53C333.73 -42.96 332.88 -42.67 331.8 -42.67C330.7 -42.67 329.83 -42.96 329.21 -43.53C328.58 -44.11 328.27 -44.92 328.27 -45.97L323.15 -45.97C323.15 -43.72 323.94 -41.92 325.53 -40.57C327.13 -39.22 329.21 -38.54 331.8 -38.54C334.38 -38.54 336.47 -39.23 338.06 -40.59C339.65 -41.96 340.44 -43.75 340.44 -45.97Z"></path></g><g id="SvgjsG11101" class="text" transform="translate(113.99197329473434, 101.72993692133012) scale(1)" light-content="false" fill="#ffffff"><path d="M31.47 -11.85L25.17 -11.85C24.84 -9.25 24.05 -7.39 22.8 -6.27C21.55 -5.16 19.68 -4.6 17.2 -4.6C14.48 -4.6 12.42 -5.63 11.01 -7.7C9.6 -9.77 8.9 -12.76 8.9 -16.7L8.9 -19.92C8.93 -23.8 9.69 -26.75 11.16 -28.76C12.64 -30.77 14.75 -31.77 17.5 -31.77C19.86 -31.77 21.66 -31.19 22.88 -30.03C24.11 -28.87 24.87 -26.99 25.17 -24.37L31.47 -24.37C31.07 -28.35 29.65 -31.44 27.2 -33.62C24.75 -35.8 21.51 -36.89 17.5 -36.89C14.51 -36.89 11.89 -36.19 9.61 -34.77C7.34 -33.35 5.59 -31.34 4.37 -28.72C3.16 -26.1 2.55 -23.08 2.55 -19.65L2.55 -16.25C2.6 -12.9 3.22 -9.96 4.42 -7.42C5.62 -4.89 7.33 -2.94 9.54 -1.56C11.74 -0.19 14.3 0.5 17.2 0.5C21.35 0.5 24.67 -0.59 27.17 -2.76C29.67 -4.94 31.1 -7.97 31.47 -11.85Z M65.91 0L65.91 -36.39L37.29 -36.39L37.29 0L43.59 0L43.59 -31.29L59.62 -31.29L59.62 0Z M94.81 -16.25L94.81 -21.25L79.86 -21.25L79.86 -31.29L97.16 -31.29L97.16 -36.39L73.54 -36.39L73.54 0L97.33 0L97.33 -5.05L79.86 -5.05L79.86 -16.25Z M113.26 -15.6L124.38 0L131.98 0L118.38 -18.97L130.88 -36.39L123.13 -36.39L112.43 -21.1L108.96 -21.1L108.96 -36.39L102.66 -36.39L102.66 0L108.96 0L108.96 -15.6Z M161.77 -31.29L161.77 -36.39L132.9 -36.39L132.9 -31.29L144.15 -31.29L144.15 0L150.43 0L150.43 -31.29Z M172.87 -13.52L180.4 -13.52C184.61 -13.52 187.89 -14.51 190.23 -16.5C192.57 -18.48 193.74 -21.25 193.74 -24.82C193.74 -28.3 192.55 -31.1 190.16 -33.22C187.77 -35.34 184.54 -36.39 180.47 -36.39L166.55 -36.39L166.55 0L172.87 0ZM172.87 -18.6L172.87 -31.29L180.65 -31.29C182.75 -31.26 184.39 -30.66 185.59 -29.48C186.79 -28.31 187.39 -26.74 187.39 -24.77C187.39 -22.77 186.8 -21.24 185.62 -20.18C184.44 -19.13 182.72 -18.6 180.47 -18.6Z"></path></g></g></svg>