<?xml version="1.0" encoding="utf-8"?>
<!-- Generator: Adobe Illustrator 19.0.0, SVG Export Plug-In . SVG Version: 6.00 Build 0)  -->
<svg version="1.1" id="Layer_1" xmlns="http://www.w3.org/2000/svg" xmlns:xlink="http://www.w3.org/1999/xlink" x="0px" y="0px"
	 viewBox="0 0 100 100" style="enable-background:new 0 0 100 100;" xml:space="preserve">
<g>
	<path d="M48.5,41.2c-4.6-8.3-9.6-15-10-15.5c-7.5,3.5-13.1,10.4-14.8,18.7C24.5,44.5,35.6,44.6,48.5,41.2L48.5,41.2z M48.5,41.2"/>
	<path d="M43.6,24C43.5,24,43.5,24,43.6,24C43.5,24,43.6,24,43.6,24L43.6,24z M43.6,24"/>
	<path d="M67.7,29.9C63,25.7,56.8,23.2,50,23.2c-2.2,0-4.3,0.3-6.3,0.8c0.4,0.5,5.4,7.2,10,15.6C63.8,35.8,67.6,30,67.7,29.9
		L67.7,29.9z M67.7,29.9"/>
	<path d="M54.6,54.4c-15.8,5.5-21,16.6-21,16.7c4.5,3.5,10.3,5.7,16.5,5.7c3.7,0,7.3-0.8,10.5-2.1c-0.4-2.3-2-10.6-5.7-20.4
		C54.7,54.4,54.6,54.4,54.6,54.4L54.6,54.4z M54.6,54.4"/>
	<path d="M51.9,50.2c0.4-0.1,0.7-0.2,1.1-0.3c-0.7-1.5-1.4-3.1-2.2-4.6c-13.8,4.1-27.1,3.8-27.5,3.8c0,0.3,0,0.6,0,0.8
		c0,6.9,2.6,13.2,6.9,17.9l0,0C30,67.9,37.4,54.9,51.9,50.2L51.9,50.2z M51.9,50.2"/>
	<path d="M50,0C22.4,0,0,22.4,0,50c0,27.6,22.4,50,50,50c27.6,0,50-22.4,50-50C100,22.4,77.6,0,50,0L50,0z M80.8,56.3
		c-0.4,2-1,4-1.8,5.9c-0.8,1.9-1.8,3.7-2.9,5.3c-1.1,1.7-2.4,3.2-3.8,4.7c-1.4,1.4-3,2.7-4.7,3.8c-1.7,1.1-3.5,2.1-5.3,2.9
		c-1.9,0.8-3.9,1.4-5.9,1.8c-2.1,0.4-4.2,0.6-6.3,0.6c-2.1,0-4.3-0.2-6.3-0.6c-2-0.4-4-1-5.9-1.8c-1.9-0.8-3.7-1.8-5.3-2.9
		c-1.7-1.1-3.2-2.4-4.7-3.8c-1.4-1.4-2.7-3-3.8-4.7c-1.1-1.7-2.1-3.5-2.9-5.3c-0.8-1.9-1.4-3.9-1.8-5.9c-0.4-2.1-0.6-4.2-0.6-6.3
		c0-2.1,0.2-4.3,0.6-6.3c0.4-2,1-4,1.8-5.9c0.8-1.9,1.8-3.7,2.9-5.3c1.1-1.7,2.4-3.2,3.8-4.7c1.4-1.4,3-2.7,4.7-3.8
		c1.7-1.1,3.5-2.1,5.3-2.9c1.9-0.8,3.9-1.4,5.9-1.8c2.1-0.4,4.2-0.6,6.3-0.6c2.1,0,4.3,0.2,6.3,0.6c2,0.4,4,1,5.9,1.8
		c1.9,0.8,3.7,1.8,5.3,2.9c1.7,1.1,3.2,2.4,4.7,3.8c1.4,1.4,2.7,3,3.8,4.7c1.1,1.7,2.1,3.5,2.9,5.3c0.8,1.9,1.4,3.9,1.8,5.9
		c0.4,2.1,0.6,4.2,0.6,6.3C81.4,52.1,81.2,54.3,80.8,56.3L80.8,56.3z M80.8,56.3"/>
	<path d="M59.8,53.1c3.5,9.7,4.9,17.5,5.2,19.2c6-4.1,10.3-10.5,11.5-18C75.9,54.1,68.4,51.7,59.8,53.1L59.8,53.1z M59.8,53.1"/>
	<path d="M55.8,43.6c0.6,1.3,1.2,2.6,1.8,3.9c0.2,0.5,0.4,0.9,0.6,1.4c9.2-1.2,18.3,0.8,18.7,0.9c-0.1-6.4-2.3-12.2-6.1-16.8
		C70.7,33,66.4,39.3,55.8,43.6L55.8,43.6z M55.8,43.6"/>
</g>
</svg>
