<?xml version="1.0" encoding="utf-8"?>
<!-- Generator: Adobe Illustrator 19.0.0, SVG Export Plug-In . SVG Version: 6.00 Build 0)  -->
<svg version="1.1" id="Layer_1" xmlns="http://www.w3.org/2000/svg" xmlns:xlink="http://www.w3.org/1999/xlink" x="0px" y="0px"
	 viewBox="0 0 100 100" style="enable-background:new 0 0 100 100;" xml:space="preserve">
<g>
	<path d="M94.4,25.5c-4.6-7.9-10.8-14.1-18.7-18.7C67.9,2.3,59.3,0,50,0c-9.3,0-17.9,2.3-25.7,6.9c-7.9,4.6-14.1,10.8-18.7,18.7
		C1,33.4-1.3,42-1.3,51.3c0,11.2,3.3,21.2,9.8,30.1c6.5,8.9,14.9,15.1,25.3,18.5c1.2,0.2,2.1,0.1,2.7-0.5c0.6-0.5,0.9-1.2,0.9-2
		c0-0.1,0-1.3,0-3.6c0-2.3,0-4.2,0-5.9l-1.5,0.3c-1,0.2-2.2,0.3-3.7,0.2c-1.5,0-3-0.2-4.6-0.5c-1.6-0.3-3.1-1-4.5-2
		c-1.4-1-2.4-2.4-2.9-4.1l-0.7-1.5c-0.4-1-1.1-2.2-2.1-3.4c-1-1.2-1.9-2.1-2.9-2.5L13.8,74c-0.3-0.2-0.6-0.5-0.9-0.8
		c-0.3-0.3-0.5-0.6-0.6-0.9c-0.1-0.3,0-0.6,0.3-0.8c0.4-0.2,1-0.3,1.9-0.3l1.3,0.2c0.9,0.2,2,0.7,3.3,1.6c1.3,0.9,2.4,2,3.2,3.5
		c1,1.8,2.3,3.2,3.7,4.2c1.4,1,2.9,1.4,4.4,1.4c1.5,0,2.7-0.1,3.8-0.3c1.1-0.2,2.1-0.6,3-1c0.4-3,1.5-5.3,3.3-6.9
		c-2.5-0.3-4.8-0.7-6.8-1.2c-2-0.5-4.1-1.4-6.3-2.6c-2.2-1.2-4-2.7-5.4-4.5c-1.4-1.8-2.6-4.1-3.5-7c-0.9-2.9-1.4-6.2-1.4-10
		c0-5.4,1.8-10,5.3-13.7c-1.6-4-1.5-8.6,0.5-13.6c1.3-0.4,3.2-0.1,5.7,0.9c2.5,1,4.4,1.9,5.6,2.6c1.2,0.7,2.1,1.3,2.8,1.8
		c4.1-1.2,8.4-1.7,12.8-1.7c4.4,0,8.7,0.6,12.8,1.7l2.5-1.6c1.7-1.1,3.8-2,6.1-2.9c2.4-0.9,4.2-1.1,5.4-0.7c2,5,2.2,9.6,0.5,13.6
		c3.5,3.8,5.3,8.4,5.3,13.7c0,3.8-0.5,7.1-1.4,10c-0.9,2.9-2.1,5.3-3.5,7c-1.4,1.8-3.2,3.2-5.4,4.4c-2.2,1.2-4.3,2.1-6.3,2.6
		c-2,0.5-4.3,0.9-6.8,1.2c2.3,2,3.5,5.2,3.5,9.5v14.1c0,0.8,0.3,1.5,0.8,2c0.6,0.5,1.4,0.7,2.6,0.5c10.3-3.4,18.7-9.6,25.3-18.5
		c6.5-8.9,9.8-19,9.8-30.1C101.3,42,99,33.4,94.4,25.5L94.4,25.5z M94.4,25.5"/>
</g>
</svg>
