<?xml version="1.0" encoding="utf-8"?>
<!-- Generator: Adobe Illustrator 19.0.0, SVG Export Plug-In . SVG Version: 6.00 Build 0)  -->
<svg version="1.1" id="Layer_1" xmlns="http://www.w3.org/2000/svg" xmlns:xlink="http://www.w3.org/1999/xlink" x="0px" y="0px"
	 viewBox="0 0 100 100" style="enable-background:new 0 0 100 100;" xml:space="preserve">
<g>
	<path d="M66,30.5c-2,0-3.7,1.6-3.7,3.7c0,2,1.6,3.7,3.7,3.7c2,0,3.7-1.6,3.7-3.7C69.7,32.2,68,30.5,66,30.5z"/>
	<path d="M50,34.6c-8.5,0-15.5,7-15.5,15.5c0,8.5,7,15.5,15.5,15.5c8.5,0,15.5-7,15.5-15.5C65.5,41.6,58.5,34.6,50,34.6z"/>
	<path d="M50,0C22.4,0,0,22.4,0,50s22.4,50,50,50s50-22.4,50-50S77.6,0,50,0z M80.1,65c0,8.4-6.8,15.2-15.2,15.2H35.1
		c-8.4,0-15.2-6.8-15.2-15.2V35.2c0-8.4,6.8-15.2,15.2-15.2h29.8c8.4,0,15.2,6.8,15.2,15.2V65z"/>
</g>
</svg>
