<?xml version="1.0" encoding="utf-8"?>
<!-- Generator: Adobe Illustrator 19.0.0, SVG Export Plug-In . SVG Version: 6.00 Build 0)  -->
<svg version="1.1" id="Layer_1" xmlns="http://www.w3.org/2000/svg" xmlns:xlink="http://www.w3.org/1999/xlink" x="0px" y="0px"
	 viewBox="-279 281 240 240" fill="#393939" style="enable-background:new -279 281 240 240;" xml:space="preserve">
<g>
	<path d="M-159,281c-66.3,0-120,53.7-120,120s53.7,120,120,120s120-53.7,120-120S-92.7,281-159,281z M-100,363.3l-19.7,92.8
		c-1.4,6.6-5.4,8.2-10.9,5.1l-30-22.2l-14.4,14c-1.7,1.6-3,3-6,3l2-30.6l0,0l0,0l0,0l0,0l55.6-50.2c2.4-2.2-0.5-3.2-3.8-1.3
		l-68.7,43.3l-29.7-9.3c-6.4-2-6.5-6.4,1.4-9.5l115.6-44.6C-103.1,351.5-98,355.2-100,363.3z"/>
</g>
</svg>
