<?xml version="1.0" encoding="utf-8"?>
<!-- Generator: Adobe Illustrator 19.0.0, SVG Export Plug-In . SVG Version: 6.00 Build 0)  -->
<svg version="1.1" id="Layer_1" xmlns="http://www.w3.org/2000/svg" xmlns:xlink="http://www.w3.org/1999/xlink" x="0px" y="0px"
	 viewBox="0 0 100 100" style="enable-background:new 0 0 100 100;" xml:space="preserve">
<path d="M50,0C22.4,0,0,22.4,0,50c0,27.6,22.4,50,50,50c27.6,0,50-22.4,50-50C100,22.4,77.6,0,50,0z M74.7,42.1c0,0.5,0,1,0,1.5
	c0,15.8-12,34-34,34c-6.7,0-13-2-18.3-5.4c0.9,0.1,1.9,0.2,2.9,0.2c5.6,0,10.8-1.9,14.8-5.1c-5.2-0.1-9.6-3.6-11.2-8.3
	c0.7,0.1,1.5,0.2,2.3,0.2c1.1,0,2.1-0.1,3.1-0.4c-5.5-1.1-9.6-5.9-9.6-11.7c0-0.1,0-0.1,0-0.2c1.6,0.9,3.5,1.4,5.4,1.5
	c-3.2-2.1-5.3-5.8-5.3-9.9c0-2.2,0.6-4.2,1.6-6c5.9,7.2,14.7,12,24.6,12.5c-0.2-0.9-0.3-1.8-0.3-2.7c0-6.6,5.3-11.9,11.9-11.9
	c3.4,0,6.5,1.4,8.7,3.8c2.7-0.5,5.3-1.5,7.6-2.9c-0.9,2.8-2.8,5.1-5.3,6.6c2.4-0.3,4.7-0.9,6.9-1.9C79,38.3,77,40.4,74.7,42.1z"/>
</svg>
