<?xml version="1.0" encoding="utf-8"?>
<!-- Generator: Adobe Illustrator 19.0.0, SVG Export Plug-In . SVG Version: 6.00 Build 0)  -->
<svg version="1.1" id="Layer_1" xmlns="http://www.w3.org/2000/svg" xmlns:xlink="http://www.w3.org/1999/xlink" x="0px" y="0px"
	 viewBox="550 -100 100 100" style="enable-background:new 550 -100 100 100;" xml:space="preserve">
<g>
	<g transform="translate(0.000000,512.000000) scale(0.100000,-0.100000)">
		<path d="M5951.6,6118.7c-117.7-12.1-223.1-62-305.9-144.7c-79.4-79.4-126.7-175.8-143.4-292.2c-1.6-10.6-2.5-35.8-2.3-62.6
			c0-36.6,0.8-50.1,4.3-72.4c8.8-55.3,22.9-99.9,47.5-149.4c48.7-98.4,126.3-176,224.9-224.9c66.3-33.1,131.2-49.5,206.1-52.2
			c81.2-3.1,159,13.3,232.7,48.9c53.6,25.8,89.8,51.2,131.8,92.1c45.6,44.4,73.3,82.5,100.9,138.9c9,18.4,19.6,42.4,23.5,53.8
			c44.4,129.3,36.2,265.6-23.3,386.2c-26.6,53.6-52.4,90-93.7,131.8c-78,78.8-172.7,126.5-284.9,143.9
			C6045.3,6119.7,5976.6,6121.4,5951.6,6118.7z M6037.4,6012.7c121.4-12.8,226.8-77,292.3-178.2c47.2-72.7,70.3-162.8,62.6-244.4
			c-3.6-38.8-8.2-60.7-19.7-95.4c-38.8-116.5-131.2-209-247.8-247.8c-34.7-11.6-56.6-16.1-95.4-19.7
			c-81.6-7.7-171.7,15.4-244.4,62.6c-178.4,115.6-233.1,351.5-123.5,533.3C5739.6,5953.2,5888.6,6028.4,6037.4,6012.7z"/>
		<path d="M5977.2,5957.6c-20-12.8-40.5-43.3-57.3-85.7c-8.2-20.5-26.5-88.8-26.5-98.7v-6h106.2h106.2l-1.7,11.6
			c-3.1,21.2-17.6,74.2-26.2,95.4C6047.8,5948.9,6011.4,5979.2,5977.2,5957.6z"/>
		<path d="M5884.8,5945.5c-71-25-135.8-76.6-177.2-141.1c-6.5-10.4-18.8-33.7-18.8-36.1c0-0.7,34.4-1,76.3-0.7l76.3,0.7l2.2,10.8
			c11.8,63.1,33.9,128.1,55.9,163.2c3.4,5.5,6,10.1,5.5,10.1C5904.5,5952.5,5895.6,5949.4,5884.8,5945.5z"/>
		<path d="M6099.3,5942.2c18.5-29.6,40-88.6,50.6-138.9c3.6-16.6,6.7-31.5,7.5-33c0.7-2.4,18.1-3.1,76.8-3.1
			c41.7,0,75.8,0.7,75.8,1.4c0,5.1-20.7,39.5-35.2,58.7c-43.1,57.3-104,100.4-171.4,121.8l-10.4,3.1L6099.3,5942.2z"/>
		<path d="M5667.4,5713.4c-7.9-20.5-11.1-47.7-11.1-93.2s3.1-72.5,10.8-92.7l2.4-6h83.1h83.3l-1.9,22.4c-2.4,28.4-2.4,121.1,0,151.7
			l1.7,23.4h-83.1h-83.1L5667.4,5713.4z"/>
		<path d="M5885.5,5713.7c-1-3.1-2.7-25.3-4.3-49.4c-2.2-33.9-2.2-54.2,0-87.9c1.7-24.3,3.4-46.5,4.3-49.4l1.2-5.5h112.7h112.7
			l1.2,5.5c4.6,17.3,7,95.6,4.3,137c-1.7,24.3-3.4,46.5-4.3,49.6l-1.2,5.3h-112.7h-112.7L5885.5,5713.7z"/>
		<path d="M6164.8,5695.6c1.2-13,1.9-46.9,1.9-75.4c0-28.4-0.7-62.4-1.9-75.1l-1.7-23.6h83.1h83.1l2.2,5.5
			c8,20.5,11.1,47.7,11.1,93.2s-3.1,72.7-11.1,93.2l-2.2,5.5h-83.1h-83.1L6164.8,5695.6z"/>
		<path d="M5688.8,5472.2c0-3.9,14.4-28.9,27.5-47.9c30.8-45.5,76.3-85.2,125.4-110.3c27.9-14,57.8-25.5,60.2-23.4
			c0.7,1-2.4,7.9-7.2,15.9c-17.8,30.1-35.9,82.8-47.7,139.2l-5.5,26.5l-76.3,0.7C5723.2,5473.1,5688.8,5472.9,5688.8,5472.2z"/>
		<path d="M5894.7,5462.1c2.9-20.2,17.3-73.4,25.3-93.4c23.4-59.2,52.2-92.7,79.5-92.7c27.2,0,56.1,33.5,79.5,92.7
			c8,20,22.4,73.2,25.3,93.4l1.7,11.3h-106.4H5893L5894.7,5462.1z"/>
		<path d="M6157.3,5470.5c-0.7-1.7-3.9-16.6-7.5-33.2c-10.6-50.3-32-109.3-50.3-138.9l-6.3-9.9l10.4,3.1
			c25.5,7.9,58.3,23.1,79.7,36.8c37.8,24.1,75.1,60.2,99.9,96.5c12.3,18.3,26.7,43.6,26.7,47.2c0,0.7-34.2,1.2-75.8,1.2
			C6175.4,5473.4,6158.1,5472.7,6157.3,5470.5z"/>
	</g>
</g>
</svg>
