<?xml version="1.0" encoding="utf-8"?>
<!-- Generator: Adobe Illustrator 19.0.0, SVG Export Plug-In . SVG Version: 6.00 Build 0)  -->
<svg version="1.1" id="Layer_1" xmlns="http://www.w3.org/2000/svg" xmlns:xlink="http://www.w3.org/1999/xlink" x="0px" y="0px"
	 viewBox="0 0 100 100" fill="#393939" style="enable-background:new 0 0 100 100;" xml:space="preserve">
<g>
	<path d="M38.8,61.7c7.5-3.9,14.9-7.7,22.4-11.6c-7.5-3.9-15-7.8-22.4-11.7V61.7z"/>
	<path d="M50,0C22.4,0,0,22.4,0,50c0,27.6,22.4,50,50,50c27.6,0,50-22.4,50-50C100,22.4,77.6,0,50,0z M84.1,66.7
		c-0.9,3.8-3.9,6.5-7.6,6.9c-8.8,1-17.6,1-26.4,1c-8.8,0-17.7,0-26.4-1c-3.7-0.4-6.8-3.2-7.6-6.9c-1.2-5.3-1.2-11.2-1.2-16.7
		c0-5.5,0-11.3,1.2-16.7c0.9-3.8,3.9-6.5,7.6-6.9c8.8-1,17.6-1,26.4-1c8.8,0,17.7,0,26.4,1c3.7,0.4,6.8,3.2,7.6,6.9
		c1.2,5.3,1.2,11.2,1.2,16.7C85.3,55.5,85.3,61.3,84.1,66.7z"/>
</g>
</svg>
