<?xml version="1.0" encoding="utf-8"?>
<!-- Generator: Adobe Illustrator 19.0.0, SVG Export Plug-In . SVG Version: 6.00 Build 0)  -->
<svg version="1.1" xmlns="http://www.w3.org/2000/svg" xmlns:xlink="http://www.w3.org/1999/xlink" x="0px" y="0px"
	 viewBox="0 0 1860 1228" style="enable-background:new 0 0 1860 1228;" xml:space="preserve">
<style type="text/css">
	.st0{fill:#E30010;}
	.st1{fill:#44005B;}
	.st2{fill:#49C0B5;}
	.st3{fill:#ED2984;}
	.st4{fill:#822984;}
	.st5{fill:#005814;}
	.st6{fill:#F5821F;}
	.st7{fill:#499223;}
	.st8{fill:#ED1C24;}
	.st9{fill:#009A8F;}
	.st10{fill:#E400B6;}
	.st11{fill:#E30B01;}
	.st12{fill:#FEC232;}
	.st13{fill:#F46306;}
	.st14{fill:#EC0080;}
	.st15{fill:#99CA3C;}
	.st16{fill:#8E001E;}
	.st17{fill:#000048;}
	.st18{fill:#007466;}
	.st19{fill:#FEC284;}
	.st20{fill:#F46384;}
	.st21{fill:#EB0019;}
	.st22{fill:#669900;}
	.st23{fill:#E400EA;}
	.st24{fill:#130041;}
	.st25{fill:#FD940A;}
	.st26{fill:#496F07;}
	.st27{fill:#FEE146;}
	.st28{fill:#2C982B;}
</style>
<g id="Layer_1">
</g>
<g id="Layer_2">
</g>
<g id="Layer_3">
	<g>
		<g>
			<path class="st0" d="M1556.4,598.1c-3.7,7.9-7.5,13.5-11.5,15.6c0.4,0.1,0.8,0.2,1.3,0.2h30.2
				C1570.8,611,1563.8,606,1556.4,598.1z"/>
			<path class="st1" d="M1617.5,614h32.4c-7-1.5-13.9-5.4-20.6-10.9C1625.7,608.5,1621.8,612.3,1617.5,614z"/>
			<path class="st2" d="M898.8,614h15.4c-1.1-0.2-2.2-0.5-3.2-0.8C907,613.6,902.9,613.8,898.8,614z"/>
			<path class="st3" d="M1401.5,614h29.7c-4.1-1.6-8.2-4.5-12.2-8.5C1413.3,609.7,1407.5,612.7,1401.5,614z"/>
			<path class="st4" d="M1544.5,614h1.7c-0.4-0.1-0.9-0.2-1.3-0.2C1544.8,613.8,1544.6,613.9,1544.5,614z"/>
			<path class="st4" d="M1293.4,614h32.8c-18.1-0.8-35.5-3.3-52.2-6.8C1281.2,610.6,1288,612.7,1293.4,614z"/>
			<path class="st5" d="M1148.2,614h42c-9-1.9-17.9-6.1-26.6-12C1158.6,607.8,1153.4,612,1148.2,614z"/>
			<path class="st6" d="M1274,607.2c-4.1-1.9-8.4-4.3-12.6-7.2c-1.6,1.1-3.2,2.2-4.7,3.2C1262.4,604.7,1268.1,606,1274,607.2z"/>
			<path class="st7" d="M1256.7,603.2c-8.5,5.5-17.2,9.3-26.2,10.8h58.9h0.6h3.4c-5.4-1.3-12.2-3.4-19.4-6.8
				C1268.1,606,1262.4,604.7,1256.7,603.2z"/>
			<path class="st8" d="M790.2,614h5.6c-3.8-0.4-7.5-1-11.2-1.8C786.5,613,788.3,613.6,790.2,614z"/>
			<path class="st9" d="M189.8,614h2.7c-0.5-0.2-0.9-0.5-1.4-0.8C190.7,613.5,190.2,613.8,189.8,614z"/>
			<path class="st10" d="M784.6,612.2c-2.2-0.9-4.5-2.1-6.6-3.6c-0.9,0.4-1.8,0.9-2.7,1.3C778.3,610.8,781.5,611.6,784.6,612.2z"/>
			<path class="st11" d="M775.2,609.9c-4.1,1.8-8.2,3.2-12.4,4.1h8.2h0.7h18.5c-1.9-0.4-3.8-1-5.6-1.8
				C781.5,611.6,778.3,610.8,775.2,609.9z"/>
			<path class="st6" d="M294.6,607.1c-3.6,1.6-7.3,2.9-11,4c2.9,1.2,5.9,2.2,9,2.9h9C299.2,612.9,296.8,610.5,294.6,607.1z"/>
			<path class="st6" d="M269.2,614h23.3c-3.1-0.7-6.1-1.6-9-2.9C278.8,612.5,274.1,613.5,269.2,614z"/>
			<path class="st3" d="M500.1,607.2c8.1,3.5,16.5,5.9,25.1,6.8h34.2c-12-2.7-28-7.5-44.3-16.5C510.3,601.1,505.3,604.5,500.1,607.2
				z"/>
			<path class="st2" d="M141.9,506.2c0.2,0,0.3,0,0.5,0c0.2,0,0.3,0,0.5,0c13.5,0,29.2,94.7,48.2,107c12.7-8.5,24.2-53.4,34.5-88.2
				c-19.2-52.5-33.1-108.4-61.6-108.4c-0.6,0-3,0-3.7,0c-31.4,0-45,67.3-67.4,123.5c4.8,17.4,9.8,35.6,15,49.7
				C120.8,557.9,132,506.2,141.9,506.2z"/>
			<path class="st12" d="M396,550c0.4,0,0.8,0,1.3,0c0.4,0,0.8,0,1.3,0c15,0,31,10.6,48.3,23.1c7.6-5.5,15-11.1,22.3-16.8
				c-12.3-17.9-21.5-41.1-24.3-71.1c-9.4-99.5-49.9-106.5-66.3-105.2c-16.4-1.3-56.9,5.7-66.3,105.2c-3.5,37.1-16.7,63.7-33.5,82.9
				c5.1,16.2,10.5,30.6,16.1,39C333.5,590.3,366.7,550,396,550z"/>
			<path class="st2" d="M911,613.2c78.3-6.7,143.3-44.2,199.4-44.2c0.7,0,1.4,0,2.1,0c0.7,0,1.4,0,2.1,0c4.9,0,9.9,0.3,14.9,0.8
				c-57.2-67.3-106.8-185.9-150.9-185.9c-0.7,0-1.4,0-2.1,0.1c-0.7,0-1.4-0.1-2.1-0.1c-39.3,0-82.9,94.1-132.4,162.2
				C863.2,576.5,886.1,606.3,911,613.2z"/>
			<path class="st12" d="M1464.9,548.6c16.1-25.2,31-50.6,45-62.2c-3.8-21.9-6.6-47.4-7.7-77.2c-6.1-158.1-32.3-169.4-42.9-167.2
				c-10.6-2.1-36.8,9.1-42.9,167.2c-1.2,30.6-4,56.7-8,79C1426,499.5,1444.8,524.1,1464.9,548.6z"/>
			<path class="st8" d="M1261.4,600c38.3-27.4,72.1-85.8,102.4-108.7c-26.7-75.3-50.7-157-72.7-157c-0.5,0-0.9,0-1.4,0.1
				c-0.5,0-0.9-0.1-1.4-0.1c-21.9,0-45.9,81.2-72.5,156.3c3.8,9.8,6.8,23,8.4,40.8C1227.5,567.4,1244.1,588.1,1261.4,600z"/>
			<path class="st6" d="M1577.5,534.5c-18.3-28.9-35-54.5-50.7-54.5c-0.4,0-0.8,0-1.2,0c-0.4,0-0.8,0-1.2,0c-4.7,0-9.6,2.4-14.5,6.4
				c10.6,60.9,29.7,93.9,46.5,111.7C1563.9,582.2,1570.9,557.2,1577.5,534.5z"/>
			<path class="st13" d="M1464.9,548.6c24.5,29.9,51.1,59.6,80.1,65.2c3.9-2.1,7.8-7.8,11.5-15.6c-16.8-17.8-35.8-50.8-46.5-111.7
				C1495.9,498,1480.9,523.4,1464.9,548.6z"/>
			<path class="st14" d="M1629.2,603.1c3.4-5.2,6.4-11.8,9.1-19.4c-14.1-38.9-26.5-100.7-37.5-100.7c-0.2,0-0.4,0-0.5,0
				c-0.2,0-0.4,0-0.5,0c-6.9,0-14.3,24-22.3,51.5C1593.6,559.9,1610.7,587.8,1629.2,603.1z"/>
			<path class="st0" d="M1629.2,603.1c-18.5-15.3-35.7-43.2-51.7-68.6c-6.6,22.6-13.6,47.6-21.1,63.6c7.4,7.9,14.4,12.8,20,15.9
				h23.8h0.3h17C1621.8,612.3,1625.7,608.5,1629.2,603.1z"/>
			<path class="st2" d="M1687.8,416.7c-0.3,0-1.6,0-1.9,0c-21.4,0-27.3,111.1-47.5,167c5.6,15.5,11.6,27.4,17.8,30.3h9.3
				c12.5-12.8,23.6-110.5,33.6-185.1C1695.8,421.2,1692.1,416.7,1687.8,416.7z"/>
			<path class="st1" d="M1638.4,583.7c-2.8,7.7-5.8,14.3-9.1,19.4c6.7,5.5,13.5,9.4,20.6,10.9h6.4
				C1650,611.1,1644,599.2,1638.4,583.7z"/>
			<path class="st15" d="M1753.6,551.4c-13.3-80.8-24.9-209.4-35.2-209.4c-0.2,0-0.3,0-0.5,0.1c-0.2,0-0.3-0.1-0.5-0.1
				c-5.7,0-11.7,38.6-18.2,86.9c13.1,30.3,20.1,110.1,36.1,154.7C1741.7,572.9,1747.8,561.1,1753.6,551.4z"/>
			<path class="st15" d="M1735.3,583.6c-16.1-44.7-23.1-124.4-36.1-154.7c-10,74.7-21.2,172.3-33.6,185.1h21.1h0.5h19.4
				C1716.8,611.5,1726.3,598.6,1735.3,583.6z"/>
			<path class="st14" d="M1775,530.9c-0.2,0-0.4,0-0.7,0c-0.2,0-0.4,0-0.7,0c-6.3,0-13,8.7-20.1,20.6c5.3,32.1,10.8,56.6,16.6,62.6
				h4h0.3h67.7C1815.6,607.6,1793.8,530.9,1775,530.9z"/>
			<path class="st16" d="M1735.3,583.6c5.6,15.7,12.4,27.1,21,30.4h14c-5.8-6-11.4-30.5-16.6-62.6
				C1747.8,561.1,1741.7,572.9,1735.3,583.6z"/>
			<path class="st16" d="M1735.3,583.6c-8.9,15-18.5,27.9-28.8,30.4h11.2h0.2h38.2C1747.7,610.7,1740.9,599.3,1735.3,583.6z"/>
			<path class="st14" d="M778,608.7c22.4-10.9,43.7-34.5,64-62.5C816.7,510,793.8,473,772.7,473c-0.5,0-0.9,0-1.4,0
				c-0.5,0-0.9,0-1.4,0c-17.2,0-35.6,24.6-55.5,53.3C733.4,551.3,754.4,593.3,778,608.7z"/>
			<path class="st17" d="M842,546.2c-20.3,28-41.6,51.5-64,62.5c2.2,1.4,4.4,2.6,6.6,3.6c3.7,0.8,7.4,1.4,11.2,1.8h103
				c4.1-0.2,8.2-0.4,12.2-0.8C886.1,606.3,863.2,576.5,842,546.2z"/>
			<path class="st2" d="M1133.6,570.3c-1.4-0.2-2.8-0.3-4.1-0.5c0.9,1.1,1.8,2.1,2.7,3.1C1132.7,572.1,1133.1,571.2,1133.6,570.3z"
				/>
			<path class="st18" d="M1132.2,572.9c-0.9-1-1.8-2.1-2.7-3.1c-5-0.5-10-0.8-14.9-0.8c-0.7,0-1.4,0-2.1,0c-0.7,0-1.4,0-2.1,0
				c-56.1,0-121.1,37.5-199.4,44.2c1.1,0.3,2.1,0.6,3.2,0.8H976h1h98.2C1090.4,610.4,1116.6,600.4,1132.2,572.9z"/>
			<path class="st4" d="M1408.4,488.2c-6.3-4-12.5-6.4-18.5-6.4c-0.5,0-1,0-1.5,0c-0.5,0-1,0-1.5,0c-7.4,0-15.1,3.6-23,9.5
				c8.1,22.9,16.5,45.2,25.1,64.5C1396.5,538.5,1403.4,516.4,1408.4,488.2z"/>
			<path class="st19" d="M1419,605.5c16.3-12.1,31.5-34.4,45.8-56.9c-20.1-24.5-38.9-49.1-56.5-60.4c-5,28.1-11.9,50.2-19.5,67.6
				C1398.6,577.4,1408.7,595.1,1419,605.5z"/>
			<path class="st3" d="M1389,555.8c-8.6-19.2-17-41.6-25.1-64.5c-30.4,22.9-64.1,81.3-102.4,108.7c4.2,2.9,8.5,5.3,12.6,7.2
				c16.7,3.5,34.1,6,52.2,6.8h16C1354.5,607.3,1373.3,591.8,1389,555.8z"/>
			<path class="st3" d="M1389,555.8c-15.7,36-34.5,51.5-46.7,58.2h45.8h0.7h12.8c6-1.3,11.8-4.3,17.6-8.5
				C1408.7,595.1,1398.6,577.4,1389,555.8z"/>
			<path class="st20" d="M1464.9,548.6c-14.4,22.5-29.6,44.8-45.8,56.9c4,4,8.1,6.9,12.2,8.5h94.2h0.6h18.5c0.2-0.1,0.3-0.2,0.5-0.2
				C1515.9,608.2,1489.4,578.5,1464.9,548.6z"/>
			<path class="st12" d="M1215.9,490.6c-9.8-25.1-24.4-27.3-31.5-26.7c-9.9-0.9-34.3,3.7-40,67.5c-1.4,15.7-5.3,28.5-10.8,38.9
				c14.3,1.8,29.2,5.5,44.7,10C1191.4,556.9,1203.9,524.4,1215.9,490.6z"/>
			<path class="st6" d="M1256.7,603.2c1.6-1,3.2-2.1,4.7-3.2c-17.3-11.9-33.9-32.6-37.1-68.6c-1.6-17.8-4.6-31-8.4-40.8
				c-12,33.8-24.4,66.3-37.5,89.7C1202.8,587.3,1228.8,596.3,1256.7,603.2z"/>
			<path class="st7" d="M1163.6,602c5-5.7,9.9-13.1,14.7-21.7c-15.5-4.5-30.4-8.1-44.7-10c-0.5,0.9-0.9,1.8-1.4,2.6
				C1142.4,584.7,1152.9,594.7,1163.6,602z"/>
			<path class="st5" d="M1163.6,602c-10.7-7.3-21.2-17.3-31.5-29c-15.6,27.5-41.7,37.5-56.9,41.1h36.8h1h35.2
				C1153.4,612,1158.6,607.8,1163.6,602z"/>
			<path class="st3" d="M1178.3,580.3c-4.8,8.6-9.7,16-14.7,21.7c8.7,5.9,17.5,10.1,26.6,12h40.3c9-1.5,17.7-5.3,26.2-10.8
				C1228.8,596.3,1202.8,587.3,1178.3,580.3z"/>
			<path class="st8" d="M515.1,597.5c19.6-14.6,37-33.5,52.7-33.5c0.3,0,0.6,0,0.9,0c0.3,0,0.6,0,0.9,0c14.1,0,29.5,15.2,46.7,28.9
				c14.4-16.7,27.7-39.9,40.2-57.9c-27.8-21.5-53.7-38.9-77.9-38.9c-0.7,0-1.4,0-2.2,0c-0.7,0-1.4,0-2.2,0
				c-32,0-66.8,30.3-105.2,60.3C482.1,575.4,498.7,588.5,515.1,597.5z"/>
			<path class="st8" d="M500.1,607.2c5.1-2.7,10.1-6.1,15-9.7c-16.4-9-33-22.1-46.1-41.2c-7.3,5.7-14.7,11.4-22.3,16.8
				C463.3,585.2,481,599.1,500.1,607.2z"/>
			<path class="st14" d="M278.5,568.1c-12-37.9-22.6-85.1-32.3-85.1c-0.2,0-0.4,0-0.5,0c-0.2,0-0.4,0-0.5,0
				c-6.1,0-12.5,18.7-19.5,42c8.6,23.5,18.2,46.3,30.8,63.1C264.1,582.6,271.6,576,278.5,568.1z"/>
			<path class="st1" d="M225.6,525.1c-10.3,34.7-21.8,79.7-34.5,88.2c0.5,0.3,0.9,0.6,1.4,0.8h4.7c15.6-3.5,38.1-10.7,59.1-25.9
				C243.9,571.4,234.2,548.6,225.6,525.1z"/>
			<path class="st21" d="M256.4,588.1c7.8,10.4,16.7,18.5,27.1,23c3.7-1.1,7.4-2.5,11-4c-5.6-8.4-11-22.8-16.1-39
				C271.6,576,264.1,582.6,256.4,588.1z"/>
			<path class="st1" d="M256.4,588.1c-21,15.1-43.6,22.4-59.1,25.9h48.3h0.3h23.4c4.8-0.5,9.6-1.5,14.3-2.9
				C273.1,606.7,264.2,598.6,256.4,588.1z"/>
			<path class="st9" d="M142.9,506.2c-0.2,0-0.3,0-0.5,0c-0.2,0-0.3,0-0.5,0c-10,0-21.1,51.7-34,83.7c4.6,12.4,9.5,21.6,14.6,24.1
				h19.8h0.2h19.2h0.9h27.2c0.4-0.2,0.9-0.5,1.3-0.8C172.1,600.9,156.4,506.2,142.9,506.2z"/>
			<path class="st15" d="M92.9,540.2c-8-29.3-15.4-56.2-22.3-56.2c-0.2,0-0.3,0-0.5,0c-0.2,0-0.3,0-0.5,0
				c-14.5,0-31.3,119.9-51.9,130h14C60.5,608,78.5,576.4,92.9,540.2z"/>
			<path class="st22" d="M108,589.9c-5.3-14.1-10.3-32.3-15-49.7C78.5,576.4,60.5,608,31.8,614H70h0.2h22
				C97.8,611.7,103,602.3,108,589.9z"/>
			<path class="st22" d="M108,589.9c-5,12.4-10.2,21.8-15.6,24.1h30.2C117.4,611.5,112.6,602.3,108,589.9z"/>
			<path class="st2" d="M714.5,526.4c-8.7-11.5-17-19.3-25-19.3c-0.3,0-0.7,0-1,0c-0.3,0-0.7,0-1,0c-9.8,0-20.1,12-31.1,27.9
				c10.9,8.4,22.1,17.4,33.6,26.3C698.4,549.8,706.5,537.8,714.5,526.4z"/>
			<path class="st10" d="M775.2,609.9c0.9-0.4,1.8-0.8,2.7-1.3c-23.6-15.4-44.5-57.4-63.5-82.3c-7.9,11.4-16.1,23.5-24.5,34.9
				C716.6,581.7,744.9,601.3,775.2,609.9z"/>
			<path class="st8" d="M641.5,609.4c17.1-8.8,33.2-27.4,48.5-48.1c-11.5-8.9-22.7-17.9-33.6-26.3c-12.5,18.1-25.8,41.3-40.2,57.9
				C624.2,599.3,632.6,605.3,641.5,609.4z"/>
			<path class="st11" d="M690,561.2c-15.3,20.7-31.4,39.3-48.5,48.1c5.2,2.4,10.5,4,16,4.6h30.7h0.5h74.1c4.2-0.9,8.3-2.3,12.4-4.1
				C744.9,601.3,716.6,581.7,690,561.2z"/>
			<path class="st6" d="M398.5,550c-0.4,0-0.8,0-1.3,0c-0.4,0-0.8,0-1.3,0c-29.2,0-62.4,40.3-101.4,57.1c2.3,3.4,4.6,5.8,7,6.9h55.3
				c32-3.4,61.9-20.6,89.9-40.9C429.4,560.6,413.4,550,398.5,550z"/>
			<path class="st11" d="M446.7,573.2c-28,20.3-57.9,37.5-89.9,40.9h40.1h0.6h82.3c7-0.8,13.8-3.3,20.3-6.8
				C481,599.1,463.3,585.2,446.7,573.2z"/>
			<path class="st3" d="M616.2,592.9C599,579.2,583.6,564,569.5,564c-0.3,0-0.6,0-0.9,0c-0.3,0-0.6,0-0.9,0
				c-15.7,0-33.1,18.9-52.7,33.5c16.3,9,32.3,13.9,44.3,16.5h9h0.4h6.9h1h10C597.1,611.9,606.8,603.8,616.2,592.9z"/>
			<path class="st3" d="M616.2,592.9c-9.4,10.9-19.1,19-29.4,21.1h41.7c4.4-0.9,8.7-2.4,13-4.6C632.6,605.3,624.2,599.3,616.2,592.9
				z"/>
			<path class="st3" d="M628.5,614h29c-5.5-0.6-10.8-2.3-16-4.6C637.2,611.6,632.9,613.2,628.5,614z"/>
			<path class="st3" d="M479.8,614h45.4c-8.6-0.9-17-3.3-25.1-6.8C493.6,610.7,486.8,613.2,479.8,614z"/>
		</g>
		<g>
			<path class="st15" d="M121.8,614h-18c4.8,1.9,9,6.2,12.8,12.5c1.9-5.9,3.8-10.1,5.8-12.3C122.2,614.1,122,614,121.8,614z"/>
			<path class="st9" d="M122.5,614h-0.7c0.2,0.1,0.4,0.1,0.6,0.2C122.4,614.1,122.5,614.1,122.5,614z"/>
			<path class="st4" d="M566.6,614h-2.8c3.8,0.5,7.5,1.4,11.3,2.4C572,615.4,569.1,614.6,566.6,614z"/>
			<path class="st5" d="M696.4,626c5.1-5.8,10.2-10,15.4-12h-6.3c-5.9,1.1-11.6,3.6-17.3,7.1C691,622.5,693.7,624.2,696.4,626z"/>
			<path class="st8" d="M705.5,614h-35.7c6.2,1.3,12.4,3.7,18.5,7.1C693.9,617.6,699.7,615.1,705.5,614z"/>
			<path class="st1" d="M1560.8,623c9.6-4.6,19.6-8,30-9h-38.3C1555.3,615.3,1558.1,618.5,1560.8,623z"/>
			<path class="st4" d="M1247.5,614h-75.8h-0.5h-8.7c12,2.7,28,7.6,44.4,16.6C1220,622,1233.6,616,1247.5,614z"/>
			<path class="st4" d="M1097.2,614h-27.4c4.2,0.9,8.2,2.7,12.3,5.3C1087,616.9,1092.1,615.1,1097.2,614z"/>
			<path class="st14" d="M315.5,614h-31.9c5.4,2.9,12.1,7.6,19.2,15C306.9,621.3,311.1,615.8,315.5,614z"/>
			<path class="st1" d="M202.6,625.7c3.8-6,7.8-10.5,11.9-11.7h-22.8C195.4,615.6,199.1,619.7,202.6,625.7z"/>
			<path class="st2" d="M1659.9,617.4c2.2-1,4.5-1.9,6.9-2.6c-0.4-0.3-0.9-0.6-1.3-0.8h-1.3C1662.8,614.7,1661.3,615.8,1659.9,617.4
				z"/>
			<path class="st23" d="M1641.9,630.6c2.2,2.9,4.2,6,6.1,9.3c3.8-9.9,7.8-17.9,11.8-22.5C1653.3,620.5,1647.4,624.9,1641.9,630.6z"
				/>
			<path class="st24" d="M1641.9,630.6c5.4-5.6,11.4-10.1,18-13.1c1.4-1.6,2.9-2.8,4.3-3.4h-46.7
				C1627.6,615.7,1635.4,622,1641.9,630.6z"/>
			<path class="st2" d="M1668.3,614.4c-0.3-0.2-0.6-0.3-0.9-0.4h-2c0.5,0.2,0.9,0.5,1.3,0.8C1667.3,614.7,1667.8,614.6,1668.3,614.4
				z"/>
			<path class="st2" d="M1670.2,614h-2.7c0.3,0.1,0.6,0.3,0.9,0.4C1669,614.3,1669.6,614.1,1670.2,614z"/>
			<polygon class="st2" points="1770.2,614 1770.2,614 1770.2,614 			"/>
			<path class="st2" d="M1770.2,614L1770.2,614h-2.5c-0.6,0.3-1.3,0.7-1.9,1.1C1767.2,614.6,1768.7,614.3,1770.2,614z"/>
			<g>
				<path class="st2" d="M1466.5,677.9c24.9,57.8,38.3,133.4,71.5,133.4c0.6,0,3,0,3.7,0c24.5,0,38.3-41.2,53.8-86.1
					c-10.3-28.7-21.8-80.7-34.7-102.2C1524.9,640.3,1494,675.8,1466.5,677.9z"/>
				<path class="st12" d="M1273.2,614c-14.3,3-27.6,17.5-40.2,35c21.8,19.6,40.1,49.1,44.3,93.8c9.4,99.5,49.9,106.5,66.3,105.2
					c16.4,1.3,56.9-5.7,66.3-105.2c2.9-31.1,12.7-54.9,25.7-73.1c-29.3-16.4-62.5-51.9-100.9-55.7H1273.2z"/>
				<path class="st2" d="M924.1,648.8c-45.2,38-85.7,95.1-122.4,113.5c28.5,44.6,54.9,81.8,79.7,81.8c0.7,0,1.4,0,2.1-0.1
					c0.7,0,1.4,0.1,2.1,0.1c32.5,0,68-64.5,107.4-125.3C971.4,697.3,948.6,670.1,924.1,648.8z"/>
				<path class="st12" d="M436.4,699.2c-0.3,0-0.7,0-1,0c-0.3,0-0.7,0-1,0c-28.5,0-61.7-78.6-102.2-85.3h-16.6
					c-4.4,1.8-8.6,7.3-12.8,15c23,23.9,50.6,76,55,189.8c6.1,158.1,32.3,169.4,42.9,167.2c10.6,2.1,36.8-9.1,42.9-167.2
					c2.6-67.3,13.3-113.1,26.4-144.1C458.1,688.5,446.9,699.2,436.4,699.2z"/>
				<path class="st8" d="M633.5,681.6c-23.1,32.6-44.1,64.6-63.5,64.6c-0.4,0-0.9,0-1.3,0c-0.4,0-0.9,0-1.3,0
					c-24.4,0-51.5-51-82.1-89.8c-4.7,5.7-9.3,11.4-13.8,16.6c36.9,82.6,68.9,220.7,97.5,220.7c0.5,0,0.9,0,1.4-0.1
					c0.5,0,0.9,0.1,1.4,0.1c21.9,0,45.9-81.2,72.5-156.3c-3.8-9.8-6.8-23-8.4-40.8C635.3,691.3,634.5,686.3,633.5,681.6z"/>
				<path class="st2" d="M168.6,685.8c-0.2,0-0.3,0-0.5,0c-0.2,0-0.3,0-0.5,0c-12.7,0-27.4-64.9-45.4-71.6c-2,2.1-3.9,6.4-5.8,12.3
					c27.1,44.7,31.5,184.8,55.6,184.8c0.3,0,1.6,0,1.9,0c19.7,0,26.3-93.7,42.8-152.3c-4.6-13-9.4-24.9-14.3-33.3
					C189.7,646.2,178.5,685.8,168.6,685.8z"/>
				<path class="st15" d="M103.8,614H70.3H70H17.8c20.5,21.1,37.4,272,51.9,272c0.2,0,0.3,0,0.5-0.1c0.2,0,0.3,0.1,0.5,0.1
					c13,0,28-203.9,45.9-259.5C112.8,620.2,108.6,615.9,103.8,614z"/>
				<path class="st9" d="M167.7,685.8c0.2,0,0.3,0,0.5,0c0.2,0,0.3,0,0.5,0c9.9,0,21.1-39.5,34-60.1c-3.5-6-7.2-10.2-10.9-11.7
					h-18.3h-0.5h-4.7H168h-45.5c-0.1,0.1-0.1,0.1-0.2,0.2C140.3,620.9,155,685.8,167.7,685.8z"/>
				<path class="st14" d="M1082,619.3c-31.8,15.5-61.4,56.6-89.1,99.4c20.8,20.7,40.3,36.3,58.8,36.3c0.6,0,1.3,0,1.9,0
					c0.6,0,1.3,0,1.9,0c25.7,0,53.4-29.9,83.6-62.2C1121.9,667.7,1103,633,1082,619.3z"/>
				<path class="st14" d="M1082,619.3c-4-2.6-8.1-4.5-12.3-5.3h-15.7h-0.9h-62c-23.5,3.4-45.8,17-67.1,34.8
					c24.4,21.4,47.3,48.5,68.8,70C1020.6,675.9,1050.2,634.9,1082,619.3z"/>
				<path class="st2" d="M715.6,696.6c-1.1,12.8-3,23.2-5.4,31.6c23,22.9,44.7,40,65.2,40c0.7,0,1.4,0,2.1,0c0.7,0,1.4,0,2.1,0
					c7.2,0,14.6-2.1,22.2-5.9c-23.2-36.2-47.8-77.3-73.9-107.2C721.7,665.9,717.1,679.6,715.6,696.6z"/>
				<path class="st18" d="M924.1,648.8c-20.3-17.8-41.7-31.5-64.3-34.8h-75c-15.2,3.6-41.4,13.6-56.9,41.1
					c26.2,29.9,50.7,71,73.9,107.2C838.5,743.9,878.9,686.8,924.1,648.8z"/>
				<path class="st17" d="M991.2,614H884h-1h-23.2c22.6,3.2,44,17,64.3,34.8C945.4,630.9,967.7,617.3,991.2,614z"/>
				<path class="st3" d="M485.2,656.4c30.6,38.8,57.7,89.8,82.1,89.8c0.4,0,0.9,0,1.3,0c0.4,0,0.9,0,1.3,0c19.4,0,40.4-32,63.5-64.6
					c-9.1-41.8-38.2-58.5-58.4-65.2c-3.7-1-7.5-1.9-11.3-2.4h-25.3C519.2,617.1,501.5,636.7,485.2,656.4z"/>
				<path class="st12" d="M665.5,681.5c-7.3,17.2-14.4,36.3-21.3,55.9c9.8,25.1,24.4,27.3,31.5,26.7c7.9,0.7,25.1-2.1,34.6-35.9
					C695.9,714,681,697.5,665.5,681.5z"/>
				<path class="st12" d="M646.9,663.1c-4.6,6-9,12.3-13.4,18.5c1,4.7,1.8,9.7,2.3,15c1.6,17.8,4.6,31,8.4,40.8
					c6.9-19.5,14-38.7,21.3-55.9C659.4,675.3,653.2,669.1,646.9,663.1z"/>
				<path class="st7" d="M727.8,655.1c-10.2-11.7-20.7-21.7-31.5-29c-10.7,12.3-21,32.1-30.9,55.5c15.5,16,30.4,32.4,44.8,46.7
					c2.4-8.5,4.3-18.8,5.4-31.6C717.1,679.6,721.7,665.9,727.8,655.1z"/>
				<path class="st5" d="M696.4,626c10.7,7.3,21.2,17.3,31.5,29c15.6-27.5,41.7-37.5,56.9-41.1H778h-1h-65.2
					C706.6,616,701.4,620.2,696.4,626z"/>
				<path class="st7" d="M646.9,663.1c6.3,5.9,12.5,12.1,18.6,18.4c9.9-23.4,20.2-43.2,30.9-55.5c-2.7-1.8-5.4-3.5-8.1-5
					C673.8,630,660,645.7,646.9,663.1z"/>
				<path class="st12" d="M633.5,681.6c4.4-6.2,8.9-12.4,13.4-18.5c-22.7-21.4-46.6-39.6-71.8-46.7
					C595.2,623.1,624.4,639.8,633.5,681.6z"/>
				<path class="st8" d="M646.9,663.1c13.1-17.4,26.9-33.1,41.4-42.1c-6.1-3.3-12.2-5.7-18.5-7.1h-99.2H570h-1h-0.6h-1.8
					c2.5,0.6,5.4,1.4,8.5,2.4C600.3,623.5,624.2,641.7,646.9,663.1z"/>
				<path class="st14" d="M1595.5,725.2c4.3,11.9,8.4,19.8,12.3,19.8c0.2,0,0.4,0,0.5,0c0.2,0,0.4,0,0.5,0
					c11.5,0,24.3-66.6,39.2-105.1c-1.9-3.3-3.9-6.4-6.1-9.3C1621.1,652,1607.7,689.7,1595.5,725.2z"/>
				<path class="st1" d="M1617.5,614h-9h-0.3h-17.4c-10.4,1-20.4,4.4-30,9c12.9,21.5,24.3,73.5,34.7,102.2
					c12.3-35.5,25.7-73.2,46.5-94.6C1635.4,622,1627.6,615.7,1617.5,614z"/>
				<path class="st15" d="M1718.1,721.8c-0.2,0-0.3,0-0.5,0c-0.2,0-0.3,0-0.5,0c-3.5,0-7.2-6.5-11.1-16.4c-1.6,1.4-3.3,2.5-5.1,3.3
					c5.8,20.1,11.3,35.3,16.4,35.3c0.2,0,0.3,0,0.5,0c0.2,0,0.3,0,0.5,0c7.6,0,15.8-33,24.9-65.9c-0.8-2.4-1.7-4.8-2.6-7.2
					C1732.5,696.8,1725,721.8,1718.1,721.8z"/>
				<path class="st15" d="M1706,705.4c3.9,9.8,7.6,16.4,11.1,16.4c0.2,0,0.3,0,0.5,0c0.2,0,0.3,0,0.5,0c6.9,0,14.4-24.9,22.7-50.9
					c-2.4-6.6-4.7-13.1-7.2-19.2C1723.9,672.4,1716.9,695.7,1706,705.4z"/>
				<path class="st12" d="M1435.7,669.7c9,5,17.6,8.3,25.8,8.3c0.4,0,0.8,0,1.3,0c0.4,0,0.8,0,1.3,0c0.8,0,1.6,0,2.5-0.1
					c-4.2-9.8-8.8-19.1-13.8-27.5C1446.7,656,1440.9,662.4,1435.7,669.7z"/>
				<path class="st7" d="M1552.5,614h-12.2h-0.9h-14.6c-18.8,4.2-47.8,13.9-72.1,36.4c5,8.3,9.6,17.6,13.8,27.5
					c27.4-2.1,58.4-37.6,94.3-54.9C1558.1,618.5,1555.3,615.3,1552.5,614z"/>
				<path class="st25" d="M1452.7,650.4c-11.4-18.8-25.2-32.7-43.2-36.4h-74.7c38.4,3.8,71.6,39.3,100.9,55.7
					C1440.9,662.4,1446.7,656,1452.7,650.4z"/>
				<path class="st26" d="M1452.7,650.4c24.2-22.5,53.2-32.3,72.1-36.4h-61.7h-0.6h-53C1427.5,617.8,1441.3,631.6,1452.7,650.4z"/>
				<path class="st2" d="M1139.2,692.8c11.1,16.1,21.5,28.2,31.3,28.2c0.3,0,0.7,0,1,0c0.3,0,0.7,0,1,0c18,0,38-40.7,60.5-72
					c-8.4-7.5-17.3-13.6-26.1-18.4C1183,646.1,1160.4,670.1,1139.2,692.8z"/>
				<path class="st27" d="M1273.2,614h-25.7c-14,2-27.5,8-40.6,16.6c8.8,4.8,17.7,10.9,26.1,18.4
					C1245.6,631.5,1258.9,617,1273.2,614z"/>
				<path class="st4" d="M1207,630.5c-16.3-9-32.4-13.9-44.4-16.6h-65.4c-5.1,1.1-10.2,2.9-15.2,5.3c21,13.7,39.9,48.4,57.1,73.5
					C1160.4,670.1,1183,646.1,1207,630.5z"/>
				<path class="st6" d="M470,674.6c0.5-0.5,0.9-1.1,1.4-1.6c-0.1-0.3-0.2-0.5-0.4-0.8C470.7,673,470.3,673.8,470,674.6z"/>
				<path class="st6" d="M428.8,614h-96.6c40.5,6.6,73.7,85.3,102.2,85.3c0.3,0,0.7,0,1,0c0.3,0,0.7,0,1,0
					c10.5,0,21.7-10.7,33.6-24.6c0.3-0.8,0.7-1.6,1-2.4C457.6,642.3,443.6,619.8,428.8,614z"/>
				<path class="st6" d="M481.5,651.7c-3.6,6-7.1,12.8-10.4,20.5c0.1,0.3,0.2,0.5,0.4,0.8c4.5-5.3,9.1-11,13.8-16.6
					C484,654.8,482.7,653.2,481.5,651.7z"/>
				<path class="st6" d="M471,672.2c3.4-7.7,6.9-14.5,10.4-20.5c-15.6-19.1-32.1-34.4-49.7-37.7h-3
					C443.6,619.8,457.6,642.3,471,672.2z"/>
				<path class="st6" d="M481.5,651.7c1.2,1.5,2.5,3.1,3.7,4.6c16.3-19.6,34-39.2,53.3-42.4h-20.8
					C508.2,619.2,494.5,629.9,481.5,651.7z"/>
				<path class="st6" d="M481.5,651.7c13-21.8,26.7-32.5,36.3-37.7h-82.2h-0.5h-3.3C449.3,617.3,465.9,632.6,481.5,651.7z"/>
				<path class="st14" d="M283.6,614h-29.8h-0.3h-10.9c-11,4.3-19.1,21.9-25.6,45c13.4,38,25.3,86,36.1,86c0.2,0,0.4,0,0.6,0
					c0.2,0,0.4,0,0.6,0c14,0,29.9-81.1,48.6-116C295.6,621.6,289,616.9,283.6,614z"/>
				<path class="st1" d="M242.5,614h-28c-4.1,1.3-8.1,5.7-11.9,11.7c5,8.4,9.7,20.2,14.3,33.3C223.5,635.9,231.5,618.3,242.5,614z"
					/>
				<path class="st14" d="M1775.9,614h-0.3h-5.4c0,0,0,0,0,0c-9.8,4.8-18.7,34.4-26.9,64.1c11.6,33.3,22.1,66.9,31.8,66.9
					c0.2,0,0.4,0,0.7,0c0.2,0,0.4,0,0.7,0c18.4,0,39.7-120.9,65.8-131H1775.9z"/>
				<path class="st14" d="M1770.2,614c-1.5,0.3-3,0.6-4.5,1.1c-9.1,6.6-17.4,31.6-25,55.8c0.9,2.4,1.7,4.8,2.6,7.2
					C1751.5,648.4,1760.5,618.8,1770.2,614z"/>
				<path class="st14" d="M1733.5,651.7c2.4,6.1,4.8,12.6,7.2,19.2c7.7-24.2,16-49.2,25-55.8C1751,619.9,1741.4,635,1733.5,651.7z"
					/>
				<path class="st2" d="M1666.8,614.8c-2.4,0.7-4.7,1.6-6.9,2.6c-4.1,4.5-8,12.6-11.8,22.5c16.5,28.6,24,70.1,44.7,70.1
					c0.4,0,1.8,0,2.1,0c2.1,0,4.1-0.5,6-1.3C1690.8,673.7,1679.5,624,1666.8,614.8z"/>
				<path class="st28" d="M1668.3,614.4c-0.5,0.1-1,0.3-1.5,0.4c12.7,9.2,23.9,58.9,34.1,93.9c1.8-0.8,3.5-1.9,5.1-3.3
					C1695,677.4,1682.6,622.4,1668.3,614.4z"/>
				<path class="st28" d="M1706,705.4c10.9-9.7,17.9-33,27.6-53.7c-7.6-19-15.7-34.4-24.3-37.7h-15.2h-0.5h-23.4
					c-0.6,0.1-1.2,0.3-1.9,0.4C1682.6,622.4,1695,677.4,1706,705.4z"/>
				<path class="st24" d="M1733.5,651.7c7.8-16.7,17.4-31.8,32.2-36.6c0.6-0.5,1.3-0.8,1.9-1.1H1718h-0.2h0h-0.2h-8.2
					C1717.9,617.3,1725.9,632.6,1733.5,651.7z"/>
			</g>
		</g>
	</g>
</g>
<g id="Layer_4">
</g>
</svg>
