<?xml version="1.0" encoding="utf-8"?>
<!-- Generator: Adobe Illustrator 19.0.0, SVG Export Plug-In . SVG Version: 6.00 Build 0)  -->
<svg version="1.0" id="Layer_1" xmlns="http://www.w3.org/2000/svg" xmlns:xlink="http://www.w3.org/1999/xlink" x="0px" y="0px"
	 viewBox="0 0 1946 806" style="enable-background:new 0 0 1946 806;" xml:space="preserve">
<style type="text/css">
	.st0{fill:#009A90;}
	.st1{fill:#EC2227;}
	.st2{fill:#FDC232;}
	.st3{fill:#F58220;}
	.st4{fill:#EA0D80;}
	.st5{fill:#4CC1B6;}
	.st6{fill:#9ACA3E;}
	.st7{fill:#822A83;}
</style>
<path class="st0" d="M888.7,172.9c-0.7,0-1.3,0-2,0.1c-0.7,0-1.3-0.1-2-0.1C829,172.9,764.1,385.2,685,403h201.2h0.9h201.2
	C1009.3,385.2,944.4,172.9,888.7,172.9z"/>
<path class="st1" d="M235.5,261c-0.2,0-0.3,0-0.5,0c-0.2,0-0.3,0-0.5,0c-14.1,0-30.5,131-50.5,142h50.9h0.2H286
	C266,392,249.6,261,235.5,261z"/>
<path class="st2" d="M450.8,198.2C444.7,40.1,418.5,28.9,407.9,31c-10.6-2.1-36.8,9.1-42.9,167.2c-5.7,149-51.4,192.3-74.2,204.8
	H525C502.2,390.6,456.5,347.2,450.8,198.2z"/>
<path class="st1" d="M578.9,123.3c-0.5,0-0.9,0-1.4,0.1c-0.5,0-0.9-0.1-1.4-0.1c-39.1,0-84.6,258-140.1,279.7h141.2h0.6H719
	C663.5,381.3,618,123.3,578.9,123.3z"/>
<path class="st3" d="M497.6,208c-0.3,0-0.7,0-1,0c-0.3,0-0.7,0-1,0c-28.5,0-61.7,179.9-102.2,195h102.9h0.5h102.9
	C559.3,387.9,526.1,208,497.6,208z"/>
<path class="st4" d="M325.4,272c-0.2,0-0.4,0-0.5,0c-0.2,0-0.4,0-0.5,0c-15.4,0-33.4,120.9-55.3,131h55.7h0.3h55.7
	C358.8,392.9,340.8,272,325.4,272z"/>
<path class="st5" d="M181.3,205.7c-0.3,0-1.6,0-1.9,0c-27.4,0-29.4,182-68.4,197.3h69.1h0.5h69.1
	C210.8,387.7,208.8,205.7,181.3,205.7z"/>
<path class="st6" d="M149.9,131c-0.2,0-0.3,0-0.5,0.1c-0.2,0-0.3-0.1-0.5-0.1c-14.5,0-31.3,250.9-51.9,272h52.2h0.2h52.2
	C181.2,381.9,164.3,131,149.9,131z"/>
<path class="st0" d="M188.7,331.2c-0.1,0-0.2,0-0.3,0c-0.1,0-0.2,0-0.3,0c-9.2,0-20,66.2-33,71.8h33.3h0.2h33.3
	C208.6,397.4,197.9,331.2,188.7,331.2z"/>
<path class="st4" d="M93.5,319.8c-0.2,0-0.4,0-0.7,0c-0.2,0-0.4,0-0.7,0c-18.7,0-40.6,76.7-67.2,83.2h67.7H93h67.7
	C134.1,396.6,112.3,319.8,93.5,319.8z"/>
<path class="st4" d="M1096.8,284.3c-0.3,0-0.6,0-0.9,0c-0.3,0-0.6,0-0.9,0c-26.7,0-57.9,109.5-95.9,118.7h96.6h0.4h96.6
	C1154.7,393.8,1123.6,284.3,1096.8,284.3z"/>
<path class="st5" d="M730,232c-0.4,0-0.8,0-1.3,0c-0.4,0-0.8,0-1.3,0c-35.3,0-76.4,157.8-126.5,171h127.4h0.6h127.4
	C806.3,389.8,765.2,232,730,232z"/>
<path class="st7" d="M648.7,270.8c-0.3,0-0.5,0-0.8,0c-0.3,0-0.5,0-0.8,0c-22.3,0-48.4,121.9-80.1,132.2h80.7h0.4h80.7
	C697,392.8,671,270.8,648.7,270.8z"/>
<path class="st1" d="M1710.9,261c0.2,0,0.3,0,0.5,0c0.2,0,0.3,0,0.5,0c14.1,0,30.5,131,50.5,142h-50.9h-0.2h-50.9
	C1680.4,392,1696.8,261,1710.9,261z"/>
<path class="st2" d="M1595.8,198.2c-6.1-158.1-32.3-169.4-42.9-167.2c-10.6-2.1-36.8,9.1-42.9,167.2c-5.7,149-51.4,192.3-74.2,204.8
	H1670C1647.2,390.6,1601.5,347.2,1595.8,198.2z"/>
<path class="st1" d="M1288.8,123.3c0.7,0,1.4,0,2.2,0.1c0.7,0,1.4-0.1,2.2-0.1c60.6,0,131.3,258,217.3,279.7h-219h-1h-219
	C1157.5,381.3,1228.2,123.3,1288.8,123.3z"/>
<path class="st3" d="M1448.9,208c0.3,0,0.7,0,1,0c0.3,0,0.7,0,1,0c28.5,0,61.7,179.9,102.2,195h-102.9h-0.5h-102.9
	C1387.2,387.9,1420.4,208,1448.9,208z"/>
<path class="st4" d="M1621,272c0.2,0,0.4,0,0.5,0c0.2,0,0.4,0,0.5,0c15.4,0,33.4,120.9,55.3,131h-55.7h-0.3h-55.7
	C1587.6,392.9,1605.6,272,1621,272z"/>
<path class="st5" d="M1765.1,205.7c0.3,0,1.6,0,1.9,0c27.4,0,29.4,182,68.4,197.3h-69.1h-0.5h-69.1
	C1735.7,387.7,1737.6,205.7,1765.1,205.7z"/>
<path class="st6" d="M1796.5,131c0.2,0,0.3,0,0.5,0.1c0.2,0,0.3-0.1,0.5-0.1c14.5,0,31.3,250.9,51.9,272h-52.2h-0.2h-52.2
	C1765.2,381.9,1782.1,131,1796.5,131z"/>
<path class="st0" d="M1757.7,331.2c0.1,0,0.2,0,0.3,0c0.1,0,0.2,0,0.3,0c9.2,0,20,66.2,33,71.8h-33.3h-0.2h-33.3
	C1737.8,397.4,1748.5,331.2,1757.7,331.2z"/>
<path class="st4" d="M1852.9,319.8c0.2,0,0.4,0,0.7,0c0.2,0,0.4,0,0.7,0c18.7,0,40.6,76.7,67.2,83.2h-67.7h-0.3h-67.7
	C1812.3,396.6,1834.1,319.8,1852.9,319.8z"/>
<path class="st7" d="M1297.8,270.8c0.3,0,0.5,0,0.8,0c0.3,0,0.5,0,0.8,0c22.3,0,48.4,121.9,80.1,132.2h-80.7h-0.4h-80.7
	C1249.4,392.8,1275.4,270.8,1297.8,270.8z"/>
<path class="st5" d="M1181.5,232c0.4,0,0.8,0,1.3,0c0.4,0,0.8,0,1.3,0c35.3,0,76.4,157.8,126.5,171H1183h-0.6H1055
	C1105.1,389.8,1146.2,232,1181.5,232z"/>
<path class="st0" d="M888.7,633.1c-0.7,0-1.3,0-2-0.1c-0.7,0-1.3,0.1-2,0.1C829,633.1,764.1,420.9,685,403h201.2h0.9h201.2
	C1009.3,420.9,944.4,633.1,888.7,633.1z"/>
<path class="st1" d="M235.5,545c-0.2,0-0.3,0-0.5,0c-0.2,0-0.3,0-0.5,0c-14.1,0-30.5-131-50.5-142h50.9h0.2H286
	C266,414,249.6,545,235.5,545z"/>
<path class="st2" d="M450.8,607.8c-6.1,158.1-32.3,169.4-42.9,167.2c-10.6,2.1-36.8-9.1-42.9-167.2c-5.7-149-51.4-192.3-74.2-204.8
	H525C502.2,415.5,456.5,458.8,450.8,607.8z"/>
<path class="st1" d="M578.9,682.7c-0.5,0-0.9,0-1.4-0.1c-0.5,0-0.9,0.1-1.4,0.1c-39.1,0-84.6-258-140.1-279.7h141.2h0.6H719
	C663.5,424.7,618,682.7,578.9,682.7z"/>
<path class="st3" d="M497.6,598c-0.3,0-0.7,0-1,0c-0.3,0-0.7,0-1,0c-28.5,0-61.7-179.9-102.2-195h102.9h0.5h102.9
	C559.3,418.1,526.1,598,497.6,598z"/>
<path class="st4" d="M325.4,534c-0.2,0-0.4,0-0.5,0c-0.2,0-0.4,0-0.5,0c-15.4,0-33.4-120.9-55.3-131h55.7h0.3h55.7
	C358.8,413.2,340.8,534,325.4,534z"/>
<path class="st5" d="M181.3,600.4c-0.3,0-1.6,0-1.9,0c-27.4,0-29.4-182-68.4-197.3h69.1h0.5h69.1
	C210.8,418.3,208.8,600.4,181.3,600.4z"/>
<path class="st6" d="M149.9,675c-0.2,0-0.3,0-0.5-0.1c-0.2,0-0.3,0.1-0.5,0.1c-14.5,0-31.3-250.9-51.9-272h52.2h0.2h52.2
	C181.2,424.1,164.3,675,149.9,675z"/>
<path class="st0" d="M188.7,474.8c-0.1,0-0.2,0-0.3,0c-0.1,0-0.2,0-0.3,0c-9.2,0-20-66.2-33-71.8h33.3h0.2h33.3
	C208.6,408.6,197.9,474.8,188.7,474.8z"/>
<path class="st4" d="M93.5,486.2c-0.2,0-0.4,0-0.7,0c-0.2,0-0.4,0-0.7,0c-18.7,0-40.6-76.7-67.2-83.2h67.7H93h67.7
	C134.1,409.5,112.3,486.2,93.5,486.2z"/>
<path class="st4" d="M1096.8,521.7c-0.3,0-0.6,0-0.9,0c-0.3,0-0.6,0-0.9,0c-26.7,0-57.9-109.5-95.9-118.7h96.6h0.4h96.6
	C1154.7,412.2,1123.6,521.7,1096.8,521.7z"/>
<path class="st5" d="M730,574c-0.4,0-0.8,0-1.3,0c-0.4,0-0.8,0-1.3,0c-35.3,0-76.4-157.8-126.5-171h127.4h0.6h127.4
	C806.3,416.3,765.2,574,730,574z"/>
<path class="st7" d="M648.7,535.2c-0.3,0-0.5,0-0.8,0c-0.3,0-0.5,0-0.8,0c-22.3,0-48.4-121.9-80.1-132.2h80.7h0.4h80.7
	C697,413.3,671,535.2,648.7,535.2z"/>
<path class="st1" d="M1710.9,545c0.2,0,0.3,0,0.5,0c0.2,0,0.3,0,0.5,0c14.1,0,30.5-131,50.5-142h-50.9h-0.2h-50.9
	C1680.4,414,1696.8,545,1710.9,545z"/>
<path class="st2" d="M1595.8,607.8c-6.1,158.1-32.3,169.4-42.9,167.2c-10.6,2.1-36.8-9.1-42.9-167.2c-5.7-149-51.4-192.3-74.2-204.8
	H1670C1647.2,415.5,1601.5,458.8,1595.8,607.8z"/>
<path class="st1" d="M1288.8,682.7c0.7,0,1.4,0,2.2-0.1c0.7,0,1.4,0.1,2.2,0.1c60.6,0,131.3-258,217.3-279.7h-219h-1h-219
	C1157.5,424.7,1228.2,682.7,1288.8,682.7z"/>
<path class="st3" d="M1448.9,598c0.3,0,0.7,0,1,0c0.3,0,0.7,0,1,0c28.5,0,61.7-179.9,102.2-195h-102.9h-0.5h-102.9
	C1387.2,418.1,1420.4,598,1448.9,598z"/>
<path class="st4" d="M1621,534c0.2,0,0.4,0,0.5,0c0.2,0,0.4,0,0.5,0c15.4,0,33.4-120.9,55.3-131h-55.7h-0.3h-55.7
	C1587.6,413.2,1605.6,534,1621,534z"/>
<path class="st5" d="M1765.1,600.4c0.3,0,1.6,0,1.9,0c27.4,0,29.4-182,68.4-197.3h-69.1h-0.5h-69.1
	C1735.7,418.3,1737.6,600.4,1765.1,600.4z"/>
<path class="st6" d="M1796.5,675c0.2,0,0.3,0,0.5-0.1c0.2,0,0.3,0.1,0.5,0.1c14.5,0,31.3-250.9,51.9-272h-52.2h-0.2h-52.2
	C1765.2,424.1,1782.1,675,1796.5,675z"/>
<path class="st0" d="M1757.7,474.8c0.1,0,0.2,0,0.3,0c0.1,0,0.2,0,0.3,0c9.2,0,20-66.2,33-71.8h-33.3h-0.2h-33.3
	C1737.8,408.6,1748.5,474.8,1757.7,474.8z"/>
<path class="st4" d="M1852.9,486.2c0.2,0,0.4,0,0.7,0c0.2,0,0.4,0,0.7,0c18.7,0,40.6-76.7,67.2-83.2h-67.7h-0.3h-67.7
	C1812.3,409.5,1834.1,486.2,1852.9,486.2z"/>
<path class="st7" d="M1297.8,535.2c0.3,0,0.5,0,0.8,0c0.3,0,0.5,0,0.8,0c22.3,0,48.4-121.9,80.1-132.2h-80.7h-0.4h-80.7
	C1249.4,413.3,1275.4,535.2,1297.8,535.2z"/>
<path class="st5" d="M1181.5,574c0.4,0,0.8,0,1.3,0c0.4,0,0.8,0,1.3,0c35.3,0,76.4-157.8,126.5-171H1183h-0.6H1055
	C1105.1,416.3,1146.2,574,1181.5,574z"/>
</svg>
