<svg xmlns="http://www.w3.org/2000/svg" style="display:none"><symbol id="fb" viewBox="0 0 64 64"><title>fb</title><path d="M60.466 0H3.532A3.532 3.532 0 0 0 0 3.532v56.934A3.534 3.534 0 0 0 3.532 64h30.651V39.215h-8.34v-9.66h8.34v-7.124c0-8.265 5.047-12.768 12.422-12.768 3.535 0 6.567.265 7.451.38v8.639l-5.115.002c-4.01 0-4.783 1.906-4.783 4.702v6.166h9.566l-1.25 9.66h-8.317v24.785h16.307A3.536 3.536 0 0 0 64 60.466V3.53A3.533 3.533 0 0 0 60.466 0z" fill="#4266B2" fill-rule="nonzero"/></symbol><symbol id="habr" viewBox="0 0 64 64"><title>habr</title><g fill-rule="nonzero" fill="none"><path fill="#9CC2CE" d="M0 0h64v64H0z"/><path fill="#8BAAB5" d="M41.778 16L64 38.222V64H40.889L20.444 43.556h6.223V16l8.889 8.889z"/><path fill="#FFF" d="M35.556 16v11.556h-8.89V16h-6.222v27.556h6.223V32h8.889v11.556h6.222V16z"/></g></symbol><symbol id="ln" viewBox="0 0 64 64"><title>ln</title><g fill-rule="nonzero" fill="none"><path d="M58.564 0h-53.9C2.091 0 0 2.066 0 4.615v54.766C0 61.931 2.09 64 4.664 64h53.9c2.579 0 4.678-2.07 4.678-4.619V4.615c0-2.55-2.1-4.615-4.678-4.615" fill="#0071A1"/><path d="M13.337 8.889c2.942 0 5.33 2.445 5.33 5.457 0 3.014-2.388 5.458-5.33 5.458C10.382 19.804 8 17.36 8 14.346c0-3.012 2.382-5.457 5.337-5.457zM8.73 54.222h9.208v-30.28H8.73v30.28zM24 23.864h9.017v4.15h.13c1.255-2.387 4.324-4.903 8.9-4.903 9.526 0 11.286 6.286 11.286 14.462v16.65h-9.406V39.457c0-3.52-.06-8.049-4.888-8.049-4.896 0-5.643 3.837-5.643 7.798v15.015H24V23.864" fill="#FFFFFE"/></g></symbol><symbol id="m" viewBox="0 0 64 64"><title>m</title><g fill-rule="nonzero" fill="none"><path fill="#12100E" d="M0 0h64v64H0z"/><path d="M14.837 21.113a1.645 1.645 0 0 0-.538-1.39l-3.983-4.786v-.715h12.37l9.56 20.91 8.406-20.91h11.792v.715l-3.406 3.257a.991.991 0 0 0-.378.953v23.928c-.061.363.085.73.378.953l3.327 3.257V48H35.633v-.715l3.446-3.336c.338-.338.338-.437.338-.953V23.655l-9.58 24.266h-1.295L17.387 23.655v16.263a2.24 2.24 0 0 0 .617 1.867l4.482 5.42v.716H9.778v-.715l4.482-5.421a2.16 2.16 0 0 0 .577-1.867V21.113z" fill="#FFF"/></g></symbol><symbol id="tw" viewBox="0 0 64 64"><title>tw</title><path d="M56 64H8c-4.416 0-8-3.584-8-8V8c0-4.416 3.584-8 8-8h48c4.416 0 8 3.584 8 8v48c0 4.416-3.584 8-8 8zM25.01 48.889c15.094 0 23.353-12.657 23.353-23.615 0-.356 0-.712-.016-1.068a16.827 16.827 0 0 0 4.097-4.305 16.492 16.492 0 0 1-4.721 1.31 8.334 8.334 0 0 0 3.617-4.596 16.217 16.217 0 0 1-5.218 2.007A8.15 8.15 0 0 0 40.136 16c-4.53 0-8.212 3.723-8.212 8.303 0 .648.08 1.279.208 1.894-6.818-.34-12.869-3.658-16.918-8.676a8.373 8.373 0 0 0-1.105 4.176 8.347 8.347 0 0 0 3.65 6.911 8.232 8.232 0 0 1-3.714-1.035v.113c0 4.014 2.833 7.38 6.579 8.141a7.92 7.92 0 0 1-2.161.292c-.528 0-1.04-.049-1.537-.146 1.04 3.302 4.082 5.697 7.667 5.762a16.347 16.347 0 0 1-10.196 3.56c-.656 0-1.312-.032-1.953-.113A23.16 23.16 0 0 0 25.01 48.89z" fill="#4A90E2" fill-rule="nonzero"/></symbol><symbol id="vk" viewBox="0 0 64 64"><title>vk</title><g fill-rule="nonzero" fill="none"><path d="M9.862 0h44.276C59.584 0 64 4.415 64 9.862v44.276C64 59.585 59.584 64 54.138 64H9.862C4.415 64 0 59.585 0 54.138V9.862C0 4.415 4.415 0 9.862 0" fill="#4C75A3"/><path d="M31.523 45.229h2.657s.802-.087 1.212-.52c.377-.398.365-1.146.365-1.146s-.052-3.498 1.602-4.014c1.631-.508 3.726 3.382 5.945 4.878 1.679 1.131 2.954.883 2.954.883l5.936-.081s3.104-.188 1.632-2.584c-.12-.196-.858-1.773-4.413-5.013-3.722-3.39-3.223-2.842 1.26-8.707 2.73-3.572 3.821-5.752 3.48-6.686-.325-.89-2.333-.655-2.333-.655l-6.683.04s-.495-.066-.862.15c-.36.211-.59.704-.59.704s-1.058 2.764-2.468 5.115c-2.976 4.96-4.166 5.222-4.653 4.914-1.131-.718-.849-2.884-.849-4.423 0-4.807.743-6.81-1.446-7.33-.726-.172-1.261-.285-3.12-.304-2.384-.024-4.402.007-5.544.557-.76.365-1.347 1.18-.99 1.226.442.058 1.442.265 1.972.973.685.915.661 2.969.661 2.969s.394 5.658-.919 6.361c-.9.482-2.136-.502-4.79-5.002-1.358-2.305-2.385-4.853-2.385-4.853s-.197-.476-.55-.731c-.429-.309-1.027-.407-1.027-.407l-6.35.041s-.954.026-1.304.433c-.312.362-.025 1.11-.025 1.11S14.87 34.546 20.5 40.3c5.163 5.276 11.024 4.93 11.024 4.93" fill="#FFF"/></g></symbol><symbol id="world" viewBox="0 0 64 64"><title>world</title><path d="M.007 30.685c-.178 10.1 3.032 18.147 9.721 24.243C16.42 60.975 23.912 64 32.162 64c5.527 0 10.745-1.29 15.605-3.872 4.857-2.624 8.783-6.361 11.82-11.342C62.571 43.85 64.045 38.113 64 31.53c-.087-6.312-1.607-11.83-4.59-16.593-2.948-4.753-6.868-8.45-11.73-11.022C42.818 1.293 37.69 0 32.383 0c-3.655 0-7.315.665-11.012 1.956-3.7 1.33-7.182 3.335-10.39 6.007-3.256 2.713-5.842 5.911-7.763 9.694C1.256 21.388.189 25.752.007 30.685zM17.889 16.5c-.713 1.335-1.426 3.466-2.14 6.401-.717 2.933-1.114 5.517-1.158 7.784H3c.712-7.737 3.165-13.833 7.354-18.193.448.448 1.027.85 1.83 1.29.803.445 1.695.89 2.672 1.335 1.03.444 2.01.891 3.034 1.383zm6.023-12.28a45.708 45.708 0 0 0-5.263 9.784c-3.387-1.601-5.486-2.757-6.333-3.512 2.898-2.935 6.735-5.027 11.596-6.271zm3.83-.842c.318-.046.627-.092.896-.134.315-.047.625-.047 1.028-.047h1.023v13.877c-1.07 0-2.451-.178-4.192-.574-1.738-.357-3.524-.846-5.307-1.383A54.13 54.13 0 0 1 27.742 3.38zm2.946 16.631v10.676h-13.38c0-4.14.984-8.542 2.944-13.209 4.372 1.687 7.85 2.533 10.436 2.533zm0 13.385v10.808c-2.629 0-6.066.85-10.257 2.538-.62-1.202-1.292-3.29-2.05-6.315-.712-3.07-1.072-5.382-1.072-7.03h13.379zm-16.097 0c0 3.471 1.026 8.23 3.12 14.278-4.589 2.314-7.044 3.604-7.36 3.871-2.273-2.443-4.01-5.425-5.26-8.893-1.246-3.47-1.874-6.54-1.874-9.256H14.59zM30.688 46.74v14.366l-2.948-.175c-2.537-3.518-4.768-7.519-6.55-11.92 1.25-.62 4.415-1.375 9.498-2.27zm-12.04 3.381c2.317 4.808 4.103 8.095 5.44 9.876-3.876-1.156-7.803-3.295-11.775-6.406 2.144-1.38 4.24-2.536 6.335-3.47zm17.748 10.81l-2.898.175V46.918c3.03.176 6.198.89 9.498 2.092-2.677 5.87-4.906 9.83-6.6 11.92zm15.475-7.34c-2.984 3.111-6.823 5.206-11.597 6.183.938-1.159 1.74-2.403 2.452-3.65a33.575 33.575 0 0 0 1.83-3.915c.537-1.331.848-2.04.896-2.089 3.565 1.739 5.703 2.892 6.419 3.471zm9.189-20.195c0 3.201-.673 6.54-2.099 10.011-1.426 3.471-3.077 6.18-5.038 8.138-.49-.4-1.38-.892-2.679-1.556-1.291-.668-2.897-1.51-4.766-2.49 2.272-5.827 3.386-10.497 3.386-14.101l11.196-.002zm-14.184 0c0 3.918-.981 8.32-2.945 13.344-1.115-.62-2.764-1.247-4.95-1.82-2.14-.626-3.966-.847-5.483-.717V33.394l13.378.001zM33.498 20.01c2.766 0 6.244-.846 10.432-2.534.624 1.022 1.294 3.025 1.963 5.917.625 2.844.981 5.291.981 7.293H33.498V20.01zm20.247-7.518c2.23 2.138 4.011 4.849 5.352 8.231 1.336 3.38 1.964 6.719 1.964 9.962H49.687c0-4.273-1.07-8.985-3.207-14.185 3.249-1.565 5.703-2.893 7.265-4.008zm-1.874-1.999c-.716.623-2.765 1.867-6.243 3.69-1.606-3.956-3.526-7.34-5.707-10.137 4.235 1.244 8.247 3.378 11.95 6.447zM36.22 3.379c2.631 3.204 4.906 7.024 6.778 11.558-1.738 1.12-4.905 1.832-9.497 2.138V3.198h1.025c.893 0 1.468.047 1.694.181z" fill="#000" fill-rule="nonzero"/></symbol><symbol id="yt" viewBox="0 0 91 64"><title>yt</title><g fill-rule="nonzero" fill="none"><path d="M88.722 10.597a11.335 11.335 0 0 0-8.011-7.993C73.644.714 45.308.714 45.308.714s-28.337 0-35.403 1.89a11.337 11.337 0 0 0-8.012 7.993C0 17.647 0 32.357 0 32.357s0 14.71 1.893 21.761a11.337 11.337 0 0 0 8.012 7.993C16.97 64 45.308 64 45.308 64s28.336 0 35.403-1.89a11.334 11.334 0 0 0 8.011-7.992c1.894-7.05 1.894-21.76 1.894-21.76s0-14.71-1.894-21.76" fill="#DA322A"/><path fill="#FFFFFE" d="M36.246 45.919l23.542-13.561-23.542-13.561v27.122"/></g></symbol></svg>